<?xml version="1.0" encoding="UTF-8" standalone="no"?>
<!DOCTYPE svg PUBLIC "-//W3C//DTD SVG 1.1//EN"
 "http://www.w3.org/Graphics/SVG/1.1/DTD/svg11.dtd">
<!-- Generated by graphviz version 12.2.1 (20241206.2353)
 -->
<!-- Title: dependency&#45;cruiser output Pages: 1 -->
<svg width="554pt" height="579pt"
 viewBox="0.00 0.00 554.38 578.50" xmlns="http://www.w3.org/2000/svg" xmlns:xlink="http://www.w3.org/1999/xlink">
<g id="graph0" class="graph" transform="scale(1 1) rotate(0) translate(4 574.5)">
<title>dependency&#45;cruiser output</title>
<g id="clust1" class="cluster">
<title>cluster_apps</title>
<path fill="#ffffff" stroke="black" stroke-width="2" d="M386.12,-511C386.12,-511 432.12,-511 432.12,-511 438.12,-511 444.12,-517 444.12,-523 444.12,-523 444.12,-550.5 444.12,-550.5 444.12,-556.5 438.12,-562.5 432.12,-562.5 432.12,-562.5 386.12,-562.5 386.12,-562.5 380.12,-562.5 374.12,-556.5 374.12,-550.5 374.12,-550.5 374.12,-523 374.12,-523 374.12,-517 380.12,-511 386.12,-511"/>
<text text-anchor="middle" x="409.12" y="-549.95" font-family="Helvetica,sans-Serif" font-weight="bold" font-size="9.00">apps</text>
</g>
<g id="clust2" class="cluster">
<title>cluster_packages</title>
<path fill="#ffffff" stroke="black" stroke-width="2" d="M110.12,-8C110.12,-8 386.12,-8 386.12,-8 392.12,-8 398.12,-14 398.12,-20 398.12,-20 398.12,-424.75 398.12,-424.75 398.12,-430.75 392.12,-436.75 386.12,-436.75 386.12,-436.75 110.13,-436.75 110.13,-436.75 104.12,-436.75 98.12,-430.75 98.12,-424.75 98.12,-424.75 98.12,-20 98.12,-20 98.12,-14 104.12,-8 110.12,-8"/>
<text text-anchor="middle" x="248.12" y="-424.2" font-family="Helvetica,sans-Serif" font-weight="bold" font-size="9.00">packages</text>
</g>
<!-- apps/cli -->
<g id="node1" class="node">
<title>apps/cli</title>
<g id="a_node1"><a xlink:href="apps/cli" xlink:title="cli">
<polygon fill="#c6e9ff" stroke="#0066cc" points="436.12,-536.75 384.1,-536.75 382.12,-534.78 382.12,-519 434.15,-519 436.12,-520.97 436.12,-536.75"/>
<polyline fill="none" stroke="#0066cc" points="434.15,-534.78 382.12,-534.78"/>
<polyline fill="none" stroke="#0066cc" points="434.15,-534.78 434.15,-519"/>
<polyline fill="none" stroke="#0066cc" points="434.15,-534.78 436.12,-536.75"/>
<text text-anchor="start" x="404.62" y="-524.2" font-family="Helvetica,sans-Serif" font-size="9.00" fill="#0066cc">cli</text>
</a>
</g>
</g>
<!-- packages/config -->
<g id="node2" class="node">
<title>packages/config</title>
<g id="a_node2"><a xlink:href="packages/config" xlink:title="config">
<polygon fill="#c6e9ff" stroke="#0066cc" points="160.12,-159.5 108.1,-159.5 106.12,-157.53 106.12,-141.75 158.15,-141.75 160.12,-143.72 160.12,-159.5"/>
<polyline fill="none" stroke="#0066cc" points="158.15,-157.53 106.12,-157.53"/>
<polyline fill="none" stroke="#0066cc" points="158.15,-157.53 158.15,-141.75"/>
<polyline fill="none" stroke="#0066cc" points="158.15,-157.53 160.12,-159.5"/>
<text text-anchor="start" x="120.75" y="-146.95" font-family="Helvetica,sans-Serif" font-size="9.00" fill="#0066cc">config</text>
</a>
</g>
</g>
<!-- apps/cli&#45;&gt;packages/config -->
<g id="edge1" class="edge">
<title>apps/cli&#45;&gt;packages/config</title>
<g id="a_edge1"><a xlink:title="apps&#45;can&#45;depend&#45;on&#45;packages">
<path fill="none" stroke="blue" stroke-width="2" d="M381.76,-531C311.27,-531 129,-531 129,-531 129,-531 129,-172.09 129,-172.09"/>
<polygon fill="blue" stroke="blue" stroke-width="2" points="129,-162.09 133.5,-172.09 129.5,-164.65 129.5,-172.09 129,-172.09 128.5,-172.09 128.5,-164.65 124.5,-172.09 129,-162.09"/>
</a>
</g>
<text text-anchor="middle" x="64.5" y="-479.12" font-family="Helvetica,sans-Serif" font-size="9.00" fill="blue">apps&#45;can&#45;depend&#45;on&#45;packages</text>
</g>
<!-- packages/entities -->
<g id="node3" class="node">
<title>packages/entities</title>
<g id="a_node3"><a xlink:href="packages/entities" xlink:title="entities">
<polygon fill="#c6e9ff" stroke="#0066cc" points="275.12,-33.75 223.1,-33.75 221.12,-31.78 221.12,-16 273.15,-16 275.12,-17.97 275.12,-33.75"/>
<polyline fill="none" stroke="#0066cc" points="273.15,-31.78 221.12,-31.78"/>
<polyline fill="none" stroke="#0066cc" points="273.15,-31.78 273.15,-16"/>
<polyline fill="none" stroke="#0066cc" points="273.15,-31.78 275.12,-33.75"/>
<text text-anchor="start" x="233.5" y="-21.2" font-family="Helvetica,sans-Serif" font-size="9.00" fill="#0066cc">entities</text>
</a>
</g>
</g>
<!-- apps/cli&#45;&gt;packages/entities -->
<g id="edge2" class="edge">
<title>apps/cli&#45;&gt;packages/entities</title>
<g id="a_edge2"><a xlink:title="apps&#45;can&#45;depend&#45;on&#45;packages">
<path fill="none" stroke="blue" stroke-width="2" d="M386.12,-518.67C386.12,-456.98 386.12,-106 386.12,-106 386.12,-106 257.12,-106 257.12,-106 257.12,-106 257.12,-46.62 257.12,-46.62"/>
<polygon fill="blue" stroke="blue" stroke-width="2" points="257.13,-36.62 261.63,-46.62 257.63,-39.18 257.63,-46.62 257.13,-46.62 256.63,-46.62 256.63,-39.18 252.63,-46.62 257.13,-36.62"/>
</a>
</g>
<text text-anchor="middle" x="321.62" y="-209.59" font-family="Helvetica,sans-Serif" font-size="9.00" fill="blue">apps&#45;can&#45;depend&#45;on&#45;packages</text>
</g>
<!-- packages/filesystem&#45;access -->
<g id="node4" class="node">
<title>packages/filesystem&#45;access</title>
<g id="a_node4"><a xlink:href="packages/filesystem-access" xlink:title="filesystem&#45;access">
<polygon fill="#c6e9ff" stroke="#0066cc" points="390.12,-33.75 304.1,-33.75 302.12,-31.78 302.12,-16 388.15,-16 390.12,-17.97 390.12,-33.75"/>
<polyline fill="none" stroke="#0066cc" points="388.15,-31.78 302.12,-31.78"/>
<polyline fill="none" stroke="#0066cc" points="388.15,-31.78 388.15,-16"/>
<polyline fill="none" stroke="#0066cc" points="388.15,-31.78 390.12,-33.75"/>
<text text-anchor="start" x="310.12" y="-21.2" font-family="Helvetica,sans-Serif" font-size="9.00" fill="#0066cc">filesystem&#45;access</text>
</a>
</g>
</g>
<!-- apps/cli&#45;&gt;packages/filesystem&#45;access -->
<g id="edge3" class="edge">
<title>apps/cli&#45;&gt;packages/filesystem&#45;access</title>
<g id="a_edge3"><a xlink:title="apps&#45;can&#45;depend&#45;on&#45;packages">
<path fill="none" stroke="blue" stroke-width="2" d="M388.12,-518.72C388.12,-518.72 388.12,-46.64 388.12,-46.64"/>
<polygon fill="blue" stroke="blue" stroke-width="2" points="388.13,-36.64 392.63,-46.64 388.63,-39.21 388.63,-46.64 388.13,-46.64 387.63,-46.64 387.63,-39.21 383.63,-46.64 388.13,-36.64"/>
</a>
</g>
<text text-anchor="middle" x="452.62" y="-283.88" font-family="Helvetica,sans-Serif" font-size="9.00" fill="blue">apps&#45;can&#45;depend&#45;on&#45;packages</text>
</g>
<!-- packages/query&#45;parser -->
<g id="node5" class="node">
<title>packages/query&#45;parser</title>
<g id="a_node5"><a xlink:href="packages/query-parser" xlink:title="query&#45;parser">
<polygon fill="#c6e9ff" stroke="#0066cc" points="282.38,-159.5 215.85,-159.5 213.88,-157.53 213.88,-141.75 280.4,-141.75 282.38,-143.72 282.38,-159.5"/>
<polyline fill="none" stroke="#0066cc" points="280.4,-157.53 213.88,-157.53"/>
<polyline fill="none" stroke="#0066cc" points="280.4,-157.53 280.4,-141.75"/>
<polyline fill="none" stroke="#0066cc" points="280.4,-157.53 282.38,-159.5"/>
<text text-anchor="start" x="221.88" y="-146.95" font-family="Helvetica,sans-Serif" font-size="9.00" fill="#0066cc">query&#45;parser</text>
</a>
</g>
</g>
<!-- apps/cli&#45;&gt;packages/query&#45;parser -->
<g id="edge4" class="edge">
<title>apps/cli&#45;&gt;packages/query&#45;parser</title>
<g id="a_edge4"><a xlink:title="apps&#45;can&#45;depend&#45;on&#45;packages">
<path fill="none" stroke="blue" stroke-width="2" d="M381.76,-525C334.15,-525 241.12,-525 241.12,-525 241.12,-525 241.12,-172.32 241.12,-172.32"/>
<polygon fill="blue" stroke="blue" stroke-width="2" points="241.13,-162.32 245.63,-172.32 241.63,-164.88 241.63,-172.32 241.13,-172.32 240.63,-172.32 240.63,-164.88 236.63,-172.32 241.13,-162.32"/>
</a>
</g>
<text text-anchor="middle" x="176.62" y="-410.43" font-family="Helvetica,sans-Serif" font-size="9.00" fill="blue">apps&#45;can&#45;depend&#45;on&#45;packages</text>
</g>
<!-- packages/scripting -->
<g id="node6" class="node">
<title>packages/scripting</title>
<g id="a_node6"><a xlink:href="packages/scripting" xlink:title="scripting">
<polygon fill="#c6e9ff" stroke="#0066cc" points="364.12,-411 312.1,-411 310.12,-409.03 310.12,-393.25 362.15,-393.25 364.12,-395.22 364.12,-411"/>
<polyline fill="none" stroke="#0066cc" points="362.15,-409.03 310.12,-409.03"/>
<polyline fill="none" stroke="#0066cc" points="362.15,-409.03 362.15,-393.25"/>
<polyline fill="none" stroke="#0066cc" points="362.15,-409.03 364.12,-411"/>
<text text-anchor="start" x="319.88" y="-398.45" font-family="Helvetica,sans-Serif" font-size="9.00" fill="#0066cc">scripting</text>
</a>
</g>
</g>
<!-- apps/cli&#45;&gt;packages/scripting -->
<g id="edge5" class="edge">
<title>apps/cli&#45;&gt;packages/scripting</title>
<g id="a_edge5"><a xlink:title="apps&#45;can&#45;depend&#45;on&#45;packages">
<path fill="none" stroke="blue" stroke-width="2" d="M384.12,-518.53C384.12,-488.76 384.12,-398 384.12,-398 384.12,-398 376.9,-398 376.9,-398"/>
<polygon fill="blue" stroke="blue" stroke-width="2" points="366.9,-398 376.9,-393.5 369.47,-397.5 376.9,-397.5 376.9,-398 376.9,-398.5 369.47,-398.5 376.9,-402.5 366.9,-398"/>
</a>
</g>
<text text-anchor="middle" x="319.62" y="-455.86" font-family="Helvetica,sans-Serif" font-size="9.00" fill="blue">apps&#45;can&#45;depend&#45;on&#45;packages</text>
</g>
<!-- packages/config&#45;&gt;packages/entities -->
<g id="edge6" class="edge">
<title>packages/config&#45;&gt;packages/entities</title>
<path fill="none" stroke="#0066cc" d="M133.12,-141.59C133.12,-112.79 133.12,-25 133.12,-25 133.12,-25 209.36,-25 209.36,-25"/>
<polygon fill="none" stroke="#0066cc" points="209.36,-28.5 219.36,-25 209.36,-21.5 209.36,-28.5"/>
</g>
<!-- packages/query&#45;parser&#45;&gt;packages/entities -->
<g id="edge15" class="edge">
<title>packages/query&#45;parser&#45;&gt;packages/entities</title>
<path fill="none" stroke="#0066cc" stroke-width="2" d="M239.12,-141.58C239.12,-141.58 239.12,-46.61 239.12,-46.61"/>
<polygon fill="#0066cc" stroke="#0066cc" stroke-width="2" points="239.13,-36.61 243.63,-46.61 239.63,-39.18 239.63,-46.61 239.13,-46.61 238.63,-46.61 238.63,-39.18 234.63,-46.61 239.13,-36.61"/>
</g>
<!-- packages/scripting&#45;&gt;packages/entities -->
<g id="edge16" class="edge">
<title>packages/scripting&#45;&gt;packages/entities</title>
<path fill="none" stroke="#0066cc" d="M310,-405C245.47,-405 88.12,-405 88.12,-405 88.12,-405 88.12,-20 88.12,-20 88.12,-20 209.47,-20 209.47,-20"/>
<polygon fill="none" stroke="#0066cc" points="209.47,-23.5 219.47,-20 209.47,-16.5 209.47,-23.5"/>
</g>
<!-- packages/scripting&#45;&gt;packages/filesystem&#45;access -->
<g id="edge18" class="edge">
<title>packages/scripting&#45;&gt;packages/filesystem&#45;access</title>
<g id="a_edge18"><a xlink:title="package&#45;dependency&#45;only&#45;through&#45;entities">
<path fill="none" stroke="red" d="M364.21,-407C370.87,-407 376.12,-407 376.12,-407 376.12,-407 376.12,-45.46 376.12,-45.46"/>
<polygon fill="none" stroke="red" points="379.63,-45.46 376.13,-35.46 372.63,-45.46 379.63,-45.46"/>
</a>
</g>
<text text-anchor="middle" x="288" y="-233.39" font-family="Helvetica,sans-Serif" font-size="9.00" fill="red">package&#45;dependency&#45;only&#45;through&#45;entities</text>
</g>
<!-- packages/scripting&#45;&gt;packages/query&#45;parser -->
<g id="edge20" class="edge">
<title>packages/scripting&#45;&gt;packages/query&#45;parser</title>
<g id="a_edge20"><a xlink:title="package&#45;dependency&#45;only&#45;through&#45;entities">
<path fill="none" stroke="red" stroke-width="2" d="M310,-399C284.38,-399 249.88,-399 249.88,-399 249.88,-399 249.88,-172.2 249.88,-172.2"/>
<polygon fill="red" stroke="red" stroke-width="2" points="249.88,-162.2 254.38,-172.2 250.38,-164.76 250.38,-172.2 249.88,-172.2 249.38,-172.2 249.38,-164.76 245.38,-172.2 249.88,-162.2"/>
</a>
</g>
<text text-anchor="middle" x="161.75" y="-316.86" font-family="Helvetica,sans-Serif" font-size="9.00" fill="red">package&#45;dependency&#45;only&#45;through&#45;entities</text>
</g>
<!-- packages/document&#45;operations -->
<g id="node8" class="node">
<title>packages/document&#45;operations</title>
<g id="a_node8"><a xlink:href="packages/document-operations" xlink:title="document&#45;operations">
<polygon fill="#c6e9ff" stroke="#0066cc" points="361.62,-285.25 260.6,-285.25 258.62,-283.28 258.62,-267.5 359.65,-267.5 361.62,-269.47 361.62,-285.25"/>
<polyline fill="none" stroke="#0066cc" points="359.65,-283.28 258.62,-283.28"/>
<polyline fill="none" stroke="#0066cc" points="359.65,-283.28 359.65,-267.5"/>
<polyline fill="none" stroke="#0066cc" points="359.65,-283.28 361.62,-285.25"/>
<text text-anchor="start" x="266.62" y="-272.7" font-family="Helvetica,sans-Serif" font-size="9.00" fill="#0066cc">document&#45;operations</text>
</a>
</g>
</g>
<!-- packages/scripting&#45;&gt;packages/document&#45;operations -->
<g id="edge17" class="edge">
<title>packages/scripting&#45;&gt;packages/document&#45;operations</title>
<g id="a_edge17"><a xlink:title="package&#45;dependency&#45;only&#45;through&#45;entities">
<path fill="none" stroke="red" stroke-width="2" d="M335.88,-393.08C335.88,-393.08 335.88,-298.11 335.88,-298.11"/>
<polygon fill="red" stroke="red" stroke-width="2" points="335.88,-288.11 340.38,-298.11 336.38,-290.68 336.38,-298.11 335.88,-298.11 335.38,-298.11 335.38,-290.68 331.38,-298.11 335.88,-288.11"/>
</a>
</g>
<text text-anchor="middle" x="247.75" y="-346.8" font-family="Helvetica,sans-Serif" font-size="9.00" fill="red">package&#45;dependency&#45;only&#45;through&#45;entities</text>
</g>
<!-- packages/indexer -->
<g id="node9" class="node">
<title>packages/indexer</title>
<g id="a_node9"><a xlink:href="packages/indexer" xlink:title="indexer">
<polygon fill="#c6e9ff" stroke="#0066cc" points="362.12,-159.5 310.1,-159.5 308.12,-157.53 308.12,-141.75 360.15,-141.75 362.12,-143.72 362.12,-159.5"/>
<polyline fill="none" stroke="#0066cc" points="360.15,-157.53 308.12,-157.53"/>
<polyline fill="none" stroke="#0066cc" points="360.15,-157.53 360.15,-141.75"/>
<polyline fill="none" stroke="#0066cc" points="360.15,-157.53 362.12,-159.5"/>
<text text-anchor="start" x="319.75" y="-146.95" font-family="Helvetica,sans-Serif" font-size="9.00" fill="#0066cc">indexer</text>
</a>
</g>
</g>
<!-- packages/scripting&#45;&gt;packages/indexer -->
<g id="edge19" class="edge">
<title>packages/scripting&#45;&gt;packages/indexer</title>
<g id="a_edge19"><a xlink:title="package&#45;dependency&#45;only&#45;through&#45;entities">
<path fill="none" stroke="red" stroke-width="2" d="M364.38,-402C367.8,-402 370.12,-402 370.12,-402 370.12,-402 370.12,-151 370.12,-151 370.12,-151 369.35,-151 369.35,-151"/>
<polygon fill="red" stroke="red" stroke-width="2" points="364.79,-151 374.79,-146.5 367.36,-150.5 374.79,-150.5 374.79,-151 374.79,-151.5 367.36,-151.5 374.79,-155.5 364.79,-151"/>
</a>
</g>
<text text-anchor="middle" x="458.25" y="-270.44" font-family="Helvetica,sans-Serif" font-size="9.00" fill="red">package&#45;dependency&#45;only&#45;through&#45;entities</text>
</g>
<!-- packages/core&#45;operations -->
<g id="node7" class="node">
<title>packages/core&#45;operations</title>
<g id="a_node7"><a xlink:href="packages/core-operations" xlink:title="core&#45;operations">
<polygon fill="#c6e9ff" stroke="#0066cc" points="232.38,-285.25 153.85,-285.25 151.88,-283.28 151.88,-267.5 230.4,-267.5 232.38,-269.47 232.38,-285.25"/>
<polyline fill="none" stroke="#0066cc" points="230.4,-283.28 151.88,-283.28"/>
<polyline fill="none" stroke="#0066cc" points="230.4,-283.28 230.4,-267.5"/>
<polyline fill="none" stroke="#0066cc" points="230.4,-283.28 232.38,-285.25"/>
<text text-anchor="start" x="159.88" y="-272.7" font-family="Helvetica,sans-Serif" font-size="9.00" fill="#0066cc">core&#45;operations</text>
</a>
</g>
</g>
<!-- packages/core&#45;operations&#45;&gt;packages/entities -->
<g id="edge7" class="edge">
<title>packages/core&#45;operations&#45;&gt;packages/entities</title>
<path fill="none" stroke="#0066cc" d="M178.04,-267.28C178.04,-222.65 178.04,-29 178.04,-29 178.04,-29 209.31,-29 209.31,-29"/>
<polygon fill="none" stroke="#0066cc" points="209.31,-32.5 219.31,-29 209.31,-25.5 209.31,-32.5"/>
</g>
<!-- packages/core&#45;operations&#45;&gt;packages/filesystem&#45;access -->
<g id="edge8" class="edge">
<title>packages/core&#45;operations&#45;&gt;packages/filesystem&#45;access</title>
<g id="a_edge8"><a xlink:title="package&#45;dependency&#45;only&#45;through&#45;entities">
<path fill="none" stroke="red" stroke-width="2" d="M195.96,-267.24C195.96,-227.3 195.96,-70 195.96,-70 195.96,-70 326.12,-70 326.12,-70 326.12,-70 326.12,-46.44 326.12,-46.44"/>
<polygon fill="red" stroke="red" stroke-width="2" points="326.13,-36.44 330.63,-46.44 326.63,-39.01 326.63,-46.44 326.13,-46.44 325.63,-46.44 325.63,-39.01 321.63,-46.44 326.13,-36.44"/>
</a>
</g>
<text text-anchor="middle" x="107.83" y="-92.96" font-family="Helvetica,sans-Serif" font-size="9.00" fill="red">package&#45;dependency&#45;only&#45;through&#45;entities</text>
</g>
<!-- packages/core&#45;operations&#45;&gt;packages/query&#45;parser -->
<g id="edge9" class="edge">
<title>packages/core&#45;operations&#45;&gt;packages/query&#45;parser</title>
<g id="a_edge9"><a xlink:title="package&#45;dependency&#45;only&#45;through&#45;entities">
<path fill="none" stroke="red" stroke-width="2" d="M223.12,-267.33C223.12,-267.33 223.12,-172.36 223.12,-172.36"/>
<polygon fill="red" stroke="red" stroke-width="2" points="223.13,-162.36 227.63,-172.36 223.63,-164.93 223.63,-172.36 223.13,-172.36 222.63,-172.36 222.63,-164.93 218.63,-172.36 223.13,-162.36"/>
</a>
</g>
<text text-anchor="middle" x="135" y="-221.05" font-family="Helvetica,sans-Serif" font-size="9.00" fill="red">package&#45;dependency&#45;only&#45;through&#45;entities</text>
</g>
<!-- packages/document&#45;operations&#45;&gt;packages/entities -->
<g id="edge10" class="edge">
<title>packages/document&#45;operations&#45;&gt;packages/entities</title>
<path fill="none" stroke="#0066cc" d="M287.31,-267.28C287.31,-222.65 287.31,-29 287.31,-29 287.31,-29 286.12,-29 286.12,-29"/>
<polygon fill="none" stroke="#0066cc" points="286.86,-25.5 276.86,-29 286.86,-32.5 286.86,-25.5"/>
</g>
<!-- packages/document&#45;operations&#45;&gt;packages/filesystem&#45;access -->
<g id="edge11" class="edge">
<title>packages/document&#45;operations&#45;&gt;packages/filesystem&#45;access</title>
<g id="a_edge11"><a xlink:title="package&#45;dependency&#45;only&#45;through&#45;entities">
<path fill="none" stroke="red" d="M292.25,-267.25C292.25,-221.58 292.25,-20 292.25,-20 292.25,-20 293.19,-20 293.19,-20"/>
<polygon fill="none" stroke="red" points="290.12,-23.5 300.12,-20 290.12,-16.5 290.12,-23.5"/>
</a>
</g>
<text text-anchor="middle" x="380.38" y="-134.61" font-family="Helvetica,sans-Serif" font-size="9.00" fill="red">package&#45;dependency&#45;only&#45;through&#45;entities</text>
</g>
<!-- packages/document&#45;operations&#45;&gt;packages/indexer -->
<g id="edge12" class="edge">
<title>packages/document&#45;operations&#45;&gt;packages/indexer</title>
<g id="a_edge12"><a xlink:title="package&#45;dependency&#45;only&#45;through&#45;entities">
<path fill="none" stroke="red" d="M334.88,-267.33C334.88,-267.33 334.88,-171.44 334.88,-171.44"/>
<polygon fill="none" stroke="red" points="338.38,-171.44 334.88,-161.44 331.38,-171.44 338.38,-171.44"/>
</a>
</g>
<text text-anchor="middle" x="423" y="-220.59" font-family="Helvetica,sans-Serif" font-size="9.00" fill="red">package&#45;dependency&#45;only&#45;through&#45;entities</text>
</g>
<!-- packages/indexer&#45;&gt;packages/entities -->
<g id="edge13" class="edge">
<title>packages/indexer&#45;&gt;packages/entities</title>
<path fill="none" stroke="#0066cc" d="M307.96,-151C301.88,-151 297.19,-151 297.19,-151 297.19,-151 297.19,-25 297.19,-25 297.19,-25 287.04,-25 287.04,-25"/>
<polygon fill="none" stroke="#0066cc" points="287.04,-21.5 277.04,-25 287.04,-28.5 287.04,-21.5"/>
</g>
<!-- packages/indexer&#45;&gt;packages/filesystem&#45;access -->
<g id="edge14" class="edge">
<title>packages/indexer&#45;&gt;packages/filesystem&#45;access</title>
<g id="a_edge14"><a xlink:title="package&#45;dependency&#45;only&#45;through&#45;entities">
<path fill="none" stroke="red" d="M344.12,-141.58C344.12,-141.58 344.12,-45.69 344.12,-45.69"/>
<polygon fill="none" stroke="red" points="347.63,-45.69 344.13,-35.69 340.63,-45.69 347.63,-45.69"/>
</a>
</g>
<text text-anchor="middle" x="432.25" y="-94.84" font-family="Helvetica,sans-Serif" font-size="9.00" fill="red">package&#45;dependency&#45;only&#45;through&#45;entities</text>
</g>
</g>
</svg>
