<?xml version="1.0" encoding="UTF-8" standalone="no"?>
<!DOCTYPE svg PUBLIC "-//W3C//DTD SVG 1.1//EN"
 "http://www.w3.org/Graphics/SVG/1.1/DTD/svg11.dtd">
<!-- Generated by graphviz version 12.2.1 (20241206.2353)
 -->
<!-- Title: dependency&#45;cruiser output Pages: 1 -->
<svg width="1794pt" height="1712pt"
 viewBox="0.00 0.00 1794.47 1712.00" xmlns="http://www.w3.org/2000/svg" xmlns:xlink="http://www.w3.org/1999/xlink">
<g id="graph0" class="graph" transform="scale(1 1) rotate(0) translate(4 1708)">
<title>dependency&#45;cruiser output</title>
<g id="clust1" class="cluster">
<title>cluster_apps</title>
<path fill="#ffffff" stroke="black" stroke-width="2" d="M20,-803C20,-803 450.6,-803 450.6,-803 456.6,-803 462.6,-809 462.6,-815 462.6,-815 462.6,-949 462.6,-949 462.6,-955 456.6,-961 450.6,-961 450.6,-961 20,-961 20,-961 14,-961 8,-955 8,-949 8,-949 8,-815 8,-815 8,-809 14,-803 20,-803"/>
<text text-anchor="middle" x="235.3" y="-948.45" font-family="Helvetica,sans-Serif" font-weight="bold" font-size="9.00">apps</text>
</g>
<g id="clust2" class="cluster">
<title>cluster_apps/cli</title>
<path fill="#ffffff" stroke="black" stroke-width="2" d="M28,-811C28,-811 442.6,-811 442.6,-811 448.6,-811 454.6,-817 454.6,-823 454.6,-823 454.6,-911 454.6,-911 454.6,-917 448.6,-923 442.6,-923 442.6,-923 28,-923 28,-923 22,-923 16,-917 16,-911 16,-911 16,-823 16,-823 16,-817 22,-811 28,-811"/>
<text text-anchor="start" x="230.42" y="-910.45" font-family="Helvetica,sans-Serif" font-weight="bold" font-size="9.00">cli</text>
</g>
<g id="clust3" class="cluster">
<title>cluster_apps/cli/src</title>
<path fill="#ffffff" stroke="black" stroke-width="2" d="M36,-831C36,-831 434.6,-831 434.6,-831 440.6,-831 446.6,-837 446.6,-843 446.6,-843 446.6,-885 446.6,-885 446.6,-891 440.6,-897 434.6,-897 434.6,-897 36,-897 36,-897 30,-897 24,-891 24,-885 24,-885 24,-843 24,-843 24,-837 30,-831 36,-831"/>
<text text-anchor="start" x="228.17" y="-884.45" font-family="Helvetica,sans-Serif" font-weight="bold" font-size="9.00">src</text>
</g>
<g id="clust4" class="cluster">
<title>cluster_examples</title>
<path fill="#ffffff" stroke="black" stroke-width="2" d="M187.1,-1077C187.1,-1077 233.1,-1077 233.1,-1077 239.1,-1077 245.1,-1083 245.1,-1089 245.1,-1089 245.1,-1133 245.1,-1133 245.1,-1139 239.1,-1145 233.1,-1145 233.1,-1145 187.1,-1145 187.1,-1145 181.1,-1145 175.1,-1139 175.1,-1133 175.1,-1133 175.1,-1089 175.1,-1089 175.1,-1083 181.1,-1077 187.1,-1077"/>
<text text-anchor="middle" x="210.1" y="-1132.45" font-family="Helvetica,sans-Serif" font-weight="bold" font-size="9.00">examples</text>
</g>
<g id="clust5" class="cluster">
<title>cluster_node_modules</title>
<path fill="#ffffff" stroke="black" stroke-width="2" d="M1424.97,-8C1424.97,-8 1774.47,-8 1774.47,-8 1780.47,-8 1786.47,-14 1786.47,-20 1786.47,-20 1786.47,-1684 1786.47,-1684 1786.47,-1690 1780.47,-1696 1774.47,-1696 1774.47,-1696 1424.97,-1696 1424.97,-1696 1418.97,-1696 1412.97,-1690 1412.97,-1684 1412.97,-1684 1412.97,-20 1412.97,-20 1412.97,-14 1418.97,-8 1424.97,-8"/>
<text text-anchor="middle" x="1599.72" y="-1683.45" font-family="Helvetica,sans-Serif" font-weight="bold" font-size="9.00">node_modules</text>
</g>
<g id="clust6" class="cluster">
<title>cluster_node_modules/.pnpm</title>
<path fill="#ffffff" stroke="black" stroke-width="2" d="M1432.97,-16C1432.97,-16 1766.47,-16 1766.47,-16 1772.47,-16 1778.47,-22 1778.47,-28 1778.47,-28 1778.47,-1646 1778.47,-1646 1778.47,-1652 1772.47,-1658 1766.47,-1658 1766.47,-1658 1432.97,-1658 1432.97,-1658 1426.97,-1658 1420.97,-1652 1420.97,-1646 1420.97,-1646 1420.97,-28 1420.97,-28 1420.97,-22 1426.97,-16 1432.97,-16"/>
<text text-anchor="middle" x="1599.72" y="-1645.45" font-family="Helvetica,sans-Serif" font-weight="bold" font-size="9.00">.pnpm</text>
</g>
<g id="clust7" class="cluster">
<title>cluster_node_modules/.pnpm/@eslint+js@9.29.0</title>
<path fill="#ffffff" stroke="black" stroke-width="2" d="M1551.72,-1032C1551.72,-1032 1645.72,-1032 1645.72,-1032 1651.72,-1032 1657.72,-1038 1657.72,-1044 1657.72,-1044 1657.72,-1226 1657.72,-1226 1657.72,-1232 1651.72,-1238 1645.72,-1238 1645.72,-1238 1551.72,-1238 1551.72,-1238 1545.72,-1238 1539.72,-1232 1539.72,-1226 1539.72,-1226 1539.72,-1044 1539.72,-1044 1539.72,-1038 1545.72,-1032 1551.72,-1032"/>
<text text-anchor="middle" x="1598.72" y="-1225.45" font-family="Helvetica,sans-Serif" font-weight="bold" font-size="9.00">@eslint+js@9.29.0</text>
</g>
<g id="clust8" class="cluster">
<title>cluster_node_modules/.pnpm/@eslint+js@9.29.0/node_modules</title>
<path fill="#ffffff" stroke="black" stroke-width="2" d="M1559.72,-1040C1559.72,-1040 1637.72,-1040 1637.72,-1040 1643.72,-1040 1649.72,-1046 1649.72,-1052 1649.72,-1052 1649.72,-1188 1649.72,-1188 1649.72,-1194 1643.72,-1200 1637.72,-1200 1637.72,-1200 1559.72,-1200 1559.72,-1200 1553.72,-1200 1547.72,-1194 1547.72,-1188 1547.72,-1188 1547.72,-1052 1547.72,-1052 1547.72,-1046 1553.72,-1040 1559.72,-1040"/>
<text text-anchor="middle" x="1598.72" y="-1187.45" font-family="Helvetica,sans-Serif" font-weight="bold" font-size="9.00">node_modules</text>
</g>
<g id="clust9" class="cluster">
<title>cluster_node_modules/.pnpm/@eslint+js@9.29.0/node_modules/@eslint</title>
<path fill="#ffffff" stroke="black" stroke-width="2" d="M1567.72,-1048C1567.72,-1048 1629.72,-1048 1629.72,-1048 1635.72,-1048 1641.72,-1054 1641.72,-1060 1641.72,-1060 1641.72,-1150 1641.72,-1150 1641.72,-1156 1635.72,-1162 1629.72,-1162 1629.72,-1162 1567.72,-1162 1567.72,-1162 1561.72,-1162 1555.72,-1156 1555.72,-1150 1555.72,-1150 1555.72,-1060 1555.72,-1060 1555.72,-1054 1561.72,-1048 1567.72,-1048"/>
<text text-anchor="middle" x="1598.72" y="-1149.45" font-family="Helvetica,sans-Serif" font-weight="bold" font-size="9.00">@eslint</text>
</g>
<g id="clust10" class="cluster">
<title>cluster_node_modules/.pnpm/@eslint+js@9.29.0/node_modules/@eslint/js</title>
<path fill="#ffffff" stroke="black" stroke-width="2" d="M1575.72,-1056C1575.72,-1056 1621.72,-1056 1621.72,-1056 1627.72,-1056 1633.72,-1062 1633.72,-1068 1633.72,-1068 1633.72,-1112 1633.72,-1112 1633.72,-1118 1627.72,-1124 1621.72,-1124 1621.72,-1124 1575.72,-1124 1575.72,-1124 1569.72,-1124 1563.72,-1118 1563.72,-1112 1563.72,-1112 1563.72,-1068 1563.72,-1068 1563.72,-1062 1569.72,-1056 1575.72,-1056"/>
<text text-anchor="middle" x="1598.72" y="-1111.45" font-family="Helvetica,sans-Serif" font-weight="bold" font-size="9.00">js</text>
</g>
<g id="clust11" class="cluster">
<title>cluster_node_modules/.pnpm/arquero@8.0.3</title>
<path fill="#ffffff" stroke="black" stroke-width="2" d="M1559.72,-452C1559.72,-452 1637.72,-452 1637.72,-452 1643.72,-452 1649.72,-458 1649.72,-464 1649.72,-464 1649.72,-600 1649.72,-600 1649.72,-606 1643.72,-612 1637.72,-612 1637.72,-612 1559.72,-612 1559.72,-612 1553.72,-612 1547.72,-606 1547.72,-600 1547.72,-600 1547.72,-464 1547.72,-464 1547.72,-458 1553.72,-452 1559.72,-452"/>
<text text-anchor="middle" x="1598.72" y="-599.45" font-family="Helvetica,sans-Serif" font-weight="bold" font-size="9.00">arquero@8.0.3</text>
</g>
<g id="clust12" class="cluster">
<title>cluster_node_modules/.pnpm/arquero@8.0.3/node_modules</title>
<path fill="#ffffff" stroke="black" stroke-width="2" d="M1567.72,-460C1567.72,-460 1629.72,-460 1629.72,-460 1635.72,-460 1641.72,-466 1641.72,-472 1641.72,-472 1641.72,-562 1641.72,-562 1641.72,-568 1635.72,-574 1629.72,-574 1629.72,-574 1567.72,-574 1567.72,-574 1561.72,-574 1555.72,-568 1555.72,-562 1555.72,-562 1555.72,-472 1555.72,-472 1555.72,-466 1561.72,-460 1567.72,-460"/>
<text text-anchor="middle" x="1598.72" y="-561.45" font-family="Helvetica,sans-Serif" font-weight="bold" font-size="9.00">node_modules</text>
</g>
<g id="clust13" class="cluster">
<title>cluster_node_modules/.pnpm/arquero@8.0.3/node_modules/arquero</title>
<path fill="#ffffff" stroke="black" stroke-width="2" d="M1575.72,-468C1575.72,-468 1621.72,-468 1621.72,-468 1627.72,-468 1633.72,-474 1633.72,-480 1633.72,-480 1633.72,-524 1633.72,-524 1633.72,-530 1627.72,-536 1621.72,-536 1621.72,-536 1575.72,-536 1575.72,-536 1569.72,-536 1563.72,-530 1563.72,-524 1563.72,-524 1563.72,-480 1563.72,-480 1563.72,-474 1569.72,-468 1575.72,-468"/>
<text text-anchor="middle" x="1598.72" y="-523.45" font-family="Helvetica,sans-Serif" font-weight="bold" font-size="9.00">arquero</text>
</g>
<g id="clust14" class="cluster">
<title>cluster_node_modules/.pnpm/glob@11.0.3</title>
<path fill="#ffffff" stroke="black" stroke-width="2" d="M1551.72,-238C1551.72,-238 1645.72,-238 1645.72,-238 1651.72,-238 1657.72,-244 1657.72,-250 1657.72,-250 1657.72,-432 1657.72,-432 1657.72,-438 1651.72,-444 1645.72,-444 1645.72,-444 1551.72,-444 1551.72,-444 1545.72,-444 1539.72,-438 1539.72,-432 1539.72,-432 1539.72,-250 1539.72,-250 1539.72,-244 1545.72,-238 1551.72,-238"/>
<text text-anchor="middle" x="1598.72" y="-431.45" font-family="Helvetica,sans-Serif" font-weight="bold" font-size="9.00">glob@11.0.3</text>
</g>
<g id="clust15" class="cluster">
<title>cluster_node_modules/.pnpm/glob@11.0.3/node_modules</title>
<path fill="#ffffff" stroke="black" stroke-width="2" d="M1559.72,-246C1559.72,-246 1637.72,-246 1637.72,-246 1643.72,-246 1649.72,-252 1649.72,-258 1649.72,-258 1649.72,-394 1649.72,-394 1649.72,-400 1643.72,-406 1637.72,-406 1637.72,-406 1559.72,-406 1559.72,-406 1553.72,-406 1547.72,-400 1547.72,-394 1547.72,-394 1547.72,-258 1547.72,-258 1547.72,-252 1553.72,-246 1559.72,-246"/>
<text text-anchor="middle" x="1598.72" y="-393.45" font-family="Helvetica,sans-Serif" font-weight="bold" font-size="9.00">node_modules</text>
</g>
<g id="clust16" class="cluster">
<title>cluster_node_modules/.pnpm/glob@11.0.3/node_modules/glob</title>
<path fill="#ffffff" stroke="black" stroke-width="2" d="M1567.72,-254C1567.72,-254 1629.72,-254 1629.72,-254 1635.72,-254 1641.72,-260 1641.72,-266 1641.72,-266 1641.72,-356 1641.72,-356 1641.72,-362 1635.72,-368 1629.72,-368 1629.72,-368 1567.72,-368 1567.72,-368 1561.72,-368 1555.72,-362 1555.72,-356 1555.72,-356 1555.72,-266 1555.72,-266 1555.72,-260 1561.72,-254 1567.72,-254"/>
<text text-anchor="middle" x="1598.72" y="-355.45" font-family="Helvetica,sans-Serif" font-weight="bold" font-size="9.00">glob</text>
</g>
<g id="clust17" class="cluster">
<title>cluster_node_modules/.pnpm/glob@11.0.3/node_modules/glob/dist</title>
<path fill="#ffffff" stroke="black" stroke-width="2" d="M1575.72,-262C1575.72,-262 1621.72,-262 1621.72,-262 1627.72,-262 1633.72,-268 1633.72,-274 1633.72,-274 1633.72,-318 1633.72,-318 1633.72,-324 1627.72,-330 1621.72,-330 1621.72,-330 1575.72,-330 1575.72,-330 1569.72,-330 1563.72,-324 1563.72,-318 1563.72,-318 1563.72,-274 1563.72,-274 1563.72,-268 1569.72,-262 1575.72,-262"/>
<text text-anchor="middle" x="1598.72" y="-317.45" font-family="Helvetica,sans-Serif" font-weight="bold" font-size="9.00">dist</text>
</g>
<g id="clust18" class="cluster">
<title>cluster_node_modules/.pnpm/gray&#45;matter@4.0.3</title>
<path fill="#ffffff" stroke="black" stroke-width="2" d="M1563.47,-620C1563.47,-620 1635.72,-620 1635.72,-620 1641.72,-620 1647.72,-626 1647.72,-632 1647.72,-632 1647.72,-722 1647.72,-722 1647.72,-728 1641.72,-734 1635.72,-734 1635.72,-734 1563.47,-734 1563.47,-734 1557.47,-734 1551.47,-728 1551.47,-722 1551.47,-722 1551.47,-632 1551.47,-632 1551.47,-626 1557.47,-620 1563.47,-620"/>
<text text-anchor="middle" x="1599.6" y="-721.45" font-family="Helvetica,sans-Serif" font-weight="bold" font-size="9.00">gray&#45;matter@4.0.3</text>
</g>
<g id="clust19" class="cluster">
<title>cluster_node_modules/.pnpm/gray&#45;matter@4.0.3/node_modules</title>
<path fill="#ffffff" stroke="black" stroke-width="2" d="M1571.72,-628C1571.72,-628 1626.72,-628 1626.72,-628 1632.72,-628 1638.72,-634 1638.72,-640 1638.72,-640 1638.72,-684 1638.72,-684 1638.72,-690 1632.72,-696 1626.72,-696 1626.72,-696 1571.72,-696 1571.72,-696 1565.72,-696 1559.72,-690 1559.72,-684 1559.72,-684 1559.72,-640 1559.72,-640 1559.72,-634 1565.72,-628 1571.72,-628"/>
<text text-anchor="middle" x="1599.22" y="-683.45" font-family="Helvetica,sans-Serif" font-weight="bold" font-size="9.00">node_modules</text>
</g>
<g id="clust20" class="cluster">
<title>cluster_node_modules/.pnpm/js&#45;yaml@4.1.0</title>
<path fill="#ffffff" stroke="black" stroke-width="2" d="M1559.72,-1460C1559.72,-1460 1637.72,-1460 1637.72,-1460 1643.72,-1460 1649.72,-1466 1649.72,-1472 1649.72,-1472 1649.72,-1608 1649.72,-1608 1649.72,-1614 1643.72,-1620 1637.72,-1620 1637.72,-1620 1559.72,-1620 1559.72,-1620 1553.72,-1620 1547.72,-1614 1547.72,-1608 1547.72,-1608 1547.72,-1472 1547.72,-1472 1547.72,-1466 1553.72,-1460 1559.72,-1460"/>
<text text-anchor="middle" x="1598.72" y="-1607.45" font-family="Helvetica,sans-Serif" font-weight="bold" font-size="9.00">js&#45;yaml@4.1.0</text>
</g>
<g id="clust21" class="cluster">
<title>cluster_node_modules/.pnpm/js&#45;yaml@4.1.0/node_modules</title>
<path fill="#ffffff" stroke="black" stroke-width="2" d="M1567.72,-1468C1567.72,-1468 1629.72,-1468 1629.72,-1468 1635.72,-1468 1641.72,-1474 1641.72,-1480 1641.72,-1480 1641.72,-1570 1641.72,-1570 1641.72,-1576 1635.72,-1582 1629.72,-1582 1629.72,-1582 1567.72,-1582 1567.72,-1582 1561.72,-1582 1555.72,-1576 1555.72,-1570 1555.72,-1570 1555.72,-1480 1555.72,-1480 1555.72,-1474 1561.72,-1468 1567.72,-1468"/>
<text text-anchor="middle" x="1598.72" y="-1569.45" font-family="Helvetica,sans-Serif" font-weight="bold" font-size="9.00">node_modules</text>
</g>
<g id="clust22" class="cluster">
<title>cluster_node_modules/.pnpm/js&#45;yaml@4.1.0/node_modules/js&#45;yaml</title>
<path fill="#ffffff" stroke="black" stroke-width="2" d="M1575.72,-1476C1575.72,-1476 1621.72,-1476 1621.72,-1476 1627.72,-1476 1633.72,-1482 1633.72,-1488 1633.72,-1488 1633.72,-1532 1633.72,-1532 1633.72,-1538 1627.72,-1544 1621.72,-1544 1621.72,-1544 1575.72,-1544 1575.72,-1544 1569.72,-1544 1563.72,-1538 1563.72,-1532 1563.72,-1532 1563.72,-1488 1563.72,-1488 1563.72,-1482 1569.72,-1476 1575.72,-1476"/>
<text text-anchor="middle" x="1598.72" y="-1531.45" font-family="Helvetica,sans-Serif" font-weight="bold" font-size="9.00">js&#45;yaml</text>
</g>
<g id="clust23" class="cluster">
<title>cluster_node_modules/.pnpm/minimatch@9.0.5</title>
<path fill="#ffffff" stroke="black" stroke-width="2" d="M1551.72,-24C1551.72,-24 1645.72,-24 1645.72,-24 1651.72,-24 1657.72,-30 1657.72,-36 1657.72,-36 1657.72,-218 1657.72,-218 1657.72,-224 1651.72,-230 1645.72,-230 1645.72,-230 1551.72,-230 1551.72,-230 1545.72,-230 1539.72,-224 1539.72,-218 1539.72,-218 1539.72,-36 1539.72,-36 1539.72,-30 1545.72,-24 1551.72,-24"/>
<text text-anchor="middle" x="1598.72" y="-217.45" font-family="Helvetica,sans-Serif" font-weight="bold" font-size="9.00">minimatch@9.0.5</text>
</g>
<g id="clust24" class="cluster">
<title>cluster_node_modules/.pnpm/minimatch@9.0.5/node_modules</title>
<path fill="#ffffff" stroke="black" stroke-width="2" d="M1559.72,-32C1559.72,-32 1637.72,-32 1637.72,-32 1643.72,-32 1649.72,-38 1649.72,-44 1649.72,-44 1649.72,-180 1649.72,-180 1649.72,-186 1643.72,-192 1637.72,-192 1637.72,-192 1559.72,-192 1559.72,-192 1553.72,-192 1547.72,-186 1547.72,-180 1547.72,-180 1547.72,-44 1547.72,-44 1547.72,-38 1553.72,-32 1559.72,-32"/>
<text text-anchor="middle" x="1598.72" y="-179.45" font-family="Helvetica,sans-Serif" font-weight="bold" font-size="9.00">node_modules</text>
</g>
<g id="clust25" class="cluster">
<title>cluster_node_modules/.pnpm/minimatch@9.0.5/node_modules/minimatch</title>
<path fill="#ffffff" stroke="black" stroke-width="2" d="M1567.72,-40C1567.72,-40 1629.72,-40 1629.72,-40 1635.72,-40 1641.72,-46 1641.72,-52 1641.72,-52 1641.72,-142 1641.72,-142 1641.72,-148 1635.72,-154 1629.72,-154 1629.72,-154 1567.72,-154 1567.72,-154 1561.72,-154 1555.72,-148 1555.72,-142 1555.72,-142 1555.72,-52 1555.72,-52 1555.72,-46 1561.72,-40 1567.72,-40"/>
<text text-anchor="middle" x="1598.72" y="-141.45" font-family="Helvetica,sans-Serif" font-weight="bold" font-size="9.00">minimatch</text>
</g>
<g id="clust26" class="cluster">
<title>cluster_node_modules/.pnpm/minimatch@9.0.5/node_modules/minimatch/dist</title>
<path fill="#ffffff" stroke="black" stroke-width="2" d="M1575.72,-48C1575.72,-48 1621.72,-48 1621.72,-48 1627.72,-48 1633.72,-54 1633.72,-60 1633.72,-60 1633.72,-104 1633.72,-104 1633.72,-110 1627.72,-116 1621.72,-116 1621.72,-116 1575.72,-116 1575.72,-116 1569.72,-116 1563.72,-110 1563.72,-104 1563.72,-104 1563.72,-60 1563.72,-60 1563.72,-54 1569.72,-48 1575.72,-48"/>
<text text-anchor="middle" x="1598.72" y="-103.45" font-family="Helvetica,sans-Serif" font-weight="bold" font-size="9.00">dist</text>
</g>
<g id="clust27" class="cluster">
<title>cluster_node_modules/.pnpm/typescript&#45;eslint@8.35.0_eslint@9.29.0_typescript@5.8.3</title>
<path fill="#ffffff" stroke="black" stroke-width="2" d="M1481.1,-864C1481.1,-864 1718.35,-864 1718.35,-864 1724.35,-864 1730.35,-870 1730.35,-876 1730.35,-876 1730.35,-1012 1730.35,-1012 1730.35,-1018 1724.35,-1024 1718.35,-1024 1718.35,-1024 1481.1,-1024 1481.1,-1024 1475.1,-1024 1469.1,-1018 1469.1,-1012 1469.1,-1012 1469.1,-876 1469.1,-876 1469.1,-870 1475.1,-864 1481.1,-864"/>
<text text-anchor="middle" x="1599.72" y="-1011.45" font-family="Helvetica,sans-Serif" font-weight="bold" font-size="9.00">typescript&#45;eslint@8.35.0_eslint@9.29.0_typescript@5.8.3</text>
</g>
<g id="clust28" class="cluster">
<title>cluster_node_modules/.pnpm/typescript&#45;eslint@8.35.0_eslint@9.29.0_typescript@5.8.3/node_modules</title>
<path fill="#ffffff" stroke="black" stroke-width="2" d="M1560.35,-872C1560.35,-872 1638.1,-872 1638.1,-872 1644.1,-872 1650.1,-878 1650.1,-884 1650.1,-884 1650.1,-974 1650.1,-974 1650.1,-980 1644.1,-986 1638.1,-986 1638.1,-986 1560.35,-986 1560.35,-986 1554.35,-986 1548.35,-980 1548.35,-974 1548.35,-974 1548.35,-884 1548.35,-884 1548.35,-878 1554.35,-872 1560.35,-872"/>
<text text-anchor="middle" x="1599.22" y="-973.45" font-family="Helvetica,sans-Serif" font-weight="bold" font-size="9.00">node_modules</text>
</g>
<g id="clust29" class="cluster">
<title>cluster_node_modules/.pnpm/typescript&#45;eslint@8.35.0_eslint@9.29.0_typescript@5.8.3/node_modules/typescript&#45;eslint</title>
<path fill="#ffffff" stroke="black" stroke-width="2" d="M1568.35,-880C1568.35,-880 1630.1,-880 1630.1,-880 1636.1,-880 1642.1,-886 1642.1,-892 1642.1,-892 1642.1,-936 1642.1,-936 1642.1,-942 1636.1,-948 1630.1,-948 1630.1,-948 1568.35,-948 1568.35,-948 1562.35,-948 1556.35,-942 1556.35,-936 1556.35,-936 1556.35,-892 1556.35,-892 1556.35,-886 1562.35,-880 1568.35,-880"/>
<text text-anchor="middle" x="1599.22" y="-935.45" font-family="Helvetica,sans-Serif" font-weight="bold" font-size="9.00">typescript&#45;eslint</text>
</g>
<g id="clust30" class="cluster">
<title>cluster_node_modules/.pnpm/vitest@1.6.1_@types+node@20.19.0_@vitest+ui@3.2.3_happy&#45;dom@18.0.1</title>
<path fill="#ffffff" stroke="black" stroke-width="2" d="M1440.97,-742C1440.97,-742 1758.47,-742 1758.47,-742 1764.47,-742 1770.47,-748 1770.47,-754 1770.47,-754 1770.47,-844 1770.47,-844 1770.47,-850 1764.47,-856 1758.47,-856 1758.47,-856 1440.97,-856 1440.97,-856 1434.97,-856 1428.97,-850 1428.97,-844 1428.97,-844 1428.97,-754 1428.97,-754 1428.97,-748 1434.97,-742 1440.97,-742"/>
<text text-anchor="middle" x="1599.72" y="-843.45" font-family="Helvetica,sans-Serif" font-weight="bold" font-size="9.00">vitest@1.6.1_@types+node@20.19.0_@vitest+ui@3.2.3_happy&#45;dom@18.0.1</text>
</g>
<g id="clust31" class="cluster">
<title>cluster_node_modules/.pnpm/vitest@1.6.1_@types+node@20.19.0_@vitest+ui@3.2.3_happy&#45;dom@18.0.1/node_modules</title>
<path fill="#ffffff" stroke="black" stroke-width="2" d="M1571.72,-750C1571.72,-750 1626.72,-750 1626.72,-750 1632.72,-750 1638.72,-756 1638.72,-762 1638.72,-762 1638.72,-806 1638.72,-806 1638.72,-812 1632.72,-818 1626.72,-818 1626.72,-818 1571.72,-818 1571.72,-818 1565.72,-818 1559.72,-812 1559.72,-806 1559.72,-806 1559.72,-762 1559.72,-762 1559.72,-756 1565.72,-750 1571.72,-750"/>
<text text-anchor="middle" x="1599.22" y="-805.45" font-family="Helvetica,sans-Serif" font-weight="bold" font-size="9.00">node_modules</text>
</g>
<g id="clust32" class="cluster">
<title>cluster_node_modules/.pnpm/zod@3.25.62</title>
<path fill="#ffffff" stroke="black" stroke-width="2" d="M1551.72,-1246C1551.72,-1246 1645.72,-1246 1645.72,-1246 1651.72,-1246 1657.72,-1252 1657.72,-1258 1657.72,-1258 1657.72,-1440 1657.72,-1440 1657.72,-1446 1651.72,-1452 1645.72,-1452 1645.72,-1452 1551.72,-1452 1551.72,-1452 1545.72,-1452 1539.72,-1446 1539.72,-1440 1539.72,-1440 1539.72,-1258 1539.72,-1258 1539.72,-1252 1545.72,-1246 1551.72,-1246"/>
<text text-anchor="middle" x="1598.72" y="-1439.45" font-family="Helvetica,sans-Serif" font-weight="bold" font-size="9.00">zod@3.25.62</text>
</g>
<g id="clust33" class="cluster">
<title>cluster_node_modules/.pnpm/zod@3.25.62/node_modules</title>
<path fill="#ffffff" stroke="black" stroke-width="2" d="M1559.72,-1254C1559.72,-1254 1637.72,-1254 1637.72,-1254 1643.72,-1254 1649.72,-1260 1649.72,-1266 1649.72,-1266 1649.72,-1402 1649.72,-1402 1649.72,-1408 1643.72,-1414 1637.72,-1414 1637.72,-1414 1559.72,-1414 1559.72,-1414 1553.72,-1414 1547.72,-1408 1547.72,-1402 1547.72,-1402 1547.72,-1266 1547.72,-1266 1547.72,-1260 1553.72,-1254 1559.72,-1254"/>
<text text-anchor="middle" x="1598.72" y="-1401.45" font-family="Helvetica,sans-Serif" font-weight="bold" font-size="9.00">node_modules</text>
</g>
<g id="clust34" class="cluster">
<title>cluster_node_modules/.pnpm/zod@3.25.62/node_modules/zod</title>
<path fill="#ffffff" stroke="black" stroke-width="2" d="M1567.72,-1262C1567.72,-1262 1629.72,-1262 1629.72,-1262 1635.72,-1262 1641.72,-1268 1641.72,-1274 1641.72,-1274 1641.72,-1364 1641.72,-1364 1641.72,-1370 1635.72,-1376 1629.72,-1376 1629.72,-1376 1567.72,-1376 1567.72,-1376 1561.72,-1376 1555.72,-1370 1555.72,-1364 1555.72,-1364 1555.72,-1274 1555.72,-1274 1555.72,-1268 1561.72,-1262 1567.72,-1262"/>
<text text-anchor="middle" x="1598.72" y="-1363.45" font-family="Helvetica,sans-Serif" font-weight="bold" font-size="9.00">zod</text>
</g>
<g id="clust35" class="cluster">
<title>cluster_node_modules/.pnpm/zod@3.25.62/node_modules/zod/dist</title>
<path fill="#ffffff" stroke="black" stroke-width="2" d="M1575.72,-1270C1575.72,-1270 1621.72,-1270 1621.72,-1270 1627.72,-1270 1633.72,-1276 1633.72,-1282 1633.72,-1282 1633.72,-1326 1633.72,-1326 1633.72,-1332 1627.72,-1338 1621.72,-1338 1621.72,-1338 1575.72,-1338 1575.72,-1338 1569.72,-1338 1563.72,-1332 1563.72,-1326 1563.72,-1326 1563.72,-1282 1563.72,-1282 1563.72,-1276 1569.72,-1270 1575.72,-1270"/>
<text text-anchor="middle" x="1598.72" y="-1325.45" font-family="Helvetica,sans-Serif" font-weight="bold" font-size="9.00">dist</text>
</g>
<g id="clust36" class="cluster">
<title>cluster_packages</title>
<path fill="#ffffff" stroke="black" stroke-width="2" d="M380.6,-969C380.6,-969 1301.1,-969 1301.1,-969 1307.1,-969 1313.1,-975 1313.1,-981 1313.1,-981 1313.1,-1365 1313.1,-1365 1313.1,-1371 1307.1,-1377 1301.1,-1377 1301.1,-1377 380.6,-1377 380.6,-1377 374.6,-1377 368.6,-1371 368.6,-1365 368.6,-1365 368.6,-981 368.6,-981 368.6,-975 374.6,-969 380.6,-969"/>
<text text-anchor="middle" x="840.85" y="-1364.45" font-family="Helvetica,sans-Serif" font-weight="bold" font-size="9.00">packages</text>
</g>
<g id="clust37" class="cluster">
<title>cluster_packages/config</title>
<path fill="#ffffff" stroke="black" stroke-width="2" d="M1035.85,-977C1035.85,-977 1081.85,-977 1081.85,-977 1087.85,-977 1093.85,-983 1093.85,-989 1093.85,-989 1093.85,-1033 1093.85,-1033 1093.85,-1039 1087.85,-1045 1081.85,-1045 1081.85,-1045 1035.85,-1045 1035.85,-1045 1029.85,-1045 1023.85,-1039 1023.85,-1033 1023.85,-1033 1023.85,-989 1023.85,-989 1023.85,-983 1029.85,-977 1035.85,-977"/>
<text text-anchor="middle" x="1058.85" y="-1032.45" font-family="Helvetica,sans-Serif" font-weight="bold" font-size="9.00">config</text>
</g>
<g id="clust38" class="cluster">
<title>cluster_packages/core&#45;operations</title>
<path fill="#ffffff" stroke="black" stroke-width="2" d="M792.6,-1029C792.6,-1029 852.85,-1029 852.85,-1029 858.85,-1029 864.85,-1035 864.85,-1041 864.85,-1041 864.85,-1085 864.85,-1085 864.85,-1091 858.85,-1097 852.85,-1097 852.85,-1097 792.6,-1097 792.6,-1097 786.6,-1097 780.6,-1091 780.6,-1085 780.6,-1085 780.6,-1041 780.6,-1041 780.6,-1035 786.6,-1029 792.6,-1029"/>
<text text-anchor="middle" x="822.72" y="-1084.45" font-family="Helvetica,sans-Serif" font-weight="bold" font-size="9.00">core&#45;operations</text>
</g>
<g id="clust39" class="cluster">
<title>cluster_packages/document&#45;operations</title>
<path fill="#ffffff" stroke="black" stroke-width="2" d="M603.8,-1239C603.8,-1239 1092.6,-1239 1092.6,-1239 1098.6,-1239 1104.6,-1245 1104.6,-1251 1104.6,-1251 1104.6,-1339 1104.6,-1339 1104.6,-1345 1098.6,-1351 1092.6,-1351 1092.6,-1351 603.8,-1351 603.8,-1351 597.8,-1351 591.8,-1345 591.8,-1339 591.8,-1339 591.8,-1251 591.8,-1251 591.8,-1245 597.8,-1239 603.8,-1239"/>
<text text-anchor="middle" x="848.2" y="-1338.45" font-family="Helvetica,sans-Serif" font-weight="bold" font-size="9.00">document&#45;operations</text>
</g>
<g id="clust40" class="cluster">
<title>cluster_packages/document&#45;operations/src</title>
<path fill="#ffffff" stroke="black" stroke-width="2" d="M611.8,-1247C611.8,-1247 1084.6,-1247 1084.6,-1247 1090.6,-1247 1096.6,-1253 1096.6,-1259 1096.6,-1259 1096.6,-1301 1096.6,-1301 1096.6,-1307 1090.6,-1313 1084.6,-1313 1084.6,-1313 611.8,-1313 611.8,-1313 605.8,-1313 599.8,-1307 599.8,-1301 599.8,-1301 599.8,-1259 599.8,-1259 599.8,-1253 605.8,-1247 611.8,-1247"/>
<text text-anchor="start" x="841.07" y="-1300.45" font-family="Helvetica,sans-Serif" font-weight="bold" font-size="9.00">src</text>
</g>
<g id="clust41" class="cluster">
<title>cluster_packages/entities</title>
<path fill="#ffffff" stroke="black" stroke-width="2" d="M1247.1,-1113C1247.1,-1113 1293.1,-1113 1293.1,-1113 1299.1,-1113 1305.1,-1119 1305.1,-1125 1305.1,-1125 1305.1,-1169 1305.1,-1169 1305.1,-1175 1299.1,-1181 1293.1,-1181 1293.1,-1181 1247.1,-1181 1247.1,-1181 1241.1,-1181 1235.1,-1175 1235.1,-1169 1235.1,-1169 1235.1,-1125 1235.1,-1125 1235.1,-1119 1241.1,-1113 1247.1,-1113"/>
<text text-anchor="middle" x="1270.1" y="-1168.45" font-family="Helvetica,sans-Serif" font-weight="bold" font-size="9.00">entities</text>
</g>
<g id="clust42" class="cluster">
<title>cluster_packages/filesystem&#45;access</title>
<path fill="#ffffff" stroke="black" stroke-width="2" d="M1023.6,-1139C1023.6,-1139 1095.1,-1139 1095.1,-1139 1101.1,-1139 1107.1,-1145 1107.1,-1151 1107.1,-1151 1107.1,-1195 1107.1,-1195 1107.1,-1201 1101.1,-1207 1095.1,-1207 1095.1,-1207 1023.6,-1207 1023.6,-1207 1017.6,-1207 1011.6,-1201 1011.6,-1195 1011.6,-1195 1011.6,-1151 1011.6,-1151 1011.6,-1145 1017.6,-1139 1023.6,-1139"/>
<text text-anchor="middle" x="1059.35" y="-1194.45" font-family="Helvetica,sans-Serif" font-weight="bold" font-size="9.00">filesystem&#45;access</text>
</g>
<g id="clust43" class="cluster">
<title>cluster_packages/indexer</title>
<path fill="#ffffff" stroke="black" stroke-width="2" d="M799.22,-1143C799.22,-1143 845.22,-1143 845.22,-1143 851.22,-1143 857.22,-1149 857.22,-1155 857.22,-1155 857.22,-1199 857.22,-1199 857.22,-1205 851.22,-1211 845.22,-1211 845.22,-1211 799.22,-1211 799.22,-1211 793.22,-1211 787.22,-1205 787.22,-1199 787.22,-1199 787.22,-1155 787.22,-1155 787.22,-1149 793.22,-1143 799.22,-1143"/>
<text text-anchor="middle" x="822.22" y="-1198.45" font-family="Helvetica,sans-Serif" font-weight="bold" font-size="9.00">indexer</text>
</g>
<g id="clust44" class="cluster">
<title>cluster_packages/query&#45;parser</title>
<path fill="#ffffff" stroke="black" stroke-width="2" d="M1035.22,-1053C1035.22,-1053 1083.47,-1053 1083.47,-1053 1089.47,-1053 1095.47,-1059 1095.47,-1065 1095.47,-1065 1095.47,-1109 1095.47,-1109 1095.47,-1115 1089.47,-1121 1083.47,-1121 1083.47,-1121 1035.22,-1121 1035.22,-1121 1029.22,-1121 1023.22,-1115 1023.22,-1109 1023.22,-1109 1023.22,-1065 1023.22,-1065 1023.22,-1059 1029.22,-1053 1035.22,-1053"/>
<text text-anchor="middle" x="1059.35" y="-1108.45" font-family="Helvetica,sans-Serif" font-weight="bold" font-size="9.00">query&#45;parser</text>
</g>
<g id="clust45" class="cluster">
<title>cluster_packages/scripting</title>
<path fill="#ffffff" stroke="black" stroke-width="2" d="M388.6,-1089C388.6,-1089 434.6,-1089 434.6,-1089 440.6,-1089 446.6,-1095 446.6,-1101 446.6,-1101 446.6,-1145 446.6,-1145 446.6,-1151 440.6,-1157 434.6,-1157 434.6,-1157 388.6,-1157 388.6,-1157 382.6,-1157 376.6,-1151 376.6,-1145 376.6,-1145 376.6,-1101 376.6,-1101 376.6,-1095 382.6,-1089 388.6,-1089"/>
<text text-anchor="middle" x="411.6" y="-1144.45" font-family="Helvetica,sans-Serif" font-weight="bold" font-size="9.00">scripting</text>
</g>
<g id="clust46" class="cluster">
<title>cluster_scripts</title>
<path fill="#ffffff" stroke="black" stroke-width="2" d="M1035.85,-671C1035.85,-671 1081.85,-671 1081.85,-671 1087.85,-671 1093.85,-677 1093.85,-683 1093.85,-683 1093.85,-727 1093.85,-727 1093.85,-733 1087.85,-739 1081.85,-739 1081.85,-739 1035.85,-739 1035.85,-739 1029.85,-739 1023.85,-733 1023.85,-727 1023.85,-727 1023.85,-683 1023.85,-683 1023.85,-677 1029.85,-671 1035.85,-671"/>
<text text-anchor="middle" x="1058.85" y="-726.45" font-family="Helvetica,sans-Serif" font-weight="bold" font-size="9.00">scripts</text>
</g>
<!-- . -->
<g id="node1" class="node">
<title>.</title>
<g id="a_node1"><a xlink:href="https://nodejs.org/api/..html" xlink:title=".">
<polygon fill="#ffeaa7" stroke="grey" points="1297.1,-905.88 1245.07,-905.88 1243.1,-903.9 1243.1,-888.12 1295.13,-888.12 1297.1,-890.1 1297.1,-905.88"/>
<polyline fill="none" stroke="grey" points="1295.13,-903.9 1243.1,-903.9"/>
<polyline fill="none" stroke="grey" points="1295.13,-903.9 1295.13,-888.12"/>
<polyline fill="none" stroke="grey" points="1295.13,-903.9 1297.1,-905.88"/>
<text text-anchor="middle" x="1270.1" y="-893.33" font-family="Helvetica,sans-Serif" font-size="9.00" fill="grey">.</text>
</a>
</g>
</g>
<!-- node_modules/.pnpm/@eslint+js@9.29.0/node_modules/@eslint/js/src -->
<g id="node2" class="node">
<title>node_modules/.pnpm/@eslint+js@9.29.0/node_modules/@eslint/js/src</title>
<g id="a_node2"><a xlink:href="https://www.npmjs.com/package/.pnpm" xlink:title="src">
<polygon fill="#c40b0a" fill-opacity="0.101961" stroke="#2d3436" points="1625.72,-1081.88 1573.7,-1081.88 1571.72,-1079.9 1571.72,-1064.12 1623.75,-1064.12 1625.72,-1066.1 1625.72,-1081.88"/>
<polyline fill="none" stroke="#2d3436" points="1623.75,-1079.9 1571.72,-1079.9"/>
<polyline fill="none" stroke="#2d3436" points="1623.75,-1079.9 1623.75,-1064.12"/>
<polyline fill="none" stroke="#2d3436" points="1623.75,-1079.9 1625.72,-1081.88"/>
<text text-anchor="start" x="1592.72" y="-1069.33" font-family="Helvetica,sans-Serif" font-size="9.00" fill="#c40b0a">src</text>
</a>
</g>
</g>
<!-- .&#45;&gt;node_modules/.pnpm/@eslint+js@9.29.0/node_modules/@eslint/js/src -->
<g id="edge1" class="edge">
<title>.&#45;&gt;node_modules/.pnpm/@eslint+js@9.29.0/node_modules/@eslint/js/src</title>
<path fill="none" stroke="#636e72" d="M1283.85,-905.89C1283.85,-941.45 1283.85,-1071.5 1283.85,-1071.5 1283.85,-1071.5 1561.11,-1071.5 1561.11,-1071.5"/>
<polygon fill="#636e72" stroke="#636e72" points="1570.11,-1071.5 1561.11,-1075.55 1566.83,-1071.5 1561.11,-1071.5 1561.11,-1071.5 1561.11,-1071.5 1566.83,-1071.5 1561.11,-1067.45 1570.11,-1071.5"/>
</g>
<!-- node_modules/.pnpm/typescript&#45;eslint@8.35.0_eslint@9.29.0_typescript@5.8.3/node_modules/typescript&#45;eslint/dist -->
<g id="node3" class="node">
<title>node_modules/.pnpm/typescript&#45;eslint@8.35.0_eslint@9.29.0_typescript@5.8.3/node_modules/typescript&#45;eslint/dist</title>
<g id="a_node3"><a xlink:href="https://www.npmjs.com/package/.pnpm" xlink:title="dist">
<polygon fill="#c40b0a" fill-opacity="0.101961" stroke="#2d3436" points="1625.72,-905.88 1573.7,-905.88 1571.72,-903.9 1571.72,-888.12 1623.75,-888.12 1625.72,-890.1 1625.72,-905.88"/>
<polyline fill="none" stroke="#2d3436" points="1623.75,-903.9 1571.72,-903.9"/>
<polyline fill="none" stroke="#2d3436" points="1623.75,-903.9 1623.75,-888.12"/>
<polyline fill="none" stroke="#2d3436" points="1623.75,-903.9 1625.72,-905.88"/>
<text text-anchor="middle" x="1598.72" y="-893.33" font-family="Helvetica,sans-Serif" font-size="9.00" fill="#c40b0a">dist</text>
</a>
</g>
</g>
<!-- .&#45;&gt;node_modules/.pnpm/typescript&#45;eslint@8.35.0_eslint@9.29.0_typescript@5.8.3/node_modules/typescript&#45;eslint/dist -->
<g id="edge2" class="edge">
<title>.&#45;&gt;node_modules/.pnpm/typescript&#45;eslint@8.35.0_eslint@9.29.0_typescript@5.8.3/node_modules/typescript&#45;eslint/dist</title>
<path fill="none" stroke="#636e72" d="M1297.55,-897C1297.55,-897 1561.36,-897 1561.36,-897"/>
<polygon fill="#636e72" stroke="#636e72" points="1570.36,-897 1561.36,-901.05 1567.08,-897 1561.36,-897 1561.36,-897 1561.36,-897 1567.08,-897 1561.36,-892.95 1570.36,-897"/>
</g>
<!-- apps -->
<!-- apps/cli -->
<!-- node_modules/.pnpm/vitest@1.6.1_@types+node@20.19.0_@vitest+ui@3.2.3_happy&#45;dom@18.0.1/node_modules/vitest -->
<g id="node6" class="node">
<title>node_modules/.pnpm/vitest@1.6.1_@types+node@20.19.0_@vitest+ui@3.2.3_happy&#45;dom@18.0.1/node_modules/vitest</title>
<g id="a_node6"><a xlink:href="https://www.npmjs.com/package/.pnpm" xlink:title="vitest">
<polygon fill="#c40b0a" fill-opacity="0.101961" stroke="#2d3436" points="1625.72,-775.88 1573.7,-775.88 1571.72,-773.9 1571.72,-758.12 1623.75,-758.12 1625.72,-760.1 1625.72,-775.88"/>
<polyline fill="none" stroke="#2d3436" points="1623.75,-773.9 1571.72,-773.9"/>
<polyline fill="none" stroke="#2d3436" points="1623.75,-773.9 1623.75,-758.12"/>
<polyline fill="none" stroke="#2d3436" points="1623.75,-773.9 1625.72,-775.88"/>
<text text-anchor="start" x="1588.22" y="-763.33" font-family="Helvetica,sans-Serif" font-size="9.00" fill="#c40b0a">vitest</text>
</a>
</g>
</g>
<!-- apps/cli&#45;&gt;node_modules/.pnpm/vitest@1.6.1_@types+node@20.19.0_@vitest+ui@3.2.3_happy&#45;dom@18.0.1/node_modules/vitest -->
<g id="edge3" class="edge">
<title>apps/cli&#45;&gt;node_modules/.pnpm/vitest@1.6.1_@types+node@20.19.0_@vitest+ui@3.2.3_happy&#45;dom@18.0.1/node_modules/vitest</title>
<path fill="none" stroke="#636e72" d="M33.85,-819.2C33.85,-809.83 33.85,-767 33.85,-767 33.85,-767 1561.01,-767 1561.01,-767"/>
<polygon fill="#636e72" stroke="#636e72" points="1570.01,-767 1561.01,-771.05 1566.73,-767 1561.01,-767 1561.01,-767 1561.01,-767 1566.73,-767 1561.01,-762.95 1570.01,-767"/>
</g>
<!-- apps/cli/src -->
<!-- apps/cli/src&#45;&gt;. -->
<g id="edge7" class="edge">
<title>apps/cli/src&#45;&gt;.</title>
<path fill="none" stroke="#636e72" stroke-dasharray="5,2" d="M33.85,-841.79C33.85,-838.97 33.85,-834.46 33.85,-834.46 33.85,-834.46 1278.85,-834.46 1278.85,-834.46 1278.85,-834.46 1278.85,-877.55 1278.85,-877.55"/>
<polygon fill="#636e72" stroke="#636e72" points="1278.85,-886.55 1274.8,-877.55 1278.85,-883.27 1278.85,-877.55 1278.85,-877.55 1278.85,-877.55 1278.85,-883.27 1282.9,-877.55 1278.85,-886.55"/>
</g>
<!-- apps/cli/src/commands -->
<g id="node8" class="node">
<title>apps/cli/src/commands</title>
<g id="a_node8"><a xlink:href="apps/cli/src/commands" xlink:title="commands">
<polygon fill="#ffeaa7" stroke="#2d3436" points="240.6,-856.88 181.57,-856.88 179.6,-854.9 179.6,-839.12 238.63,-839.12 240.6,-841.1 240.6,-856.88"/>
<polyline fill="none" stroke="#2d3436" points="238.63,-854.9 179.6,-854.9"/>
<polyline fill="none" stroke="#2d3436" points="238.63,-854.9 238.63,-839.12"/>
<polyline fill="none" stroke="#2d3436" points="238.63,-854.9 240.6,-856.88"/>
<text text-anchor="start" x="187.6" y="-844.33" font-family="Helvetica,sans-Serif" font-size="9.00" fill="#2d3436">commands</text>
</a>
</g>
</g>
<!-- apps/cli/src&#45;&gt;apps/cli/src/commands -->
<g id="edge4" class="edge">
<title>apps/cli/src&#45;&gt;apps/cli/src/commands</title>
<path fill="none" stroke="#636e72" stroke-width="1.5" d="M36.03,-844C36.03,-844 168.44,-844 168.44,-844"/>
<polygon fill="#636e72" stroke="#636e72" stroke-width="1.5" points="177.44,-844 168.44,-848.05 174.77,-844.25 168.44,-844.25 168.44,-844 168.44,-843.75 174.77,-843.75 168.44,-839.95 177.44,-844"/>
</g>
<!-- apps/cli/src/schemas -->
<g id="node9" class="node">
<title>apps/cli/src/schemas</title>
<g id="a_node9"><a xlink:href="apps/cli/src/schemas" xlink:title="schemas">
<polygon fill="#ffeaa7" stroke="#2d3436" points="438.6,-870.88 386.57,-870.88 384.6,-868.9 384.6,-853.12 436.63,-853.12 438.6,-855.1 438.6,-870.88"/>
<polyline fill="none" stroke="#2d3436" points="436.63,-868.9 384.6,-868.9"/>
<polyline fill="none" stroke="#2d3436" points="436.63,-868.9 436.63,-853.12"/>
<polyline fill="none" stroke="#2d3436" points="436.63,-868.9 438.6,-870.88"/>
<text text-anchor="start" x="393.22" y="-858.33" font-family="Helvetica,sans-Serif" font-size="9.00" fill="#2d3436">schemas</text>
</a>
</g>
</g>
<!-- apps/cli/src&#45;&gt;apps/cli/src/schemas -->
<g id="edge5" class="edge">
<title>apps/cli/src&#45;&gt;apps/cli/src/schemas</title>
<path fill="none" stroke="#636e72" stroke-width="1.5" d="M33.85,-846.13C33.85,-851.25 33.85,-863.88 33.85,-863.88 33.85,-863.88 373.3,-863.88 373.3,-863.88"/>
<polygon fill="#636e72" stroke="#636e72" stroke-width="1.5" points="382.3,-863.88 373.3,-867.93 379.63,-864.13 373.3,-864.13 373.3,-863.88 373.3,-863.63 379.63,-863.63 373.3,-859.83 382.3,-863.88"/>
</g>
<!-- packages/config/src -->
<g id="node10" class="node">
<title>packages/config/src</title>
<g id="a_node10"><a xlink:href="packages/config/src" xlink:title="src">
<polygon fill="#ffeaa7" stroke="#2d3436" points="1085.85,-1002.88 1033.82,-1002.88 1031.85,-1000.9 1031.85,-985.12 1083.88,-985.12 1085.85,-987.1 1085.85,-1002.88"/>
<polyline fill="none" stroke="#2d3436" points="1083.88,-1000.9 1031.85,-1000.9"/>
<polyline fill="none" stroke="#2d3436" points="1083.88,-1000.9 1083.88,-985.12"/>
<polyline fill="none" stroke="#2d3436" points="1083.88,-1000.9 1085.85,-1002.88"/>
<text text-anchor="start" x="1052.85" y="-990.33" font-family="Helvetica,sans-Serif" font-size="9.00" fill="#2d3436">src</text>
</a>
</g>
</g>
<!-- apps/cli/src&#45;&gt;packages/config/src -->
<g id="edge6" class="edge">
<title>apps/cli/src&#45;&gt;packages/config/src</title>
<g id="a_edge6"><a xlink:title="apps&#45;can&#45;depend&#45;on&#45;packages">
<path fill="none" stroke="blue" stroke-width="1.5" d="M31.67,-844C26.52,-844 13.85,-844 13.85,-844 13.85,-844 13.85,-994 13.85,-994 13.85,-994 1020.61,-994 1020.61,-994"/>
<polygon fill="blue" stroke="blue" stroke-width="1.5" points="1029.61,-994 1020.61,-998.05 1026.94,-994.25 1020.61,-994.25 1020.61,-994 1020.61,-993.75 1026.94,-993.75 1020.61,-989.95 1029.61,-994"/>
</a>
</g>
<text text-anchor="middle" x="368.82" y="-985.45" font-family="Helvetica,sans-Serif" font-size="9.00" fill="blue">apps&#45;can&#45;depend&#45;on&#45;packages</text>
</g>
<!-- apps/cli/src/commands&#45;&gt;. -->
<g id="edge13" class="edge">
<title>apps/cli/src/commands&#45;&gt;.</title>
<path fill="none" stroke="#636e72" stroke-dasharray="5,2" d="M240.98,-846.12C414.54,-846.12 1260.85,-846.12 1260.85,-846.12 1260.85,-846.12 1260.85,-877.45 1260.85,-877.45"/>
<polygon fill="#636e72" stroke="#636e72" points="1260.85,-886.45 1256.8,-877.45 1260.85,-883.17 1260.85,-877.45 1260.85,-877.45 1260.85,-877.45 1260.85,-883.17 1264.9,-877.45 1260.85,-886.45"/>
</g>
<!-- apps/cli/src/commands&#45;&gt;apps/cli/src/schemas -->
<g id="edge9" class="edge">
<title>apps/cli/src/commands&#45;&gt;apps/cli/src/schemas</title>
<path fill="none" stroke="#636e72" stroke-width="1.5" d="M240.74,-850.79C297.18,-850.79 411.85,-850.79 411.85,-850.79 411.85,-850.79 411.85,-851.01 411.85,-851.01"/>
<polygon fill="#636e72" stroke="#636e72" stroke-width="1.5" points="411.85,-851.13 407.8,-842.12 411.6,-848.45 411.6,-842.13 411.85,-842.13 412.1,-842.13 412.1,-848.45 415.9,-842.13 411.85,-851.13"/>
</g>
<!-- packages/entities/src -->
<g id="node11" class="node">
<title>packages/entities/src</title>
<g id="a_node11"><a xlink:href="packages/entities/src" xlink:title="src">
<polygon fill="#ffeaa7" stroke="#2d3436" points="1297.1,-1138.88 1245.07,-1138.88 1243.1,-1136.9 1243.1,-1121.12 1295.13,-1121.12 1297.1,-1123.1 1297.1,-1138.88"/>
<polyline fill="none" stroke="#2d3436" points="1295.13,-1136.9 1243.1,-1136.9"/>
<polyline fill="none" stroke="#2d3436" points="1295.13,-1136.9 1295.13,-1121.12"/>
<polyline fill="none" stroke="#2d3436" points="1295.13,-1136.9 1297.1,-1138.88"/>
<text text-anchor="start" x="1264.1" y="-1126.33" font-family="Helvetica,sans-Serif" font-size="9.00" fill="#2d3436">src</text>
</a>
</g>
</g>
<!-- apps/cli/src/commands&#45;&gt;packages/entities/src -->
<g id="edge8" class="edge">
<title>apps/cli/src/commands&#45;&gt;packages/entities/src</title>
<g id="a_edge8"><a xlink:title="apps&#45;can&#45;depend&#45;on&#45;packages">
<path fill="none" stroke="blue" stroke-width="1.5" d="M240.77,-843.79C262.88,-843.79 288.85,-843.79 288.85,-843.79 288.85,-843.79 288.85,-1134.84 288.85,-1134.84 288.85,-1134.84 1232,-1134.84 1232,-1134.84"/>
<polygon fill="blue" stroke="blue" stroke-width="1.5" points="1241,-1134.84 1232,-1138.89 1238.33,-1135.09 1232,-1135.09 1232,-1134.84 1232,-1134.59 1238.33,-1134.59 1232,-1130.79 1241,-1134.84"/>
</a>
</g>
<text text-anchor="middle" x="526.37" y="-1126.29" font-family="Helvetica,sans-Serif" font-size="9.00" fill="blue">apps&#45;can&#45;depend&#45;on&#45;packages</text>
</g>
<!-- packages/filesystem&#45;access/src -->
<g id="node12" class="node">
<title>packages/filesystem&#45;access/src</title>
<g id="a_node12"><a xlink:href="packages/filesystem-access/src" xlink:title="src">
<polygon fill="#ffeaa7" stroke="#2d3436" points="1085.85,-1164.88 1033.82,-1164.88 1031.85,-1162.9 1031.85,-1147.12 1083.88,-1147.12 1085.85,-1149.1 1085.85,-1164.88"/>
<polyline fill="none" stroke="#2d3436" points="1083.88,-1162.9 1031.85,-1162.9"/>
<polyline fill="none" stroke="#2d3436" points="1083.88,-1162.9 1083.88,-1147.12"/>
<polyline fill="none" stroke="#2d3436" points="1083.88,-1162.9 1085.85,-1164.88"/>
<text text-anchor="start" x="1052.85" y="-1152.33" font-family="Helvetica,sans-Serif" font-size="9.00" fill="#2d3436">src</text>
</a>
</g>
</g>
<!-- apps/cli/src/commands&#45;&gt;packages/filesystem&#45;access/src -->
<g id="edge10" class="edge">
<title>apps/cli/src/commands&#45;&gt;packages/filesystem&#45;access/src</title>
<g id="a_edge10"><a xlink:title="apps&#45;can&#45;depend&#45;on&#45;packages">
<path fill="none" stroke="blue" stroke-width="1.5" d="M240.67,-848.46C383.46,-848.46 977.85,-848.46 977.85,-848.46 977.85,-848.46 977.85,-1155.05 977.85,-1155.05 977.85,-1155.05 1020.6,-1155.05 1020.6,-1155.05"/>
<polygon fill="blue" stroke="blue" stroke-width="1.5" points="1029.6,-1155.05 1020.6,-1159.1 1026.93,-1155.3 1020.6,-1155.3 1020.6,-1155.05 1020.6,-1154.8 1026.93,-1154.8 1020.6,-1151 1029.6,-1155.05"/>
</a>
</g>
<text text-anchor="middle" x="719.43" y="-839.91" font-family="Helvetica,sans-Serif" font-size="9.00" fill="blue">apps&#45;can&#45;depend&#45;on&#45;packages</text>
</g>
<!-- packages/query&#45;parser/src -->
<g id="node13" class="node">
<title>packages/query&#45;parser/src</title>
<g id="a_node13"><a xlink:href="packages/query-parser/src" xlink:title="src">
<polygon fill="#ffeaa7" stroke="#2d3436" points="1085.85,-1078.88 1033.82,-1078.88 1031.85,-1076.9 1031.85,-1061.12 1083.88,-1061.12 1085.85,-1063.1 1085.85,-1078.88"/>
<polyline fill="none" stroke="#2d3436" points="1083.88,-1076.9 1031.85,-1076.9"/>
<polyline fill="none" stroke="#2d3436" points="1083.88,-1076.9 1083.88,-1061.12"/>
<polyline fill="none" stroke="#2d3436" points="1083.88,-1076.9 1085.85,-1078.88"/>
<text text-anchor="start" x="1052.85" y="-1066.33" font-family="Helvetica,sans-Serif" font-size="9.00" fill="#2d3436">src</text>
</a>
</g>
</g>
<!-- apps/cli/src/commands&#45;&gt;packages/query&#45;parser/src -->
<g id="edge11" class="edge">
<title>apps/cli/src/commands&#45;&gt;packages/query&#45;parser/src</title>
<g id="a_edge11"><a xlink:title="apps&#45;can&#45;depend&#45;on&#45;packages">
<path fill="none" stroke="blue" stroke-width="1.5" d="M209.85,-857.17C209.85,-899.62 209.85,-1074.88 209.85,-1074.88 209.85,-1074.88 1020.74,-1074.88 1020.74,-1074.88"/>
<polygon fill="blue" stroke="blue" stroke-width="1.5" points="1029.74,-1074.88 1020.74,-1078.93 1027.06,-1075.13 1020.74,-1075.13 1020.74,-1074.88 1020.74,-1074.63 1027.06,-1074.63 1020.74,-1070.83 1029.74,-1074.88"/>
</a>
</g>
<text text-anchor="middle" x="441.94" y="-1066.33" font-family="Helvetica,sans-Serif" font-size="9.00" fill="blue">apps&#45;can&#45;depend&#45;on&#45;packages</text>
</g>
<!-- packages/scripting/src -->
<g id="node14" class="node">
<title>packages/scripting/src</title>
<g id="a_node14"><a xlink:href="packages/scripting/src" xlink:title="src">
<polygon fill="#ffeaa7" stroke="#2d3436" points="438.6,-1114.88 386.57,-1114.88 384.6,-1112.9 384.6,-1097.12 436.63,-1097.12 438.6,-1099.1 438.6,-1114.88"/>
<polyline fill="none" stroke="#2d3436" points="436.63,-1112.9 384.6,-1112.9"/>
<polyline fill="none" stroke="#2d3436" points="436.63,-1112.9 436.63,-1097.12"/>
<polyline fill="none" stroke="#2d3436" points="436.63,-1112.9 438.6,-1114.88"/>
<text text-anchor="start" x="405.6" y="-1102.33" font-family="Helvetica,sans-Serif" font-size="9.00" fill="#2d3436">src</text>
</a>
</g>
</g>
<!-- apps/cli/src/commands&#45;&gt;packages/scripting/src -->
<g id="edge12" class="edge">
<title>apps/cli/src/commands&#45;&gt;packages/scripting/src</title>
<g id="a_edge12"><a xlink:title="apps&#45;can&#45;depend&#45;on&#45;packages">
<path fill="none" stroke="blue" stroke-width="1.5" d="M240.78,-841.46C278.29,-841.46 336.85,-841.46 336.85,-841.46 336.85,-841.46 336.85,-1105.88 336.85,-1105.88 336.85,-1105.88 373.36,-1105.88 373.36,-1105.88"/>
<polygon fill="blue" stroke="blue" stroke-width="1.5" points="382.36,-1105.88 373.36,-1109.93 379.69,-1106.13 373.36,-1106.13 373.36,-1105.88 373.36,-1105.63 379.69,-1105.63 373.36,-1101.83 382.36,-1105.88"/>
</a>
</g>
<text text-anchor="middle" x="272.35" y="-935.34" font-family="Helvetica,sans-Serif" font-size="9.00" fill="blue">apps&#45;can&#45;depend&#45;on&#45;packages</text>
</g>
<!-- node_modules/.pnpm/zod@3.25.62/node_modules/zod/dist/types -->
<g id="node15" class="node">
<title>node_modules/.pnpm/zod@3.25.62/node_modules/zod/dist/types</title>
<g id="a_node15"><a xlink:href="https://www.npmjs.com/package/.pnpm" xlink:title="types">
<polygon fill="#c40b0a" fill-opacity="0.101961" stroke="#2d3436" points="1625.72,-1295.88 1573.7,-1295.88 1571.72,-1293.9 1571.72,-1278.12 1623.75,-1278.12 1625.72,-1280.1 1625.72,-1295.88"/>
<polyline fill="none" stroke="#2d3436" points="1623.75,-1293.9 1571.72,-1293.9"/>
<polyline fill="none" stroke="#2d3436" points="1623.75,-1293.9 1623.75,-1278.12"/>
<polyline fill="none" stroke="#2d3436" points="1623.75,-1293.9 1625.72,-1295.88"/>
<text text-anchor="start" x="1587.85" y="-1283.33" font-family="Helvetica,sans-Serif" font-size="9.00" fill="#c40b0a">types</text>
</a>
</g>
</g>
<!-- apps/cli/src/schemas&#45;&gt;node_modules/.pnpm/zod@3.25.62/node_modules/zod/dist/types -->
<g id="edge14" class="edge">
<title>apps/cli/src/schemas&#45;&gt;node_modules/.pnpm/zod@3.25.62/node_modules/zod/dist/types</title>
<path fill="none" stroke="#636e72" d="M438.95,-862C475.26,-862 534.85,-862 534.85,-862 534.85,-862 534.85,-1291.44 534.85,-1291.44 534.85,-1291.44 1561.14,-1291.44 1561.14,-1291.44"/>
<polygon fill="#636e72" stroke="#636e72" points="1570.14,-1291.44 1561.14,-1295.49 1566.86,-1291.44 1561.14,-1291.44 1561.14,-1291.44 1561.14,-1291.44 1566.86,-1291.44 1561.14,-1287.39 1570.14,-1291.44"/>
</g>
<!-- packages/config/src&#45;&gt;. -->
<g id="edge18" class="edge">
<title>packages/config/src&#45;&gt;.</title>
<path fill="none" stroke="#636e72" stroke-dasharray="5,2" d="M1086,-987.39C1142.99,-987.39 1269.85,-987.39 1269.85,-987.39 1269.85,-987.39 1269.85,-916.55 1269.85,-916.55"/>
<polygon fill="#636e72" stroke="#636e72" points="1269.85,-907.55 1273.9,-916.55 1269.85,-910.83 1269.85,-916.55 1269.85,-916.55 1269.85,-916.55 1269.85,-910.83 1265.8,-916.55 1269.85,-907.55"/>
</g>
<!-- packages/config/src&#45;&gt;packages/entities/src -->
<g id="edge17" class="edge">
<title>packages/config/src&#45;&gt;packages/entities/src</title>
<path fill="none" stroke="#636e72" d="M1085.97,-996C1140.19,-996 1256.85,-996 1256.85,-996 1256.85,-996 1256.85,-1110.28 1256.85,-1110.28"/>
<polygon fill="none" stroke="#636e72" points="1253.7,-1110.28 1256.85,-1119.28 1260,-1110.28 1253.7,-1110.28"/>
</g>
<!-- packages/config/src&#45;&gt;node_modules/.pnpm/zod@3.25.62/node_modules/zod/dist/types -->
<g id="edge20" class="edge">
<title>packages/config/src&#45;&gt;node_modules/.pnpm/zod@3.25.62/node_modules/zod/dist/types</title>
<path fill="none" stroke="#636e72" d="M1086.1,-989.66C1182.25,-989.66 1499.85,-989.66 1499.85,-989.66 1499.85,-989.66 1499.85,-1282.56 1499.85,-1282.56 1499.85,-1282.56 1561.23,-1282.56 1561.23,-1282.56"/>
<polygon fill="#636e72" stroke="#636e72" points="1570.23,-1282.56 1561.23,-1286.61 1566.95,-1282.56 1561.23,-1282.56 1561.23,-1282.56 1561.23,-1282.56 1566.95,-1282.56 1561.23,-1278.51 1570.23,-1282.56"/>
</g>
<!-- node_modules/.pnpm/js&#45;yaml@4.1.0/node_modules/js&#45;yaml/dist -->
<g id="node40" class="node">
<title>node_modules/.pnpm/js&#45;yaml@4.1.0/node_modules/js&#45;yaml/dist</title>
<g id="a_node40"><a xlink:href="https://www.npmjs.com/package/.pnpm" xlink:title="dist">
<polygon fill="#c40b0a" fill-opacity="0.101961" stroke="#2d3436" points="1625.72,-1517.88 1573.7,-1517.88 1571.72,-1515.9 1571.72,-1500.12 1623.75,-1500.12 1625.72,-1502.1 1625.72,-1517.88"/>
<polyline fill="none" stroke="#2d3436" points="1623.75,-1515.9 1571.72,-1515.9"/>
<polyline fill="none" stroke="#2d3436" points="1623.75,-1515.9 1623.75,-1500.12"/>
<polyline fill="none" stroke="#2d3436" points="1623.75,-1515.9 1625.72,-1517.88"/>
<text text-anchor="middle" x="1598.72" y="-1505.33" font-family="Helvetica,sans-Serif" font-size="9.00" fill="#c40b0a">dist</text>
</a>
</g>
</g>
<!-- packages/config/src&#45;&gt;node_modules/.pnpm/js&#45;yaml@4.1.0/node_modules/js&#45;yaml/dist -->
<g id="edge19" class="edge">
<title>packages/config/src&#45;&gt;node_modules/.pnpm/js&#45;yaml@4.1.0/node_modules/js&#45;yaml/dist</title>
<path fill="none" stroke="#636e72" d="M1086.27,-991.93C1161.38,-991.93 1364.85,-991.93 1364.85,-991.93 1364.85,-991.93 1364.85,-1509 1364.85,-1509 1364.85,-1509 1561.22,-1509 1561.22,-1509"/>
<polygon fill="#636e72" stroke="#636e72" points="1570.22,-1509 1561.22,-1513.05 1566.94,-1509 1561.22,-1509 1561.22,-1509 1561.22,-1509 1566.94,-1509 1561.22,-1504.95 1570.22,-1509"/>
</g>
<!-- packages/entities/src&#45;&gt;node_modules/.pnpm/zod@3.25.62/node_modules/zod/dist/types -->
<g id="edge37" class="edge">
<title>packages/entities/src&#45;&gt;node_modules/.pnpm/zod@3.25.62/node_modules/zod/dist/types</title>
<path fill="none" stroke="#636e72" d="M1297.39,-1134C1373.73,-1134 1583.85,-1134 1583.85,-1134 1583.85,-1134 1583.85,-1267.67 1583.85,-1267.67"/>
<polygon fill="#636e72" stroke="#636e72" points="1583.85,-1276.67 1579.8,-1267.67 1583.85,-1273.39 1583.85,-1267.67 1583.85,-1267.67 1583.85,-1267.67 1583.85,-1273.39 1587.9,-1267.67 1583.85,-1276.67"/>
</g>
<!-- packages/filesystem&#45;access/src&#45;&gt;. -->
<g id="edge38" class="edge">
<title>packages/filesystem&#45;access/src&#45;&gt;.</title>
<path fill="none" stroke="#636e72" stroke-dasharray="5,2" d="M1086.09,-1153C1125,-1153 1191.85,-1153 1191.85,-1153 1191.85,-1153 1191.85,-902.54 1191.85,-902.54 1191.85,-902.54 1232.51,-902.54 1232.51,-902.54"/>
<polygon fill="#636e72" stroke="#636e72" points="1241.51,-902.54 1232.51,-906.59 1238.23,-902.54 1232.51,-902.54 1232.51,-902.54 1232.51,-902.54 1238.23,-902.54 1232.51,-898.49 1241.51,-902.54"/>
</g>
<!-- fs -->
<g id="node18" class="node">
<title>fs</title>
<g id="a_node18"><a xlink:href="https://nodejs.org/api/fs.html" xlink:title="fs">
<polygon fill="#ffeaa7" stroke="grey" points="1297.1,-712.88 1245.07,-712.88 1243.1,-710.9 1243.1,-695.12 1295.13,-695.12 1297.1,-697.1 1297.1,-712.88"/>
<polyline fill="none" stroke="grey" points="1295.13,-710.9 1243.1,-710.9"/>
<polyline fill="none" stroke="grey" points="1295.13,-710.9 1295.13,-695.12"/>
<polyline fill="none" stroke="grey" points="1295.13,-710.9 1297.1,-712.88"/>
<text text-anchor="middle" x="1270.1" y="-700.33" font-family="Helvetica,sans-Serif" font-size="9.00" fill="grey">fs</text>
</a>
</g>
</g>
<!-- packages/filesystem&#45;access/src&#45;&gt;fs -->
<g id="edge39" class="edge">
<title>packages/filesystem&#45;access/src&#45;&gt;fs</title>
<path fill="none" stroke="#636e72" stroke-dasharray="5,2" d="M1086.27,-1158.16C1109.77,-1158.16 1139.85,-1158.16 1139.85,-1158.16 1139.85,-1158.16 1139.85,-705.77 1139.85,-705.77 1139.85,-705.77 1232.58,-705.77 1232.58,-705.77"/>
<polygon fill="#636e72" stroke="#636e72" points="1241.58,-705.78 1232.58,-709.83 1238.3,-705.78 1232.58,-705.78 1232.58,-705.78 1232.58,-705.78 1238.3,-705.78 1232.58,-701.73 1241.58,-705.78"/>
</g>
<!-- node_modules/.pnpm/gray&#45;matter@4.0.3/node_modules/gray&#45;matter -->
<g id="node36" class="node">
<title>node_modules/.pnpm/gray&#45;matter@4.0.3/node_modules/gray&#45;matter</title>
<g id="a_node36"><a xlink:href="https://www.npmjs.com/package/.pnpm" xlink:title="gray&#45;matter">
<polygon fill="#c40b0a" fill-opacity="0.101961" stroke="#2d3436" points="1629.97,-669.88 1569.45,-669.88 1567.47,-667.9 1567.47,-652.12 1628,-652.12 1629.97,-654.1 1629.97,-669.88"/>
<polyline fill="none" stroke="#2d3436" points="1628,-667.9 1567.47,-667.9"/>
<polyline fill="none" stroke="#2d3436" points="1628,-667.9 1628,-652.12"/>
<polyline fill="none" stroke="#2d3436" points="1628,-667.9 1629.97,-669.88"/>
<text text-anchor="start" x="1575.47" y="-657.33" font-family="Helvetica,sans-Serif" font-size="9.00" fill="#c40b0a">gray&#45;matter</text>
</a>
</g>
</g>
<!-- packages/filesystem&#45;access/src&#45;&gt;node_modules/.pnpm/gray&#45;matter@4.0.3/node_modules/gray&#45;matter -->
<g id="edge40" class="edge">
<title>packages/filesystem&#45;access/src&#45;&gt;node_modules/.pnpm/gray&#45;matter@4.0.3/node_modules/gray&#45;matter</title>
<path fill="none" stroke="#636e72" d="M1086.28,-1161.52C1172.42,-1161.52 1431.85,-1161.52 1431.85,-1161.52 1431.85,-1161.52 1431.85,-663.96 1431.85,-663.96 1431.85,-663.96 1557.12,-663.96 1557.12,-663.96"/>
<polygon fill="#636e72" stroke="#636e72" points="1566.12,-663.96 1557.12,-668.01 1562.84,-663.96 1557.12,-663.96 1557.12,-663.96 1557.12,-663.96 1562.84,-663.96 1557.12,-659.91 1566.12,-663.96"/>
</g>
<!-- packages/query&#45;parser/src&#45;&gt;packages/entities/src -->
<g id="edge46" class="edge">
<title>packages/query&#45;parser/src&#45;&gt;packages/entities/src</title>
<path fill="none" stroke="#636e72" stroke-width="1.5" d="M1072.85,-1079.22C1072.85,-1095.81 1072.85,-1129 1072.85,-1129 1072.85,-1129 1231.85,-1129 1231.85,-1129"/>
<polygon fill="#636e72" stroke="#636e72" stroke-width="1.5" points="1240.85,-1129 1231.85,-1133.05 1238.17,-1129.25 1231.85,-1129.25 1231.85,-1129 1231.85,-1128.75 1238.17,-1128.75 1231.85,-1124.95 1240.85,-1129"/>
</g>
<!-- packages/scripting/src&#45;&gt;. -->
<g id="edge50" class="edge">
<title>packages/scripting/src&#45;&gt;.</title>
<path fill="none" stroke="#636e72" stroke-dasharray="5,2" d="M411.85,-1096.77C411.85,-1056.43 411.85,-897.54 411.85,-897.54 411.85,-897.54 1232.78,-897.54 1232.78,-897.54"/>
<polygon fill="#636e72" stroke="#636e72" points="1241.78,-897.54 1232.78,-901.59 1238.5,-897.54 1232.78,-897.54 1232.78,-897.54 1232.78,-897.54 1238.5,-897.54 1232.78,-893.49 1241.78,-897.54"/>
</g>
<!-- packages/scripting/src&#45;&gt;packages/entities/src -->
<g id="edge47" class="edge">
<title>packages/scripting/src&#45;&gt;packages/entities/src</title>
<path fill="none" stroke="#636e72" d="M431.85,-1115.31C431.85,-1123.28 431.85,-1133.49 431.85,-1133.49 431.85,-1133.49 1232.17,-1133.49 1232.17,-1133.49"/>
<polygon fill="none" stroke="#636e72" points="1232.17,-1136.64 1241.17,-1133.49 1232.17,-1130.34 1232.17,-1136.64"/>
</g>
<!-- packages/scripting/src&#45;&gt;packages/filesystem&#45;access/src -->
<g id="edge52" class="edge">
<title>packages/scripting/src&#45;&gt;packages/filesystem&#45;access/src</title>
<g id="a_edge52"><a xlink:title="package&#45;dependency&#45;only&#45;through&#45;entities">
<path fill="none" stroke="red" d="M438.91,-1110.61C559.45,-1110.61 1037.85,-1110.61 1037.85,-1110.61 1037.85,-1110.61 1037.85,-1136.3 1037.85,-1136.3"/>
<polygon fill="none" stroke="red" points="1034.7,-1136.3 1037.85,-1145.3 1041,-1136.3 1034.7,-1136.3"/>
</a>
</g>
<text text-anchor="middle" x="663.1" y="-1102.06" font-family="Helvetica,sans-Serif" font-size="9.00" fill="red">package&#45;dependency&#45;only&#45;through&#45;entities</text>
</g>
<!-- packages/scripting/src&#45;&gt;packages/query&#45;parser/src -->
<g id="edge54" class="edge">
<title>packages/scripting/src&#45;&gt;packages/query&#45;parser/src</title>
<g id="a_edge54"><a xlink:title="package&#45;dependency&#45;only&#45;through&#45;entities">
<path fill="none" stroke="red" stroke-width="1.5" d="M438.81,-1097.46C560.02,-1097.46 1044.85,-1097.46 1044.85,-1097.46 1044.85,-1097.46 1044.85,-1090.13 1044.85,-1090.13"/>
<polygon fill="red" stroke="red" stroke-width="1.5" points="1044.85,-1081.13 1048.9,-1090.13 1045.1,-1083.8 1045.1,-1090.13 1044.85,-1090.13 1044.6,-1090.13 1044.6,-1083.8 1040.8,-1090.13 1044.85,-1081.13"/>
</a>
</g>
<text text-anchor="middle" x="657.37" y="-1088.91" font-family="Helvetica,sans-Serif" font-size="9.00" fill="red">package&#45;dependency&#45;only&#45;through&#45;entities</text>
</g>
<!-- packages/scripting/src&#45;&gt;fs -->
<g id="edge49" class="edge">
<title>packages/scripting/src&#45;&gt;fs</title>
<path fill="none" stroke="#636e72" stroke-dasharray="5,2" d="M438.7,-1106.34C567.76,-1106.34 1113.85,-1106.34 1113.85,-1106.34 1113.85,-1106.34 1113.85,-702.23 1113.85,-702.23 1113.85,-702.23 1232.66,-702.23 1232.66,-702.23"/>
<polygon fill="#636e72" stroke="#636e72" points="1241.66,-702.23 1232.66,-706.28 1238.38,-702.23 1232.66,-702.23 1232.66,-702.23 1232.66,-702.23 1238.38,-702.23 1232.66,-698.18 1241.66,-702.23"/>
</g>
<!-- node_modules/.pnpm/arquero@8.0.3/node_modules/arquero/src -->
<g id="node28" class="node">
<title>node_modules/.pnpm/arquero@8.0.3/node_modules/arquero/src</title>
<g id="a_node28"><a xlink:href="https://www.npmjs.com/package/.pnpm" xlink:title="src">
<polygon fill="#c40b0a" fill-opacity="0.101961" stroke="#2d3436" points="1625.72,-509.88 1573.7,-509.88 1571.72,-507.9 1571.72,-492.12 1623.75,-492.12 1625.72,-494.1 1625.72,-509.88"/>
<polyline fill="none" stroke="#2d3436" points="1623.75,-507.9 1571.72,-507.9"/>
<polyline fill="none" stroke="#2d3436" points="1623.75,-507.9 1623.75,-492.12"/>
<polyline fill="none" stroke="#2d3436" points="1623.75,-507.9 1625.72,-509.88"/>
<text text-anchor="start" x="1592.72" y="-497.32" font-family="Helvetica,sans-Serif" font-size="9.00" fill="#c40b0a">src</text>
</a>
</g>
</g>
<!-- packages/scripting/src&#45;&gt;node_modules/.pnpm/arquero@8.0.3/node_modules/arquero/src -->
<g id="edge48" class="edge">
<title>packages/scripting/src&#45;&gt;node_modules/.pnpm/arquero@8.0.3/node_modules/arquero/src</title>
<path fill="none" stroke="#636e72" d="M438.77,-1102.07C460.32,-1102.07 486.85,-1102.07 486.85,-1102.07 486.85,-1102.07 486.85,-501 486.85,-501 486.85,-501 1561.66,-501 1561.66,-501"/>
<polygon fill="#636e72" stroke="#636e72" points="1570.74,-504.15 1561.74,-501 1570.74,-497.85 1570.74,-504.15"/>
</g>
<!-- packages/document&#45;operations/src -->
<!-- packages/scripting/src&#45;&gt;packages/document&#45;operations/src -->
<g id="edge51" class="edge">
<title>packages/scripting/src&#45;&gt;packages/document&#45;operations/src</title>
<g id="a_edge51"><a xlink:title="package&#45;dependency&#45;only&#45;through&#45;entities">
<path fill="none" stroke="red" stroke-width="1.5" d="M419.85,-1114.95C419.85,-1148.37 419.85,-1264 419.85,-1264 419.85,-1264 596.64,-1264 596.64,-1264"/>
<polygon fill="red" stroke="red" stroke-width="1.5" points="605.64,-1264 596.64,-1268.05 602.97,-1264.25 596.64,-1264.25 596.64,-1264 596.64,-1263.75 602.97,-1263.75 596.64,-1259.95 605.64,-1264"/>
</a>
</g>
<text text-anchor="middle" x="345.59" y="-1265.2" font-family="Helvetica,sans-Serif" font-size="9.00" fill="red">package&#45;dependency&#45;only&#45;through&#45;entities</text>
</g>
<!-- packages/indexer/src -->
<g id="node63" class="node">
<title>packages/indexer/src</title>
<g id="a_node63"><a xlink:href="packages/indexer/src" xlink:title="src">
<polygon fill="#ffeaa7" stroke="#2d3436" points="849.22,-1168.88 797.2,-1168.88 795.22,-1166.9 795.22,-1151.12 847.25,-1151.12 849.22,-1153.1 849.22,-1168.88"/>
<polyline fill="none" stroke="#2d3436" points="847.25,-1166.9 795.22,-1166.9"/>
<polyline fill="none" stroke="#2d3436" points="847.25,-1166.9 847.25,-1151.12"/>
<polyline fill="none" stroke="#2d3436" points="847.25,-1166.9 849.22,-1168.88"/>
<text text-anchor="start" x="816.22" y="-1156.33" font-family="Helvetica,sans-Serif" font-size="9.00" fill="#2d3436">src</text>
</a>
</g>
</g>
<!-- packages/scripting/src&#45;&gt;packages/indexer/src -->
<g id="edge53" class="edge">
<title>packages/scripting/src&#45;&gt;packages/indexer/src</title>
<g id="a_edge53"><a xlink:title="package&#45;dependency&#45;only&#45;through&#45;entities">
<path fill="none" stroke="red" stroke-width="1.5" d="M425.85,-1115.1C425.85,-1130.06 425.85,-1158.22 425.85,-1158.22 425.85,-1158.22 784.15,-1158.22 784.15,-1158.22"/>
<polygon fill="red" stroke="red" stroke-width="1.5" points="793.15,-1158.23 784.15,-1162.28 790.48,-1158.48 784.15,-1158.48 784.15,-1158.23 784.15,-1157.98 790.48,-1157.98 784.15,-1154.18 793.15,-1158.23"/>
</a>
</g>
<text text-anchor="middle" x="671.56" y="-1149.67" font-family="Helvetica,sans-Serif" font-size="9.00" fill="red">package&#45;dependency&#45;only&#45;through&#45;entities</text>
</g>
<!-- examples -->
<!-- examples&#45;&gt;packages/scripting/src -->
<g id="edge15" class="edge">
<title>examples&#45;&gt;packages/scripting/src</title>
<path fill="none" stroke="#636e72" d="M209.85,-1114.92C209.85,-1113.5 209.85,-1111.88 209.85,-1111.88 209.85,-1111.88 373.88,-1111.88 373.88,-1111.88"/>
<polygon fill="none" stroke="#636e72" points="373.88,-1115.03 382.88,-1111.88 373.88,-1108.73 373.88,-1115.03"/>
</g>
<!-- examples/analysis -->
<g id="node17" class="node">
<title>examples/analysis</title>
<g id="a_node17"><a xlink:href="examples/analysis" xlink:title="analysis">
<polygon fill="#ffeaa7" stroke="#2d3436" points="237.1,-1102.88 185.07,-1102.88 183.1,-1100.9 183.1,-1085.12 235.13,-1085.12 237.1,-1087.1 237.1,-1102.88"/>
<polyline fill="none" stroke="#2d3436" points="235.13,-1100.9 183.1,-1100.9"/>
<polyline fill="none" stroke="#2d3436" points="235.13,-1100.9 235.13,-1085.12"/>
<polyline fill="none" stroke="#2d3436" points="235.13,-1100.9 237.1,-1102.88"/>
<text text-anchor="start" x="193.22" y="-1090.33" font-family="Helvetica,sans-Serif" font-size="9.00" fill="#2d3436">analysis</text>
</a>
</g>
</g>
<!-- examples/analysis&#45;&gt;packages/scripting/src -->
<g id="edge16" class="edge">
<title>examples/analysis&#45;&gt;packages/scripting/src</title>
<path fill="none" stroke="#636e72" d="M224.85,-1103.17C224.85,-1106.23 224.85,-1108.88 224.85,-1108.88 224.85,-1108.88 373.93,-1108.88 373.93,-1108.88"/>
<polygon fill="none" stroke="#636e72" points="373.93,-1112.03 382.93,-1108.88 373.93,-1105.73 373.93,-1112.03"/>
</g>
<!-- node_modules -->
<!-- node_modules/.pnpm -->
<!-- node_modules/.pnpm/@eslint+js@9.29.0 -->
<!-- node_modules/.pnpm/@eslint+js@9.29.0/node_modules -->
<!-- node_modules/.pnpm/@eslint+js@9.29.0/node_modules/@eslint -->
<!-- node_modules/.pnpm/@eslint+js@9.29.0/node_modules/@eslint/js -->
<!-- node_modules/.pnpm/arquero@8.0.3 -->
<!-- node_modules/.pnpm/arquero@8.0.3/node_modules -->
<!-- node_modules/.pnpm/arquero@8.0.3/node_modules/arquero -->
<!-- node_modules/.pnpm/glob@11.0.3 -->
<!-- node_modules/.pnpm/glob@11.0.3/node_modules -->
<!-- node_modules/.pnpm/glob@11.0.3/node_modules/glob -->
<!-- node_modules/.pnpm/glob@11.0.3/node_modules/glob/dist -->
<!-- node_modules/.pnpm/glob@11.0.3/node_modules/glob/dist/esm -->
<g id="node33" class="node">
<title>node_modules/.pnpm/glob@11.0.3/node_modules/glob/dist/esm</title>
<g id="a_node33"><a xlink:href="https://www.npmjs.com/package/.pnpm" xlink:title="esm">
<polygon fill="#c40b0a" fill-opacity="0.101961" stroke="#2d3436" points="1625.72,-303.88 1573.7,-303.88 1571.72,-301.9 1571.72,-286.12 1623.75,-286.12 1625.72,-288.1 1625.72,-303.88"/>
<polyline fill="none" stroke="#2d3436" points="1623.75,-301.9 1571.72,-301.9"/>
<polyline fill="none" stroke="#2d3436" points="1623.75,-301.9 1623.75,-286.12"/>
<polyline fill="none" stroke="#2d3436" points="1623.75,-301.9 1625.72,-303.88"/>
<text text-anchor="start" x="1590.1" y="-291.32" font-family="Helvetica,sans-Serif" font-size="9.00" fill="#c40b0a">esm</text>
</a>
</g>
</g>
<!-- node_modules/.pnpm/gray&#45;matter@4.0.3 -->
<!-- node_modules/.pnpm/gray&#45;matter@4.0.3/node_modules -->
<!-- node_modules/.pnpm/js&#45;yaml@4.1.0 -->
<!-- node_modules/.pnpm/js&#45;yaml@4.1.0/node_modules -->
<!-- node_modules/.pnpm/js&#45;yaml@4.1.0/node_modules/js&#45;yaml -->
<!-- node_modules/.pnpm/minimatch@9.0.5 -->
<!-- node_modules/.pnpm/minimatch@9.0.5/node_modules -->
<!-- node_modules/.pnpm/minimatch@9.0.5/node_modules/minimatch -->
<!-- node_modules/.pnpm/minimatch@9.0.5/node_modules/minimatch/dist -->
<!-- node_modules/.pnpm/minimatch@9.0.5/node_modules/minimatch/dist/esm -->
<g id="node45" class="node">
<title>node_modules/.pnpm/minimatch@9.0.5/node_modules/minimatch/dist/esm</title>
<g id="a_node45"><a xlink:href="https://www.npmjs.com/package/.pnpm" xlink:title="esm">
<polygon fill="#c40b0a" fill-opacity="0.101961" stroke="#2d3436" points="1625.72,-89.88 1573.7,-89.88 1571.72,-87.9 1571.72,-72.12 1623.75,-72.12 1625.72,-74.1 1625.72,-89.88"/>
<polyline fill="none" stroke="#2d3436" points="1623.75,-87.9 1571.72,-87.9"/>
<polyline fill="none" stroke="#2d3436" points="1623.75,-87.9 1623.75,-72.12"/>
<polyline fill="none" stroke="#2d3436" points="1623.75,-87.9 1625.72,-89.88"/>
<text text-anchor="start" x="1590.1" y="-77.33" font-family="Helvetica,sans-Serif" font-size="9.00" fill="#c40b0a">esm</text>
</a>
</g>
</g>
<!-- node_modules/.pnpm/typescript&#45;eslint@8.35.0_eslint@9.29.0_typescript@5.8.3 -->
<!-- node_modules/.pnpm/typescript&#45;eslint@8.35.0_eslint@9.29.0_typescript@5.8.3/node_modules -->
<!-- node_modules/.pnpm/typescript&#45;eslint@8.35.0_eslint@9.29.0_typescript@5.8.3/node_modules/typescript&#45;eslint -->
<!-- node_modules/.pnpm/vitest@1.6.1_@types+node@20.19.0_@vitest+ui@3.2.3_happy&#45;dom@18.0.1 -->
<!-- node_modules/.pnpm/vitest@1.6.1_@types+node@20.19.0_@vitest+ui@3.2.3_happy&#45;dom@18.0.1/node_modules -->
<!-- node_modules/.pnpm/zod@3.25.62 -->
<!-- node_modules/.pnpm/zod@3.25.62/node_modules -->
<!-- node_modules/.pnpm/zod@3.25.62/node_modules/zod -->
<!-- node_modules/.pnpm/zod@3.25.62/node_modules/zod/dist -->
<!-- packages -->
<!-- packages/config -->
<!-- packages/core&#45;operations -->
<!-- packages/core&#45;operations/src -->
<g id="node58" class="node">
<title>packages/core&#45;operations/src</title>
<g id="a_node58"><a xlink:href="packages/core-operations/src" xlink:title="src">
<polygon fill="#ffeaa7" stroke="#2d3436" points="849.22,-1070.88 797.2,-1070.88 795.22,-1068.9 795.22,-1053.12 847.25,-1053.12 849.22,-1055.1 849.22,-1070.88"/>
<polyline fill="none" stroke="#2d3436" points="847.25,-1068.9 795.22,-1068.9"/>
<polyline fill="none" stroke="#2d3436" points="847.25,-1068.9 847.25,-1053.12"/>
<polyline fill="none" stroke="#2d3436" points="847.25,-1068.9 849.22,-1070.88"/>
<text text-anchor="start" x="816.22" y="-1058.33" font-family="Helvetica,sans-Serif" font-size="9.00" fill="#2d3436">src</text>
</a>
</g>
</g>
<!-- packages/core&#45;operations/src&#45;&gt;. -->
<g id="edge25" class="edge">
<title>packages/core&#45;operations/src&#45;&gt;.</title>
<path fill="none" stroke="#636e72" stroke-dasharray="5,2" d="M840.85,-1052.78C840.85,-1018.34 840.85,-899.21 840.85,-899.21 840.85,-899.21 1232.7,-899.21 1232.7,-899.21"/>
<polygon fill="#636e72" stroke="#636e72" points="1241.7,-899.21 1232.7,-903.26 1238.42,-899.21 1232.7,-899.21 1232.7,-899.21 1232.7,-899.21 1238.42,-899.21 1232.7,-895.16 1241.7,-899.21"/>
</g>
<!-- packages/core&#45;operations/src&#45;&gt;packages/entities/src -->
<g id="edge21" class="edge">
<title>packages/core&#45;operations/src&#45;&gt;packages/entities/src</title>
<path fill="none" stroke="#636e72" d="M812.85,-1071.17C812.85,-1090.18 812.85,-1132.15 812.85,-1132.15 812.85,-1132.15 1232.35,-1132.15 1232.35,-1132.15"/>
<polygon fill="none" stroke="#636e72" points="1232.35,-1135.3 1241.35,-1132.15 1232.35,-1129 1232.35,-1135.3"/>
</g>
<!-- packages/core&#45;operations/src&#45;&gt;packages/filesystem&#45;access/src -->
<g id="edge22" class="edge">
<title>packages/core&#45;operations/src&#45;&gt;packages/filesystem&#45;access/src</title>
<g id="a_edge22"><a xlink:title="package&#45;dependency&#45;only&#45;through&#45;entities">
<path fill="none" stroke="red" stroke-width="1.5" d="M849.72,-1064.38C880.42,-1064.38 925.85,-1064.38 925.85,-1064.38 925.85,-1064.38 925.85,-1160.95 925.85,-1160.95 925.85,-1160.95 1020.79,-1160.95 1020.79,-1160.95"/>
<polygon fill="red" stroke="red" stroke-width="1.5" points="1029.79,-1160.95 1020.79,-1165 1027.11,-1161.2 1020.79,-1161.2 1020.79,-1160.95 1020.79,-1160.7 1027.11,-1160.7 1020.79,-1156.9 1029.79,-1160.95"/>
</a>
</g>
<text text-anchor="middle" x="837.72" y="-1113.52" font-family="Helvetica,sans-Serif" font-size="9.00" fill="red">package&#45;dependency&#45;only&#45;through&#45;entities</text>
</g>
<!-- packages/core&#45;operations/src&#45;&gt;packages/query&#45;parser/src -->
<g id="edge23" class="edge">
<title>packages/core&#45;operations/src&#45;&gt;packages/query&#45;parser/src</title>
<g id="a_edge23"><a xlink:title="package&#45;dependency&#45;only&#45;through&#45;entities">
<path fill="none" stroke="red" stroke-width="1.5" d="M849.37,-1067.62C849.37,-1067.62 1020.83,-1067.62 1020.83,-1067.62"/>
<polygon fill="red" stroke="red" stroke-width="1.5" points="1029.83,-1067.63 1020.83,-1071.68 1027.16,-1067.88 1020.83,-1067.88 1020.83,-1067.63 1020.83,-1067.38 1027.16,-1067.38 1020.83,-1063.58 1029.83,-1067.63"/>
</a>
</g>
<text text-anchor="middle" x="846.98" y="-1068.83" font-family="Helvetica,sans-Serif" font-size="9.00" fill="red">package&#45;dependency&#45;only&#45;through&#45;entities</text>
</g>
<!-- packages/core&#45;operations/src&#45;&gt;node_modules/.pnpm/minimatch@9.0.5/node_modules/minimatch/dist/esm -->
<g id="edge24" class="edge">
<title>packages/core&#45;operations/src&#45;&gt;node_modules/.pnpm/minimatch@9.0.5/node_modules/minimatch/dist/esm</title>
<path fill="none" stroke="#636e72" d="M832.85,-1052.63C832.85,-952.54 832.85,-83.96 832.85,-83.96 832.85,-83.96 1561.25,-83.96 1561.25,-83.96"/>
<polygon fill="#636e72" stroke="#636e72" points="1570.25,-83.96 1561.25,-88.01 1566.97,-83.96 1561.25,-83.96 1561.25,-83.96 1561.25,-83.96 1566.97,-83.96 1561.25,-79.91 1570.25,-83.96"/>
</g>
<!-- packages/document&#45;operations -->
<!-- packages/document&#45;operations/src&#45;&gt;packages/entities/src -->
<g id="edge28" class="edge">
<title>packages/document&#45;operations/src&#45;&gt;packages/entities/src</title>
<path fill="none" stroke="#636e72" d="M611.51,-1263.4C613.95,-1263.4 617.85,-1263.4 617.85,-1263.4 617.85,-1263.4 617.85,-1136.18 617.85,-1136.18 617.85,-1136.18 1232.39,-1136.18 1232.39,-1136.18"/>
<polygon fill="none" stroke="#636e72" points="1232.39,-1139.33 1241.39,-1136.18 1232.39,-1133.03 1232.39,-1139.33"/>
</g>
<!-- packages/document&#45;operations/src&#45;&gt;packages/filesystem&#45;access/src -->
<g id="edge29" class="edge">
<title>packages/document&#45;operations/src&#45;&gt;packages/filesystem&#45;access/src</title>
<g id="a_edge29"><a xlink:title="package&#45;dependency&#45;only&#45;through&#45;entities">
<path fill="none" stroke="red" d="M608.85,-1261.9C608.85,-1245.83 608.85,-1143 608.85,-1143 608.85,-1143 1050.85,-1143 1050.85,-1143 1050.85,-1143 1050.85,-1143.38 1050.85,-1143.38"/>
<polygon fill="none" stroke="red" points="1047.7,-1136.32 1050.85,-1145.32 1054,-1136.32 1047.7,-1136.32"/>
</a>
</g>
<text text-anchor="middle" x="682.47" y="-1134.45" font-family="Helvetica,sans-Serif" font-size="9.00" fill="red">package&#45;dependency&#45;only&#45;through&#45;entities</text>
</g>
<!-- packages/document&#45;operations/src/core -->
<g id="node61" class="node">
<title>packages/document&#45;operations/src/core</title>
<g id="a_node61"><a xlink:href="packages/document-operations/src/core" xlink:title="core">
<polygon fill="#ffeaa7" stroke="#2d3436" points="849.22,-1272.88 797.2,-1272.88 795.22,-1270.9 795.22,-1255.12 847.25,-1255.12 849.22,-1257.1 849.22,-1272.88"/>
<polyline fill="none" stroke="#2d3436" points="847.25,-1270.9 795.22,-1270.9"/>
<polyline fill="none" stroke="#2d3436" points="847.25,-1270.9 847.25,-1255.12"/>
<polyline fill="none" stroke="#2d3436" points="847.25,-1270.9 849.22,-1272.88"/>
<text text-anchor="start" x="813.22" y="-1260.33" font-family="Helvetica,sans-Serif" font-size="9.00" fill="#2d3436">core</text>
</a>
</g>
</g>
<!-- packages/document&#45;operations/src&#45;&gt;packages/document&#45;operations/src/core -->
<g id="edge26" class="edge">
<title>packages/document&#45;operations/src&#45;&gt;packages/document&#45;operations/src/core</title>
<g id="a_edge26"><a xlink:title="package&#45;dependency&#45;only&#45;through&#45;entities">
<path fill="none" stroke="red" stroke-width="1.5" d="M611.44,-1264.6C611.44,-1264.6 785.25,-1264.6 785.25,-1264.6"/>
<polygon fill="red" stroke="red" stroke-width="1.5" points="794.38,-1267.75 785.38,-1264.6 794.38,-1261.45 794.38,-1267.75"/>
</a>
</g>
<text text-anchor="middle" x="610.22" y="-1265.8" font-family="Helvetica,sans-Serif" font-size="9.00" fill="red">package&#45;dependency&#45;only&#45;through&#45;entities</text>
</g>
<!-- packages/document&#45;operations/src/operations -->
<g id="node62" class="node">
<title>packages/document&#45;operations/src/operations</title>
<g id="a_node62"><a xlink:href="packages/document-operations/src/operations" xlink:title="operations">
<polygon fill="#ffeaa7" stroke="#2d3436" points="1088.6,-1272.88 1031.07,-1272.88 1029.1,-1270.9 1029.1,-1255.12 1086.63,-1255.12 1088.6,-1257.1 1088.6,-1272.88"/>
<polyline fill="none" stroke="#2d3436" points="1086.63,-1270.9 1029.1,-1270.9"/>
<polyline fill="none" stroke="#2d3436" points="1086.63,-1270.9 1086.63,-1255.12"/>
<polyline fill="none" stroke="#2d3436" points="1086.63,-1270.9 1088.6,-1272.88"/>
<text text-anchor="start" x="1037.1" y="-1260.33" font-family="Helvetica,sans-Serif" font-size="9.00" fill="#2d3436">operations</text>
</a>
</g>
</g>
<!-- packages/document&#45;operations/src&#45;&gt;packages/document&#45;operations/src/operations -->
<g id="edge27" class="edge">
<title>packages/document&#45;operations/src&#45;&gt;packages/document&#45;operations/src/operations</title>
<g id="a_edge27"><a xlink:title="package&#45;dependency&#45;only&#45;through&#45;entities">
<path fill="none" stroke="red" stroke-width="1.5" d="M609.85,-1266.12C609.85,-1271.82 609.85,-1287 609.85,-1287 609.85,-1287 1048.85,-1287 1048.85,-1287 1048.85,-1287 1048.85,-1283.23 1048.85,-1283.23"/>
<polygon fill="red" stroke="red" stroke-width="1.5" points="1052,-1274.1 1048.85,-1283.1 1045.7,-1274.11 1052,-1274.1"/>
</a>
</g>
<text text-anchor="middle" x="732.67" y="-1278.45" font-family="Helvetica,sans-Serif" font-size="9.00" fill="red">package&#45;dependency&#45;only&#45;through&#45;entities</text>
</g>
<!-- packages/document&#45;operations/src&#45;&gt;packages/indexer/src -->
<g id="edge30" class="edge">
<title>packages/document&#45;operations/src&#45;&gt;packages/indexer/src</title>
<g id="a_edge30"><a xlink:title="package&#45;dependency&#45;only&#45;through&#45;entities">
<path fill="none" stroke="red" d="M609.85,-1261.86C609.85,-1247.19 609.85,-1161.78 609.85,-1161.78 609.85,-1161.78 784.38,-1161.78 784.38,-1161.78"/>
<polygon fill="none" stroke="red" points="784.38,-1164.93 793.38,-1161.78 784.38,-1158.63 784.38,-1164.93"/>
</a>
</g>
<text text-anchor="middle" x="558.95" y="-1162.98" font-family="Helvetica,sans-Serif" font-size="9.00" fill="red">package&#45;dependency&#45;only&#45;through&#45;entities</text>
</g>
<!-- packages/document&#45;operations/src/core&#45;&gt;packages/document&#45;operations/src -->
<g id="edge32" class="edge">
<title>packages/document&#45;operations/src/core&#45;&gt;packages/document&#45;operations/src</title>
<g id="a_edge32"><a xlink:title="package&#45;dependency&#45;only&#45;through&#45;entities">
<path fill="none" stroke="red" d="M795.02,-1269.34C737.94,-1269.34 610.85,-1269.34 610.85,-1269.34 610.85,-1269.34 610.85,-1268.97 610.85,-1268.97"/>
<polygon fill="none" stroke="red" points="614,-1276.2 610.85,-1267.2 607.7,-1276.2 614,-1276.2"/>
</a>
</g>
<text text-anchor="middle" x="790.88" y="-1268.1" font-family="Helvetica,sans-Serif" font-size="9.00" fill="red">package&#45;dependency&#45;only&#45;through&#45;entities</text>
</g>
<!-- packages/document&#45;operations/src/core&#45;&gt;packages/document&#45;operations/src/operations -->
<g id="edge31" class="edge">
<title>packages/document&#45;operations/src/core&#45;&gt;packages/document&#45;operations/src/operations</title>
<g id="a_edge31"><a xlink:title="package&#45;dependency&#45;only&#45;through&#45;entities">
<path fill="none" stroke="red" stroke-width="1.5" d="M849.37,-1264C849.37,-1264 1017.85,-1264 1017.85,-1264"/>
<polygon fill="red" stroke="red" stroke-width="1.5" points="1026.85,-1264 1017.85,-1268.05 1024.18,-1264.25 1017.85,-1264.25 1017.85,-1264 1017.85,-1263.75 1024.18,-1263.75 1017.85,-1259.95 1026.85,-1264"/>
</a>
</g>
<text text-anchor="middle" x="1021.74" y="-1265.2" font-family="Helvetica,sans-Serif" font-size="9.00" fill="red">package&#45;dependency&#45;only&#45;through&#45;entities</text>
</g>
<!-- packages/document&#45;operations/src/operations&#45;&gt;. -->
<g id="edge35" class="edge">
<title>packages/document&#45;operations/src/operations&#45;&gt;.</title>
<path fill="none" stroke="#636e72" stroke-dasharray="5,2" d="M1088.94,-1264C1134.78,-1264 1216.85,-1264 1216.85,-1264 1216.85,-1264 1216.85,-904.21 1216.85,-904.21 1216.85,-904.21 1232.63,-904.21 1232.63,-904.21"/>
<polygon fill="#636e72" stroke="#636e72" points="1241.63,-904.21 1232.63,-908.26 1238.35,-904.21 1232.63,-904.21 1232.63,-904.21 1232.63,-904.21 1238.35,-904.21 1232.63,-900.16 1241.63,-904.21"/>
</g>
<!-- packages/document&#45;operations/src/operations&#45;&gt;packages/entities/src -->
<g id="edge34" class="edge">
<title>packages/document&#45;operations/src/operations&#45;&gt;packages/entities/src</title>
<path fill="none" stroke="#636e72" d="M1088.77,-1268.44C1143.88,-1268.44 1255.85,-1268.44 1255.85,-1268.44 1255.85,-1268.44 1255.85,-1149.6 1255.85,-1149.6"/>
<polygon fill="none" stroke="#636e72" points="1259,-1149.6 1255.85,-1140.6 1252.7,-1149.6 1259,-1149.6"/>
</g>
<!-- packages/document&#45;operations/src/operations&#45;&gt;fs -->
<g id="edge36" class="edge">
<title>packages/document&#45;operations/src/operations&#45;&gt;fs</title>
<path fill="none" stroke="#636e72" stroke-dasharray="5,2" d="M1088.94,-1259.56C1120.59,-1259.56 1165.85,-1259.56 1165.85,-1259.56 1165.85,-1259.56 1165.85,-709.33 1165.85,-709.33 1165.85,-709.33 1232.49,-709.33 1232.49,-709.33"/>
<polygon fill="#636e72" stroke="#636e72" points="1241.49,-709.33 1232.49,-713.38 1238.21,-709.33 1232.49,-709.33 1232.49,-709.33 1232.49,-709.33 1238.21,-709.33 1232.49,-705.28 1241.49,-709.33"/>
</g>
<!-- packages/document&#45;operations/src/operations&#45;&gt;packages/document&#45;operations/src -->
<g id="edge33" class="edge">
<title>packages/document&#45;operations/src/operations&#45;&gt;packages/document&#45;operations/src</title>
<g id="a_edge33"><a xlink:title="package&#45;dependency&#45;only&#45;through&#45;entities">
<path fill="none" stroke="red" d="M1068.85,-1273.21C1068.85,-1284.47 1068.85,-1302.04 1068.85,-1302.04 1068.85,-1302.04 608.85,-1302.04 608.85,-1302.04 608.85,-1302.04 608.85,-1276.56 608.85,-1276.56"/>
<polygon fill="none" stroke="red" points="612,-1276.56 608.85,-1267.56 605.7,-1276.56 612,-1276.56"/>
</a>
</g>
<text text-anchor="middle" x="752.4" y="-1293.49" font-family="Helvetica,sans-Serif" font-size="9.00" fill="red">package&#45;dependency&#45;only&#45;through&#45;entities</text>
</g>
<!-- packages/indexer/src&#45;&gt;. -->
<g id="edge43" class="edge">
<title>packages/indexer/src&#45;&gt;.</title>
<path fill="none" stroke="#636e72" stroke-dasharray="5,2" d="M849.72,-1158.98C872.4,-1158.98 900.85,-1158.98 900.85,-1158.98 900.85,-1158.98 900.85,-900.88 900.85,-900.88 900.85,-900.88 1232.43,-900.88 1232.43,-900.88"/>
<polygon fill="#636e72" stroke="#636e72" points="1241.43,-900.88 1232.43,-904.93 1238.15,-900.88 1232.43,-900.88 1232.43,-900.88 1232.43,-900.88 1238.15,-900.88 1232.43,-896.83 1241.43,-900.88"/>
</g>
<!-- packages/indexer/src&#45;&gt;packages/entities/src -->
<g id="edge41" class="edge">
<title>packages/indexer/src&#45;&gt;packages/entities/src</title>
<path fill="none" stroke="#636e72" d="M830.85,-1150.86C830.85,-1144.64 830.85,-1137.53 830.85,-1137.53 830.85,-1137.53 1232.11,-1137.53 1232.11,-1137.53"/>
<polygon fill="none" stroke="#636e72" points="1232.11,-1140.68 1241.11,-1137.53 1232.11,-1134.38 1232.11,-1140.68"/>
</g>
<!-- packages/indexer/src&#45;&gt;packages/filesystem&#45;access/src -->
<g id="edge42" class="edge">
<title>packages/indexer/src&#45;&gt;packages/filesystem&#45;access/src</title>
<g id="a_edge42"><a xlink:title="package&#45;dependency&#45;only&#45;through&#45;entities">
<path fill="none" stroke="red" d="M849.37,-1162.91C849.37,-1162.91 1021.15,-1162.91 1021.15,-1162.91"/>
<polygon fill="none" stroke="red" points="1021.15,-1166.06 1030.15,-1162.91 1021.15,-1159.76 1021.15,-1166.06"/>
</a>
</g>
<text text-anchor="middle" x="1023.38" y="-1164.11" font-family="Helvetica,sans-Serif" font-size="9.00" fill="red">package&#45;dependency&#45;only&#45;through&#45;entities</text>
</g>
<!-- packages/indexer/src&#45;&gt;node_modules/.pnpm/gray&#45;matter@4.0.3/node_modules/gray&#45;matter -->
<g id="edge44" class="edge">
<title>packages/indexer/src&#45;&gt;node_modules/.pnpm/gray&#45;matter@4.0.3/node_modules/gray&#45;matter</title>
<path fill="none" stroke="#636e72" d="M849.46,-1153.09C862.3,-1153.09 874.85,-1153.09 874.85,-1153.09 874.85,-1153.09 874.85,-658.04 874.85,-658.04 874.85,-658.04 1556.94,-658.04 1556.94,-658.04"/>
<polygon fill="#636e72" stroke="#636e72" points="1565.94,-658.04 1556.94,-662.09 1562.66,-658.04 1556.94,-658.04 1556.94,-658.04 1556.94,-658.04 1562.66,-658.04 1556.94,-653.99 1565.94,-658.04"/>
</g>
<!-- packages/indexer/src&#45;&gt;node_modules/.pnpm/minimatch@9.0.5/node_modules/minimatch/dist/esm -->
<g id="edge45" class="edge">
<title>packages/indexer/src&#45;&gt;node_modules/.pnpm/minimatch@9.0.5/node_modules/minimatch/dist/esm</title>
<path fill="none" stroke="#636e72" d="M794.83,-1165.33C763.31,-1165.33 715.85,-1165.33 715.85,-1165.33 715.85,-1165.33 715.85,-78.04 715.85,-78.04 715.85,-78.04 1561.12,-78.04 1561.12,-78.04"/>
<polygon fill="#636e72" stroke="#636e72" points="1570.12,-78.04 1561.12,-82.09 1566.83,-78.04 1561.12,-78.04 1561.12,-78.04 1561.12,-78.04 1566.83,-78.04 1561.12,-73.99 1570.12,-78.04"/>
</g>
<!-- packages/entities -->
<!-- packages/filesystem&#45;access -->
<!-- packages/indexer -->
<!-- packages/query&#45;parser -->
<!-- packages/scripting -->
<!-- scripts -->
<!-- scripts&#45;&gt;. -->
<g id="edge55" class="edge">
<title>scripts&#45;&gt;.</title>
<path fill="none" stroke="#636e72" stroke-dasharray="5,2" d="M1057.02,-681C1047.48,-681 1003.85,-681 1003.85,-681 1003.85,-681 1003.85,-894.21 1003.85,-894.21 1003.85,-894.21 1232.39,-894.21 1232.39,-894.21"/>
<polygon fill="#636e72" stroke="#636e72" points="1241.39,-894.21 1232.39,-898.26 1238.11,-894.21 1232.39,-894.21 1232.39,-894.21 1232.39,-894.21 1238.11,-894.21 1232.39,-890.16 1241.39,-894.21"/>
</g>
<!-- scripts&#45;&gt;fs -->
<g id="edge57" class="edge">
<title>scripts&#45;&gt;fs</title>
<path fill="none" stroke="#636e72" stroke-dasharray="5,2" d="M1060.67,-681C1081.3,-681 1269.85,-681 1269.85,-681 1269.85,-681 1269.85,-684.43 1269.85,-684.43"/>
<polygon fill="#636e72" stroke="#636e72" points="1269.85,-693.43 1265.8,-684.43 1269.85,-690.15 1269.85,-684.43 1269.85,-684.43 1269.85,-684.43 1269.85,-690.15 1273.9,-684.43 1269.85,-693.43"/>
</g>
<!-- scripts&#45;&gt;node_modules/.pnpm/glob@11.0.3/node_modules/glob/dist/esm -->
<g id="edge56" class="edge">
<title>scripts&#45;&gt;node_modules/.pnpm/glob@11.0.3/node_modules/glob/dist/esm</title>
<path fill="none" stroke="#636e72" d="M1058.85,-678.94C1058.85,-648.79 1058.85,-297.96 1058.85,-297.96 1058.85,-297.96 1561.36,-297.96 1561.36,-297.96"/>
<polygon fill="#636e72" stroke="#636e72" points="1570.36,-297.96 1561.36,-302.01 1567.08,-297.96 1561.36,-297.96 1561.36,-297.96 1561.36,-297.96 1567.08,-297.96 1561.36,-293.91 1570.36,-297.96"/>
</g>
<!-- scripts/analysis -->
<g id="node70" class="node">
<title>scripts/analysis</title>
<g id="a_node70"><a xlink:href="scripts/analysis" xlink:title="analysis">
<polygon fill="#ffeaa7" stroke="#2d3436" points="1085.85,-712.88 1033.82,-712.88 1031.85,-710.9 1031.85,-695.12 1083.88,-695.12 1085.85,-697.1 1085.85,-712.88"/>
<polyline fill="none" stroke="#2d3436" points="1083.88,-710.9 1031.85,-710.9"/>
<polyline fill="none" stroke="#2d3436" points="1083.88,-710.9 1083.88,-695.12"/>
<polyline fill="none" stroke="#2d3436" points="1083.88,-710.9 1085.85,-712.88"/>
<text text-anchor="start" x="1041.97" y="-700.33" font-family="Helvetica,sans-Serif" font-size="9.00" fill="#2d3436">analysis</text>
</a>
</g>
</g>
<!-- scripts/analysis&#45;&gt;. -->
<g id="edge58" class="edge">
<title>scripts/analysis&#45;&gt;.</title>
<path fill="none" stroke="#636e72" stroke-dasharray="5,2" d="M1058.85,-713.35C1058.85,-751.39 1058.85,-892.54 1058.85,-892.54 1058.85,-892.54 1232.7,-892.54 1232.7,-892.54"/>
<polygon fill="#636e72" stroke="#636e72" points="1241.7,-892.54 1232.7,-896.59 1238.42,-892.54 1232.7,-892.54 1232.7,-892.54 1232.7,-892.54 1238.42,-892.54 1232.7,-888.49 1241.7,-892.54"/>
</g>
<!-- scripts/analysis&#45;&gt;fs -->
<g id="edge59" class="edge">
<title>scripts/analysis&#45;&gt;fs</title>
<path fill="none" stroke="#636e72" stroke-dasharray="5,2" d="M1086.03,-698.67C1086.03,-698.67 1232.47,-698.67 1232.47,-698.67"/>
<polygon fill="#636e72" stroke="#636e72" points="1241.47,-698.68 1232.47,-702.73 1238.18,-698.68 1232.47,-698.68 1232.47,-698.68 1232.47,-698.68 1238.18,-698.68 1232.47,-694.63 1241.47,-698.68"/>
</g>
<!-- tools -->
<g id="node71" class="node">
<title>tools</title>
<g id="a_node71"><a xlink:href="tools" xlink:title="tools">
<polygon fill="#ffeaa7" stroke="#2d3436" points="636.6,-890.88 584.57,-890.88 582.6,-888.9 582.6,-873.12 634.63,-873.12 636.6,-875.1 636.6,-890.88"/>
<polyline fill="none" stroke="#2d3436" points="634.63,-888.9 582.6,-888.9"/>
<polyline fill="none" stroke="#2d3436" points="634.63,-888.9 634.63,-873.12"/>
<polyline fill="none" stroke="#2d3436" points="634.63,-888.9 636.6,-890.88"/>
<text text-anchor="middle" x="609.6" y="-878.33" font-family="Helvetica,sans-Serif" font-size="9.00" fill="#2d3436">tools</text>
</a>
</g>
</g>
<!-- tools&#45;&gt;. -->
<g id="edge62" class="edge">
<title>tools&#45;&gt;.</title>
<path fill="none" stroke="#636e72" stroke-dasharray="5,2" d="M623.85,-891.18C623.85,-893.76 623.85,-895.88 623.85,-895.88 623.85,-895.88 1232.53,-895.88 1232.53,-895.88"/>
<polygon fill="#636e72" stroke="#636e72" points="1241.53,-895.88 1232.53,-899.93 1238.24,-895.88 1232.53,-895.88 1232.53,-895.88 1232.53,-895.88 1238.24,-895.88 1232.53,-891.83 1241.53,-895.88"/>
</g>
<!-- tools&#45;&gt;packages/filesystem&#45;access/src -->
<g id="edge60" class="edge">
<title>tools&#45;&gt;packages/filesystem&#45;access/src</title>
<path fill="none" stroke="#636e72" stroke-width="1.5" d="M637.03,-880.62C718.24,-880.62 951.85,-880.62 951.85,-880.62 951.85,-880.62 951.85,-1157.02 951.85,-1157.02 951.85,-1157.02 1020.74,-1157.02 1020.74,-1157.02"/>
<polygon fill="#636e72" stroke="#636e72" stroke-width="1.5" points="1029.74,-1157.02 1020.74,-1161.07 1027.07,-1157.27 1020.74,-1157.27 1020.74,-1157.02 1020.74,-1156.77 1027.07,-1156.77 1020.74,-1152.97 1029.74,-1157.02"/>
</g>
<!-- tools&#45;&gt;node_modules/.pnpm/glob@11.0.3/node_modules/glob/dist/esm -->
<g id="edge63" class="edge">
<title>tools&#45;&gt;node_modules/.pnpm/glob@11.0.3/node_modules/glob/dist/esm</title>
<path fill="none" stroke="#636e72" d="M609.85,-872.73C609.85,-797.68 609.85,-292.04 609.85,-292.04 609.85,-292.04 1561.03,-292.04 1561.03,-292.04"/>
<polygon fill="#636e72" stroke="#636e72" points="1570.03,-292.04 1561.03,-296.09 1566.74,-292.04 1561.03,-292.04 1561.03,-292.04 1561.03,-292.04 1566.74,-292.04 1561.03,-287.99 1570.03,-292.04"/>
</g>
<!-- tools&#45;&gt;packages/indexer/src -->
<g id="edge61" class="edge">
<title>tools&#45;&gt;packages/indexer/src</title>
<path fill="none" stroke="#636e72" stroke-width="1.5" d="M629.85,-891.07C629.85,-938.39 629.85,-1154.67 629.85,-1154.67 629.85,-1154.67 784.24,-1154.67 784.24,-1154.67"/>
<polygon fill="#636e72" stroke="#636e72" stroke-width="1.5" points="793.24,-1154.68 784.24,-1158.73 790.57,-1154.93 784.24,-1154.93 784.24,-1154.68 784.24,-1154.43 790.57,-1154.43 784.24,-1150.63 793.24,-1154.68"/>
</g>
</g>
</svg>
