<?xml version="1.0" encoding="UTF-8" standalone="no"?>
<!DOCTYPE svg PUBLIC "-//W3C//DTD SVG 1.1//EN"
 "http://www.w3.org/Graphics/SVG/1.1/DTD/svg11.dtd">
<!-- Generated by graphviz version 12.2.1 (20241206.2353)
 -->
<!-- Title: dependency&#45;cruiser output Pages: 1 -->
<svg width="1206pt" height="371pt"
 viewBox="0.00 0.00 1205.75 371.25" xmlns="http://www.w3.org/2000/svg" xmlns:xlink="http://www.w3.org/1999/xlink">
<g id="graph0" class="graph" transform="scale(1 1) rotate(0) translate(4 367.25)">
<title>dependency&#45;cruiser output</title>
<g id="clust1" class="cluster">
<title>cluster_fs</title>
<path fill="#ffffff" stroke="black" stroke-width="2" d="M957.75,-56C957.75,-56 1003.75,-56 1003.75,-56 1009.75,-56 1015.75,-62 1015.75,-68 1015.75,-68 1015.75,-95.5 1015.75,-95.5 1015.75,-101.5 1009.75,-107.5 1003.75,-107.5 1003.75,-107.5 957.75,-107.5 957.75,-107.5 951.75,-107.5 945.75,-101.5 945.75,-95.5 945.75,-95.5 945.75,-68 945.75,-68 945.75,-62 951.75,-56 957.75,-56"/>
<text text-anchor="middle" x="980.75" y="-94.95" font-family="Helvetica,sans-Serif" font-weight="bold" font-size="9.00">fs</text>
</g>
<g id="clust2" class="cluster">
<title>cluster_node_modules</title>
<path fill="#ffffff" stroke="black" stroke-width="2" d="M24.75,-8C24.75,-8 579.75,-8 579.75,-8 585.75,-8 591.75,-14 591.75,-20 591.75,-20 591.75,-250 591.75,-250 591.75,-256 585.75,-262 579.75,-262 579.75,-262 24.75,-262 24.75,-262 18.75,-262 12.75,-256 12.75,-250 12.75,-250 12.75,-20 12.75,-20 12.75,-14 18.75,-8 24.75,-8"/>
<text text-anchor="middle" x="302.25" y="-249.45" font-family="Helvetica,sans-Serif" font-weight="bold" font-size="9.00">node_modules</text>
</g>
<g id="clust3" class="cluster">
<title>cluster_node_modules/.pnpm</title>
<path fill="#ffffff" stroke="black" stroke-width="2" d="M32.75,-16C32.75,-16 571.75,-16 571.75,-16 577.75,-16 583.75,-22 583.75,-28 583.75,-28 583.75,-224.25 583.75,-224.25 583.75,-230.25 577.75,-236.25 571.75,-236.25 571.75,-236.25 32.75,-236.25 32.75,-236.25 26.75,-236.25 20.75,-230.25 20.75,-224.25 20.75,-224.25 20.75,-28 20.75,-28 20.75,-22 26.75,-16 32.75,-16"/>
<text text-anchor="middle" x="302.25" y="-223.7" font-family="Helvetica,sans-Serif" font-weight="bold" font-size="9.00">.pnpm</text>
</g>
<g id="clust4" class="cluster">
<title>cluster_node_modules/.pnpm/@eslint+js@9.29.0</title>
<path fill="#ffffff" stroke="black" stroke-width="2" d="M40.75,-24C40.75,-24 150.75,-24 150.75,-24 156.75,-24 162.75,-30 162.75,-36 162.75,-36 162.75,-198.5 162.75,-198.5 162.75,-204.5 156.75,-210.5 150.75,-210.5 150.75,-210.5 40.75,-210.5 40.75,-210.5 34.75,-210.5 28.75,-204.5 28.75,-198.5 28.75,-198.5 28.75,-36 28.75,-36 28.75,-30 34.75,-24 40.75,-24"/>
<text text-anchor="middle" x="95.75" y="-197.95" font-family="Helvetica,sans-Serif" font-weight="bold" font-size="9.00">@eslint+js@9.29.0</text>
</g>
<g id="clust5" class="cluster">
<title>cluster_node_modules/.pnpm/@eslint+js@9.29.0/node_modules</title>
<path fill="#ffffff" stroke="black" stroke-width="2" d="M48.75,-32C48.75,-32 142.75,-32 142.75,-32 148.75,-32 154.75,-38 154.75,-44 154.75,-44 154.75,-172.75 154.75,-172.75 154.75,-178.75 148.75,-184.75 142.75,-184.75 142.75,-184.75 48.75,-184.75 48.75,-184.75 42.75,-184.75 36.75,-178.75 36.75,-172.75 36.75,-172.75 36.75,-44 36.75,-44 36.75,-38 42.75,-32 48.75,-32"/>
<text text-anchor="middle" x="95.75" y="-172.2" font-family="Helvetica,sans-Serif" font-weight="bold" font-size="9.00">node_modules</text>
</g>
<g id="clust6" class="cluster">
<title>cluster_node_modules/.pnpm/@eslint+js@9.29.0/node_modules/@eslint</title>
<path fill="#ffffff" stroke="black" stroke-width="2" d="M56.75,-40C56.75,-40 134.75,-40 134.75,-40 140.75,-40 146.75,-46 146.75,-52 146.75,-52 146.75,-147 146.75,-147 146.75,-153 140.75,-159 134.75,-159 134.75,-159 56.75,-159 56.75,-159 50.75,-159 44.75,-153 44.75,-147 44.75,-147 44.75,-52 44.75,-52 44.75,-46 50.75,-40 56.75,-40"/>
<text text-anchor="middle" x="95.75" y="-146.45" font-family="Helvetica,sans-Serif" font-weight="bold" font-size="9.00">@eslint</text>
</g>
<g id="clust7" class="cluster">
<title>cluster_node_modules/.pnpm/@eslint+js@9.29.0/node_modules/@eslint/js</title>
<path fill="#ffffff" stroke="black" stroke-width="2" d="M64.75,-48C64.75,-48 126.75,-48 126.75,-48 132.75,-48 138.75,-54 138.75,-60 138.75,-60 138.75,-121.25 138.75,-121.25 138.75,-127.25 132.75,-133.25 126.75,-133.25 126.75,-133.25 64.75,-133.25 64.75,-133.25 58.75,-133.25 52.75,-127.25 52.75,-121.25 52.75,-121.25 52.75,-60 52.75,-60 52.75,-54 58.75,-48 64.75,-48"/>
<text text-anchor="middle" x="95.75" y="-120.7" font-family="Helvetica,sans-Serif" font-weight="bold" font-size="9.00">js</text>
</g>
<g id="clust8" class="cluster">
<title>cluster_node_modules/.pnpm/@eslint+js@9.29.0/node_modules/@eslint/js/src</title>
<path fill="#ffffff" stroke="black" stroke-width="2" d="M72.75,-56C72.75,-56 118.75,-56 118.75,-56 124.75,-56 130.75,-62 130.75,-68 130.75,-68 130.75,-95.5 130.75,-95.5 130.75,-101.5 124.75,-107.5 118.75,-107.5 118.75,-107.5 72.75,-107.5 72.75,-107.5 66.75,-107.5 60.75,-101.5 60.75,-95.5 60.75,-95.5 60.75,-68 60.75,-68 60.75,-62 66.75,-56 72.75,-56"/>
<text text-anchor="middle" x="95.75" y="-94.95" font-family="Helvetica,sans-Serif" font-weight="bold" font-size="9.00">src</text>
</g>
<g id="clust9" class="cluster">
<title>cluster_node_modules/.pnpm/glob@11.0.3</title>
<path fill="#ffffff" stroke="black" stroke-width="2" d="M451.75,-24C451.75,-24 563.75,-24 563.75,-24 569.75,-24 575.75,-30 575.75,-36 575.75,-36 575.75,-198.5 575.75,-198.5 575.75,-204.5 569.75,-210.5 563.75,-210.5 563.75,-210.5 451.75,-210.5 451.75,-210.5 445.75,-210.5 439.75,-204.5 439.75,-198.5 439.75,-198.5 439.75,-36 439.75,-36 439.75,-30 445.75,-24 451.75,-24"/>
<text text-anchor="middle" x="507.75" y="-197.95" font-family="Helvetica,sans-Serif" font-weight="bold" font-size="9.00">glob@11.0.3</text>
</g>
<g id="clust10" class="cluster">
<title>cluster_node_modules/.pnpm/glob@11.0.3/node_modules</title>
<path fill="#ffffff" stroke="black" stroke-width="2" d="M459.75,-32C459.75,-32 555.75,-32 555.75,-32 561.75,-32 567.75,-38 567.75,-44 567.75,-44 567.75,-172.75 567.75,-172.75 567.75,-178.75 561.75,-184.75 555.75,-184.75 555.75,-184.75 459.75,-184.75 459.75,-184.75 453.75,-184.75 447.75,-178.75 447.75,-172.75 447.75,-172.75 447.75,-44 447.75,-44 447.75,-38 453.75,-32 459.75,-32"/>
<text text-anchor="middle" x="507.75" y="-172.2" font-family="Helvetica,sans-Serif" font-weight="bold" font-size="9.00">node_modules</text>
</g>
<g id="clust11" class="cluster">
<title>cluster_node_modules/.pnpm/glob@11.0.3/node_modules/glob</title>
<path fill="#ffffff" stroke="black" stroke-width="2" d="M467.75,-40C467.75,-40 547.75,-40 547.75,-40 553.75,-40 559.75,-46 559.75,-52 559.75,-52 559.75,-147 559.75,-147 559.75,-153 553.75,-159 547.75,-159 547.75,-159 467.75,-159 467.75,-159 461.75,-159 455.75,-153 455.75,-147 455.75,-147 455.75,-52 455.75,-52 455.75,-46 461.75,-40 467.75,-40"/>
<text text-anchor="middle" x="507.75" y="-146.45" font-family="Helvetica,sans-Serif" font-weight="bold" font-size="9.00">glob</text>
</g>
<g id="clust12" class="cluster">
<title>cluster_node_modules/.pnpm/glob@11.0.3/node_modules/glob/dist</title>
<path fill="#ffffff" stroke="black" stroke-width="2" d="M475.75,-48C475.75,-48 539.75,-48 539.75,-48 545.75,-48 551.75,-54 551.75,-60 551.75,-60 551.75,-121.25 551.75,-121.25 551.75,-127.25 545.75,-133.25 539.75,-133.25 539.75,-133.25 475.75,-133.25 475.75,-133.25 469.75,-133.25 463.75,-127.25 463.75,-121.25 463.75,-121.25 463.75,-60 463.75,-60 463.75,-54 469.75,-48 475.75,-48"/>
<text text-anchor="middle" x="507.75" y="-120.7" font-family="Helvetica,sans-Serif" font-weight="bold" font-size="9.00">dist</text>
</g>
<g id="clust13" class="cluster">
<title>cluster_node_modules/.pnpm/glob@11.0.3/node_modules/glob/dist/esm</title>
<path fill="#ffffff" stroke="black" stroke-width="2" d="M483.75,-56C483.75,-56 531.75,-56 531.75,-56 537.75,-56 543.75,-62 543.75,-68 543.75,-68 543.75,-95.5 543.75,-95.5 543.75,-101.5 537.75,-107.5 531.75,-107.5 531.75,-107.5 483.75,-107.5 483.75,-107.5 477.75,-107.5 471.75,-101.5 471.75,-95.5 471.75,-95.5 471.75,-68 471.75,-68 471.75,-62 477.75,-56 483.75,-56"/>
<text text-anchor="middle" x="507.75" y="-94.95" font-family="Helvetica,sans-Serif" font-weight="bold" font-size="9.00">esm</text>
</g>
<g id="clust14" class="cluster">
<title>cluster_node_modules/.pnpm/typescript&#45;eslint@8.35.0_eslint@9.29.0_typescript@5.8.3</title>
<path fill="#ffffff" stroke="black" stroke-width="2" d="M182.75,-32C182.75,-32 419.75,-32 419.75,-32 425.75,-32 431.75,-38 431.75,-44 431.75,-44 431.75,-172.75 431.75,-172.75 431.75,-178.75 425.75,-184.75 419.75,-184.75 419.75,-184.75 182.75,-184.75 182.75,-184.75 176.75,-184.75 170.75,-178.75 170.75,-172.75 170.75,-172.75 170.75,-44 170.75,-44 170.75,-38 176.75,-32 182.75,-32"/>
<text text-anchor="middle" x="301.25" y="-172.2" font-family="Helvetica,sans-Serif" font-weight="bold" font-size="9.00">typescript&#45;eslint@8.35.0_eslint@9.29.0_typescript@5.8.3</text>
</g>
<g id="clust15" class="cluster">
<title>cluster_node_modules/.pnpm/typescript&#45;eslint@8.35.0_eslint@9.29.0_typescript@5.8.3/node_modules</title>
<path fill="#ffffff" stroke="black" stroke-width="2" d="M190.75,-40C190.75,-40 270.75,-40 270.75,-40 276.75,-40 282.75,-46 282.75,-52 282.75,-52 282.75,-147 282.75,-147 282.75,-153 276.75,-159 270.75,-159 270.75,-159 190.75,-159 190.75,-159 184.75,-159 178.75,-153 178.75,-147 178.75,-147 178.75,-52 178.75,-52 178.75,-46 184.75,-40 190.75,-40"/>
<text text-anchor="middle" x="230.75" y="-146.45" font-family="Helvetica,sans-Serif" font-weight="bold" font-size="9.00">node_modules</text>
</g>
<g id="clust16" class="cluster">
<title>cluster_node_modules/.pnpm/typescript&#45;eslint@8.35.0_eslint@9.29.0_typescript@5.8.3/node_modules/typescript&#45;eslint</title>
<path fill="#ffffff" stroke="black" stroke-width="2" d="M198.75,-48C198.75,-48 262.75,-48 262.75,-48 268.75,-48 274.75,-54 274.75,-60 274.75,-60 274.75,-121.25 274.75,-121.25 274.75,-127.25 268.75,-133.25 262.75,-133.25 262.75,-133.25 198.75,-133.25 198.75,-133.25 192.75,-133.25 186.75,-127.25 186.75,-121.25 186.75,-121.25 186.75,-60 186.75,-60 186.75,-54 192.75,-48 198.75,-48"/>
<text text-anchor="middle" x="230.75" y="-120.7" font-family="Helvetica,sans-Serif" font-weight="bold" font-size="9.00">typescript&#45;eslint</text>
</g>
<g id="clust17" class="cluster">
<title>cluster_node_modules/.pnpm/typescript&#45;eslint@8.35.0_eslint@9.29.0_typescript@5.8.3/node_modules/typescript&#45;eslint/dist</title>
<path fill="#ffffff" stroke="black" stroke-width="2" d="M206.75,-56C206.75,-56 254.75,-56 254.75,-56 260.75,-56 266.75,-62 266.75,-68 266.75,-68 266.75,-95.5 266.75,-95.5 266.75,-101.5 260.75,-107.5 254.75,-107.5 254.75,-107.5 206.75,-107.5 206.75,-107.5 200.75,-107.5 194.75,-101.5 194.75,-95.5 194.75,-95.5 194.75,-68 194.75,-68 194.75,-62 200.75,-56 206.75,-56"/>
<text text-anchor="middle" x="230.75" y="-94.95" font-family="Helvetica,sans-Serif" font-weight="bold" font-size="9.00">dist</text>
</g>
<g id="clust18" class="cluster">
<title>cluster_packages</title>
<path fill="#ffffff" stroke="black" stroke-width="2" d="M1097.75,-56C1097.75,-56 1177.75,-56 1177.75,-56 1183.75,-56 1189.75,-62 1189.75,-68 1189.75,-68 1189.75,-317.5 1189.75,-317.5 1189.75,-323.5 1183.75,-329.5 1177.75,-329.5 1177.75,-329.5 1097.75,-329.5 1097.75,-329.5 1091.75,-329.5 1085.75,-323.5 1085.75,-317.5 1085.75,-317.5 1085.75,-68 1085.75,-68 1085.75,-62 1091.75,-56 1097.75,-56"/>
<text text-anchor="middle" x="1137.75" y="-316.95" font-family="Helvetica,sans-Serif" font-weight="bold" font-size="9.00">packages</text>
</g>
<g id="clust19" class="cluster">
<title>cluster_scripts</title>
<path fill="#ffffff" stroke="black" stroke-width="2" d="M542.75,-270C542.75,-270 955.75,-270 955.75,-270 961.75,-270 967.75,-276 967.75,-282 967.75,-282 967.75,-343.25 967.75,-343.25 967.75,-349.25 961.75,-355.25 955.75,-355.25 955.75,-355.25 542.75,-355.25 542.75,-355.25 536.75,-355.25 530.75,-349.25 530.75,-343.25 530.75,-343.25 530.75,-282 530.75,-282 530.75,-276 536.75,-270 542.75,-270"/>
<text text-anchor="middle" x="749.25" y="-342.7" font-family="Helvetica,sans-Serif" font-weight="bold" font-size="9.00">scripts</text>
</g>
<g id="clust20" class="cluster">
<title>cluster_scripts/analysis</title>
<path fill="#ffffff" stroke="black" stroke-width="2" d="M729.75,-278C729.75,-278 827.75,-278 827.75,-278 833.75,-278 839.75,-284 839.75,-290 839.75,-290 839.75,-317.5 839.75,-317.5 839.75,-323.5 833.75,-329.5 827.75,-329.5 827.75,-329.5 729.75,-329.5 729.75,-329.5 723.75,-329.5 717.75,-323.5 717.75,-317.5 717.75,-317.5 717.75,-290 717.75,-290 717.75,-284 723.75,-278 729.75,-278"/>
<text text-anchor="middle" x="778.75" y="-316.95" font-family="Helvetica,sans-Serif" font-weight="bold" font-size="9.00">analysis</text>
</g>
<!-- .dependency&#45;cruiser.cjs -->
<g id="node1" class="node">
<title>.dependency&#45;cruiser.cjs</title>
<g id="a_node1"><a xlink:href=".dependency-cruiser.cjs" xlink:title=".dependency&#45;cruiser.cjs">
<polygon fill="#ccffcc" stroke="#0066cc" points="113.5,-303.75 1.97,-303.75 0,-301.78 0,-286 111.53,-286 113.5,-287.97 113.5,-303.75"/>
<polyline fill="none" stroke="#0066cc" points="111.53,-301.78 0,-301.78"/>
<polyline fill="none" stroke="#0066cc" points="111.53,-301.78 111.53,-286"/>
<polyline fill="none" stroke="#0066cc" points="111.53,-301.78 113.5,-303.75"/>
<text text-anchor="middle" x="56.75" y="-291.2" font-family="Helvetica,sans-Serif" font-size="9.00" fill="#0066cc">.dependency&#45;cruiser.cjs</text>
</a>
</g>
</g>
<!-- child_process -->
<g id="node2" class="node">
<title>child_process</title>
<g id="a_node2"><a xlink:href="https://nodejs.org/api/child_process.html" xlink:title="child_process">
<polygon fill="#c6e9ff" stroke="grey" points="871.25,-81.75 800.22,-81.75 798.25,-79.78 798.25,-64 869.28,-64 871.25,-65.97 871.25,-81.75"/>
<polyline fill="none" stroke="grey" points="869.28,-79.78 798.25,-79.78"/>
<polyline fill="none" stroke="grey" points="869.28,-79.78 869.28,-64"/>
<polyline fill="none" stroke="grey" points="869.28,-79.78 871.25,-81.75"/>
<text text-anchor="middle" x="834.75" y="-69.2" font-family="Helvetica,sans-Serif" font-size="9.00" fill="grey">child_process</text>
</a>
</g>
</g>
<!-- eslint.config.js -->
<g id="node3" class="node">
<title>eslint.config.js</title>
<g id="a_node3"><a xlink:href="eslint.config.js" xlink:title="eslint.config.js">
<polygon fill="#c6e9ff" stroke="#0066cc" points="199.62,-303.75 127.85,-303.75 125.88,-301.78 125.88,-286 197.65,-286 199.62,-287.97 199.62,-303.75"/>
<polyline fill="none" stroke="#0066cc" points="197.65,-301.78 125.88,-301.78"/>
<polyline fill="none" stroke="#0066cc" points="197.65,-301.78 197.65,-286"/>
<polyline fill="none" stroke="#0066cc" points="197.65,-301.78 199.62,-303.75"/>
<text text-anchor="middle" x="162.75" y="-291.2" font-family="Helvetica,sans-Serif" font-size="9.00" fill="#0066cc">eslint.config.js</text>
</a>
</g>
</g>
<!-- node_modules/.pnpm/@eslint+js@9.29.0/node_modules/@eslint/js/src/index.js -->
<g id="node4" class="node">
<title>node_modules/.pnpm/@eslint+js@9.29.0/node_modules/@eslint/js/src/index.js</title>
<g id="a_node4"><a xlink:href="https://www.npmjs.com/package/.pnpm" xlink:title="index.js">
<polygon fill="#c40b0a" fill-opacity="0.101961" stroke="#0066cc" points="122.75,-81.75 121.27,-83.72 110.92,-83.72 109.44,-81.75 68.75,-81.75 68.75,-64 122.75,-64 122.75,-81.75"/>
<text text-anchor="start" x="80" y="-69.2" font-family="Helvetica,sans-Serif" font-size="9.00" fill="#c40b0a">index.js</text>
</a>
</g>
</g>
<!-- eslint.config.js&#45;&gt;node_modules/.pnpm/@eslint+js@9.29.0/node_modules/@eslint/js/src/index.js -->
<g id="edge1" class="edge">
<title>eslint.config.js&#45;&gt;node_modules/.pnpm/@eslint+js@9.29.0/node_modules/@eslint/js/src/index.js</title>
<path fill="none" stroke="#0066cc" d="M125.49,-295C121.09,-295 118.12,-295 118.12,-295 118.12,-295 118.12,-93.36 118.12,-93.36"/>
<polygon fill="#0066cc" stroke="#0066cc" points="118.13,-83.36 122.63,-93.36 118.13,-87.14 118.13,-93.36 118.13,-93.36 118.13,-93.36 118.13,-87.14 113.63,-93.36 118.13,-83.36"/>
</g>
<!-- node_modules/.pnpm/typescript&#45;eslint@8.35.0_eslint@9.29.0_typescript@5.8.3/node_modules/typescript&#45;eslint/dist/index.d.ts -->
<g id="node5" class="node">
<title>node_modules/.pnpm/typescript&#45;eslint@8.35.0_eslint@9.29.0_typescript@5.8.3/node_modules/typescript&#45;eslint/dist/index.d.ts</title>
<g id="a_node5"><a xlink:href="https://www.npmjs.com/package/.pnpm" xlink:title="index.d.ts">
<polygon fill="#c40b0a" fill-opacity="0.101961" stroke="#0066cc" points="258.25,-81.75 256.77,-83.72 246.42,-83.72 244.94,-81.75 203.25,-81.75 203.25,-64 258.25,-64 258.25,-81.75"/>
<text text-anchor="start" x="211.25" y="-69.2" font-family="Helvetica,sans-Serif" font-size="9.00" fill="#c40b0a">index.d.ts</text>
</a>
</g>
</g>
<!-- eslint.config.js&#45;&gt;node_modules/.pnpm/typescript&#45;eslint@8.35.0_eslint@9.29.0_typescript@5.8.3/node_modules/typescript&#45;eslint/dist/index.d.ts -->
<g id="edge2" class="edge">
<title>eslint.config.js&#45;&gt;node_modules/.pnpm/typescript&#45;eslint@8.35.0_eslint@9.29.0_typescript@5.8.3/node_modules/typescript&#45;eslint/dist/index.d.ts</title>
<path fill="none" stroke="#0066cc" d="M199.93,-292C215.81,-292 230.75,-292 230.75,-292 230.75,-292 230.75,-93.23 230.75,-93.23"/>
<polygon fill="#0066cc" stroke="#0066cc" points="230.75,-83.23 235.25,-93.23 230.75,-87.01 230.75,-93.23 230.75,-93.23 230.75,-93.23 230.75,-87.01 226.25,-93.23 230.75,-83.23"/>
</g>
<!-- fs -->
<g id="node6" class="node">
<title>fs</title>
<g id="a_node6"><a xlink:href="https://nodejs.org/api/fs.html" xlink:title="fs">
<polygon fill="#c6e9ff" stroke="grey" points="653.75,-81.75 601.72,-81.75 599.75,-79.78 599.75,-64 651.78,-64 653.75,-65.97 653.75,-81.75"/>
<polyline fill="none" stroke="grey" points="651.78,-79.78 599.75,-79.78"/>
<polyline fill="none" stroke="grey" points="651.78,-79.78 651.78,-64"/>
<polyline fill="none" stroke="grey" points="651.78,-79.78 653.75,-81.75"/>
<text text-anchor="middle" x="626.75" y="-69.2" font-family="Helvetica,sans-Serif" font-size="9.00" fill="grey">fs</text>
</a>
</g>
</g>
<!-- fs/promises -->
<g id="node7" class="node">
<title>fs/promises</title>
<g id="a_node7"><a xlink:href="https://nodejs.org/api/fs.html" xlink:title="promises">
<polygon fill="#c6e9ff" stroke="grey" points="1007.75,-81.75 955.72,-81.75 953.75,-79.78 953.75,-64 1005.78,-64 1007.75,-65.97 1007.75,-81.75"/>
<polyline fill="none" stroke="grey" points="1005.78,-79.78 953.75,-79.78"/>
<polyline fill="none" stroke="grey" points="1005.78,-79.78 1005.78,-64"/>
<polyline fill="none" stroke="grey" points="1005.78,-79.78 1007.75,-81.75"/>
<text text-anchor="start" x="962" y="-69.2" font-family="Helvetica,sans-Serif" font-size="9.00" fill="grey">promises</text>
</a>
</g>
</g>
<!-- node_modules/.pnpm/glob@11.0.3/node_modules/glob/dist/esm/index.d.ts -->
<g id="node8" class="node">
<title>node_modules/.pnpm/glob@11.0.3/node_modules/glob/dist/esm/index.d.ts</title>
<g id="a_node8"><a xlink:href="https://www.npmjs.com/package/.pnpm" xlink:title="index.d.ts">
<polygon fill="#c40b0a" fill-opacity="0.101961" stroke="#0066cc" points="535.25,-81.75 533.77,-83.72 523.42,-83.72 521.94,-81.75 480.25,-81.75 480.25,-64 535.25,-64 535.25,-81.75"/>
<text text-anchor="start" x="488.25" y="-69.2" font-family="Helvetica,sans-Serif" font-size="9.00" fill="#c40b0a">index.d.ts</text>
</a>
</g>
</g>
<!-- os -->
<g id="node9" class="node">
<title>os</title>
<g id="a_node9"><a xlink:href="https://nodejs.org/api/os.html" xlink:title="os">
<polygon fill="#c6e9ff" stroke="grey" points="1077.75,-81.75 1025.72,-81.75 1023.75,-79.78 1023.75,-64 1075.78,-64 1077.75,-65.97 1077.75,-81.75"/>
<polyline fill="none" stroke="grey" points="1075.78,-79.78 1023.75,-79.78"/>
<polyline fill="none" stroke="grey" points="1075.78,-79.78 1075.78,-64"/>
<polyline fill="none" stroke="grey" points="1075.78,-79.78 1077.75,-81.75"/>
<text text-anchor="middle" x="1050.75" y="-69.2" font-family="Helvetica,sans-Serif" font-size="9.00" fill="grey">os</text>
</a>
</g>
</g>
<!-- packages/core&#45;operations -->
<g id="node10" class="node">
<title>packages/core&#45;operations</title>
<g id="a_node10"><a xlink:href="packages/core-operations" xlink:title="core&#45;operations">
<polygon fill="#c6e9ff" stroke="#0066cc" points="1174,-303.75 1095.47,-303.75 1093.5,-301.78 1093.5,-286 1172.03,-286 1174,-287.97 1174,-303.75"/>
<polyline fill="none" stroke="#0066cc" points="1172.03,-301.78 1093.5,-301.78"/>
<polyline fill="none" stroke="#0066cc" points="1172.03,-301.78 1172.03,-286"/>
<polyline fill="none" stroke="#0066cc" points="1172.03,-301.78 1174,-303.75"/>
<text text-anchor="start" x="1101.5" y="-291.2" font-family="Helvetica,sans-Serif" font-size="9.00" fill="#0066cc">core&#45;operations</text>
</a>
</g>
</g>
<!-- packages/core&#45;operations&#45;&gt;fs/promises -->
<g id="edge4" class="edge">
<title>packages/core&#45;operations&#45;&gt;fs/promises</title>
<path fill="none" stroke="#0066cc" stroke-dasharray="5,2" d="M1093.06,-298C1051.1,-298 991.75,-298 991.75,-298 991.75,-298 991.75,-93.2 991.75,-93.2"/>
<polygon fill="#0066cc" stroke="#0066cc" points="991.75,-83.2 996.25,-93.2 991.75,-86.98 991.75,-93.2 991.75,-93.2 991.75,-93.2 991.75,-86.98 987.25,-93.2 991.75,-83.2"/>
</g>
<!-- packages/core&#45;operations&#45;&gt;os -->
<g id="edge5" class="edge">
<title>packages/core&#45;operations&#45;&gt;os</title>
<path fill="none" stroke="#0066cc" stroke-dasharray="5,2" d="M1093.22,-292C1072.15,-292 1050.75,-292 1050.75,-292 1050.75,-292 1050.75,-93.23 1050.75,-93.23"/>
<polygon fill="#0066cc" stroke="#0066cc" points="1050.75,-83.23 1055.25,-93.23 1050.75,-87.01 1050.75,-93.23 1050.75,-93.23 1050.75,-93.23 1050.75,-87.01 1046.25,-93.23 1050.75,-83.23"/>
</g>
<!-- packages/filesystem&#45;access -->
<g id="node11" class="node">
<title>packages/filesystem&#45;access</title>
<g id="a_node11"><a xlink:href="packages/filesystem-access" xlink:title="filesystem&#45;access">
<polygon fill="#c6e9ff" stroke="#0066cc" points="1181.75,-81.75 1095.72,-81.75 1093.75,-79.78 1093.75,-64 1179.78,-64 1181.75,-65.97 1181.75,-81.75"/>
<polyline fill="none" stroke="#0066cc" points="1179.78,-79.78 1093.75,-79.78"/>
<polyline fill="none" stroke="#0066cc" points="1179.78,-79.78 1179.78,-64"/>
<polyline fill="none" stroke="#0066cc" points="1179.78,-79.78 1181.75,-81.75"/>
<text text-anchor="start" x="1101.75" y="-69.2" font-family="Helvetica,sans-Serif" font-size="9.00" fill="#0066cc">filesystem&#45;access</text>
</a>
</g>
</g>
<!-- packages/core&#45;operations&#45;&gt;packages/filesystem&#45;access -->
<g id="edge3" class="edge">
<title>packages/core&#45;operations&#45;&gt;packages/filesystem&#45;access</title>
<g id="a_edge3"><a xlink:title="package&#45;dependency&#45;only&#45;through&#45;entities">
<path fill="none" stroke="red" stroke-width="2" d="M1147.25,-285.62C1147.25,-285.62 1147.25,-94.61 1147.25,-94.61"/>
<polygon fill="red" stroke="red" stroke-width="2" points="1147.25,-84.61 1151.75,-94.61 1147.75,-87.17 1147.75,-94.61 1147.25,-94.61 1146.75,-94.61 1146.75,-87.17 1142.75,-94.61 1147.25,-84.61"/>
</a>
</g>
<text text-anchor="middle" x="1059.12" y="-191.31" font-family="Helvetica,sans-Serif" font-size="9.00" fill="red">package&#45;dependency&#45;only&#45;through&#45;entities</text>
</g>
<!-- path -->
<g id="node12" class="node">
<title>path</title>
<g id="a_node12"><a xlink:href="https://nodejs.org/api/path.html" xlink:title="path">
<polygon fill="#c6e9ff" stroke="grey" points="719.75,-81.75 667.72,-81.75 665.75,-79.78 665.75,-64 717.78,-64 719.75,-65.97 719.75,-81.75"/>
<polyline fill="none" stroke="grey" points="717.78,-79.78 665.75,-79.78"/>
<polyline fill="none" stroke="grey" points="717.78,-79.78 717.78,-64"/>
<polyline fill="none" stroke="grey" points="717.78,-79.78 719.75,-81.75"/>
<text text-anchor="middle" x="692.75" y="-69.2" font-family="Helvetica,sans-Serif" font-size="9.00" fill="grey">path</text>
</a>
</g>
</g>
<!-- packages/core&#45;operations&#45;&gt;path -->
<g id="edge6" class="edge">
<title>packages/core&#45;operations&#45;&gt;path</title>
<path fill="none" stroke="#0066cc" stroke-dasharray="5,2" d="M1120.5,-285.89C1120.5,-255.44 1120.5,-158 1120.5,-158 1120.5,-158 716.38,-158 716.38,-158 716.38,-158 716.38,-93.2 716.38,-93.2"/>
<polygon fill="#0066cc" stroke="#0066cc" points="716.38,-83.2 720.88,-93.2 716.38,-86.98 716.38,-93.2 716.38,-93.2 716.38,-93.2 716.38,-86.98 711.88,-93.2 716.38,-83.2"/>
</g>
<!-- scripts/add&#45;lint&#45;scripts.js -->
<g id="node13" class="node">
<title>scripts/add&#45;lint&#45;scripts.js</title>
<g id="a_node13"><a xlink:href="scripts/add-lint-scripts.js" xlink:title="add&#45;lint&#45;scripts.js">
<polygon fill="#c6e9ff" stroke="#0066cc" points="624.25,-303.75 541.22,-303.75 539.25,-301.78 539.25,-286 622.28,-286 624.25,-287.97 624.25,-303.75"/>
<polyline fill="none" stroke="#0066cc" points="622.28,-301.78 539.25,-301.78"/>
<polyline fill="none" stroke="#0066cc" points="622.28,-301.78 622.28,-286"/>
<polyline fill="none" stroke="#0066cc" points="622.28,-301.78 624.25,-303.75"/>
<text text-anchor="start" x="547.25" y="-291.2" font-family="Helvetica,sans-Serif" font-size="9.00" fill="#0066cc">add&#45;lint&#45;scripts.js</text>
</a>
</g>
</g>
<!-- scripts/add&#45;lint&#45;scripts.js&#45;&gt;fs -->
<g id="edge7" class="edge">
<title>scripts/add&#45;lint&#45;scripts.js&#45;&gt;fs</title>
<path fill="none" stroke="#0066cc" stroke-dasharray="5,2" d="M607.92,-285.62C607.92,-285.62 607.92,-93.39 607.92,-93.39"/>
<polygon fill="#0066cc" stroke="#0066cc" points="607.92,-83.39 612.42,-93.39 607.92,-87.17 607.92,-93.39 607.92,-93.39 607.92,-93.39 607.92,-87.17 603.42,-93.39 607.92,-83.39"/>
</g>
<!-- scripts/add&#45;lint&#45;scripts.js&#45;&gt;node_modules/.pnpm/glob@11.0.3/node_modules/glob/dist/esm/index.d.ts -->
<g id="edge8" class="edge">
<title>scripts/add&#45;lint&#45;scripts.js&#45;&gt;node_modules/.pnpm/glob@11.0.3/node_modules/glob/dist/esm/index.d.ts</title>
<path fill="none" stroke="#0066cc" d="M539.19,-298C518.73,-298 498.58,-298 498.58,-298 498.58,-298 498.58,-93.2 498.58,-93.2"/>
<polygon fill="#0066cc" stroke="#0066cc" points="498.58,-83.2 503.08,-93.2 498.58,-86.98 498.58,-93.2 498.58,-93.2 498.58,-93.2 498.58,-86.98 494.08,-93.2 498.58,-83.2"/>
</g>
<!-- scripts/add&#45;lint&#45;scripts.js&#45;&gt;path -->
<g id="edge9" class="edge">
<title>scripts/add&#45;lint&#45;scripts.js&#45;&gt;path</title>
<path fill="none" stroke="#0066cc" stroke-dasharray="5,2" d="M616.08,-285.56C616.08,-247.65 616.08,-107 616.08,-107 616.08,-107 680.38,-107 680.38,-107 680.38,-107 680.38,-93.42 680.38,-93.42"/>
<polygon fill="#0066cc" stroke="#0066cc" points="680.38,-83.42 684.88,-93.42 680.38,-87.2 680.38,-93.42 680.38,-93.42 680.38,-93.42 680.38,-87.2 675.88,-93.42 680.38,-83.42"/>
</g>
<!-- scripts/analysis/run&#45;code&#45;analysis.mjs -->
<g id="node14" class="node">
<title>scripts/analysis/run&#45;code&#45;analysis.mjs</title>
<g id="a_node14"><a xlink:href="scripts/analysis/run-code-analysis.mjs" xlink:title="run&#45;code&#45;analysis.mjs">
<polygon fill="#c6e9ff" stroke="#0066cc" points="831.75,-303.75 727.72,-303.75 725.75,-301.78 725.75,-286 829.78,-286 831.75,-287.97 831.75,-303.75"/>
<polyline fill="none" stroke="#0066cc" points="829.78,-301.78 725.75,-301.78"/>
<polyline fill="none" stroke="#0066cc" points="829.78,-301.78 829.78,-286"/>
<polyline fill="none" stroke="#0066cc" points="829.78,-301.78 831.75,-303.75"/>
<text text-anchor="start" x="733.75" y="-291.2" font-family="Helvetica,sans-Serif" font-size="9.00" fill="#0066cc">run&#45;code&#45;analysis.mjs</text>
</a>
</g>
</g>
<!-- scripts/analysis/run&#45;code&#45;analysis.mjs&#45;&gt;child_process -->
<g id="edge10" class="edge">
<title>scripts/analysis/run&#45;code&#45;analysis.mjs&#45;&gt;child_process</title>
<path fill="none" stroke="#0066cc" stroke-dasharray="5,2" d="M806.62,-285.62C806.62,-285.62 806.62,-93.39 806.62,-93.39"/>
<polygon fill="#0066cc" stroke="#0066cc" points="806.63,-83.39 811.13,-93.39 806.63,-87.17 806.63,-93.39 806.63,-93.39 806.63,-93.39 806.63,-87.17 802.13,-93.39 806.63,-83.39"/>
</g>
<!-- scripts/analysis/run&#45;code&#45;analysis.mjs&#45;&gt;fs -->
<g id="edge11" class="edge">
<title>scripts/analysis/run&#45;code&#45;analysis.mjs&#45;&gt;fs</title>
<path fill="none" stroke="#0066cc" stroke-dasharray="5,2" d="M749.75,-285.68C749.75,-263.53 749.75,-209 749.75,-209 749.75,-209 646.6,-209 646.6,-209 646.6,-209 646.6,-93.45 646.6,-93.45"/>
<polygon fill="#0066cc" stroke="#0066cc" points="646.6,-83.45 651.1,-93.45 646.6,-87.23 646.6,-93.45 646.6,-93.45 646.6,-93.45 646.6,-87.23 642.1,-93.45 646.6,-83.45"/>
</g>
<!-- scripts/analysis/run&#45;code&#45;analysis.mjs&#45;&gt;fs/promises -->
<g id="edge12" class="edge">
<title>scripts/analysis/run&#45;code&#45;analysis.mjs&#45;&gt;fs/promises</title>
<path fill="none" stroke="#0066cc" stroke-dasharray="5,2" d="M823.38,-285.71C823.38,-275.38 823.38,-260 823.38,-260 823.38,-260 975.75,-260 975.75,-260 975.75,-260 975.75,-93.37 975.75,-93.37"/>
<polygon fill="#0066cc" stroke="#0066cc" points="975.75,-83.37 980.25,-93.37 975.75,-87.15 975.75,-93.37 975.75,-93.37 975.75,-93.37 975.75,-87.15 971.25,-93.37 975.75,-83.37"/>
</g>
<!-- scripts/analysis/run&#45;code&#45;analysis.mjs&#45;&gt;path -->
<g id="edge13" class="edge">
<title>scripts/analysis/run&#45;code&#45;analysis.mjs&#45;&gt;path</title>
<path fill="none" stroke="#0066cc" stroke-dasharray="5,2" d="M725.37,-295C718.06,-295 713,-295 713,-295 713,-295 713,-93.36 713,-93.36"/>
<polygon fill="#0066cc" stroke="#0066cc" points="713,-83.36 717.5,-93.36 713,-87.14 713,-93.36 713,-93.36 713,-93.36 713,-87.14 708.5,-93.36 713,-83.36"/>
</g>
<!-- url -->
<g id="node15" class="node">
<title>url</title>
<g id="a_node15"><a xlink:href="https://nodejs.org/api/url.html" xlink:title="url">
<polygon fill="#c6e9ff" stroke="grey" points="937.75,-81.75 885.72,-81.75 883.75,-79.78 883.75,-64 935.78,-64 937.75,-65.97 937.75,-81.75"/>
<polyline fill="none" stroke="grey" points="935.78,-79.78 883.75,-79.78"/>
<polyline fill="none" stroke="grey" points="935.78,-79.78 935.78,-64"/>
<polyline fill="none" stroke="grey" points="935.78,-79.78 937.75,-81.75"/>
<text text-anchor="middle" x="910.75" y="-69.2" font-family="Helvetica,sans-Serif" font-size="9.00" fill="grey">url</text>
</a>
</g>
</g>
<!-- scripts/analysis/run&#45;code&#45;analysis.mjs&#45;&gt;url -->
<g id="edge14" class="edge">
<title>scripts/analysis/run&#45;code&#45;analysis.mjs&#45;&gt;url</title>
<path fill="none" stroke="#0066cc" stroke-dasharray="5,2" d="M815,-285.71C815,-251.46 815,-133 815,-133 815,-133 910.75,-133 910.75,-133 910.75,-133 910.75,-93.23 910.75,-93.23"/>
<polygon fill="#0066cc" stroke="#0066cc" points="910.75,-83.23 915.25,-93.23 910.75,-87.01 910.75,-93.23 910.75,-93.23 910.75,-93.23 910.75,-87.01 906.25,-93.23 910.75,-83.23"/>
</g>
<!-- util -->
<g id="node16" class="node">
<title>util</title>
<g id="a_node16"><a xlink:href="https://nodejs.org/api/util.html" xlink:title="util">
<polygon fill="#c6e9ff" stroke="grey" points="785.75,-81.75 733.72,-81.75 731.75,-79.78 731.75,-64 783.78,-64 785.75,-65.97 785.75,-81.75"/>
<polyline fill="none" stroke="grey" points="783.78,-79.78 731.75,-79.78"/>
<polyline fill="none" stroke="grey" points="783.78,-79.78 783.78,-64"/>
<polyline fill="none" stroke="grey" points="783.78,-79.78 785.75,-81.75"/>
<text text-anchor="middle" x="758.75" y="-69.2" font-family="Helvetica,sans-Serif" font-size="9.00" fill="grey">util</text>
</a>
</g>
</g>
<!-- scripts/analysis/run&#45;code&#45;analysis.mjs&#45;&gt;util -->
<g id="edge15" class="edge">
<title>scripts/analysis/run&#45;code&#45;analysis.mjs&#45;&gt;util</title>
<path fill="none" stroke="#0066cc" stroke-dasharray="5,2" d="M767.75,-285.62C767.75,-285.62 767.75,-93.39 767.75,-93.39"/>
<polygon fill="#0066cc" stroke="#0066cc" points="767.75,-83.39 772.25,-93.39 767.75,-87.17 767.75,-93.39 767.75,-93.39 767.75,-93.39 767.75,-87.17 763.25,-93.39 767.75,-83.39"/>
</g>
<!-- scripts/query&#45;syntax&#45;report.mjs -->
<g id="node17" class="node">
<title>scripts/query&#45;syntax&#45;report.mjs</title>
<g id="a_node17"><a xlink:href="scripts/query-syntax-report.mjs" xlink:title="query&#45;syntax&#45;report.mjs">
<polygon fill="#c6e9ff" stroke="#0066cc" points="959.75,-303.75 849.72,-303.75 847.75,-301.78 847.75,-286 957.78,-286 959.75,-287.97 959.75,-303.75"/>
<polyline fill="none" stroke="#0066cc" points="957.78,-301.78 847.75,-301.78"/>
<polyline fill="none" stroke="#0066cc" points="957.78,-301.78 957.78,-286"/>
<polyline fill="none" stroke="#0066cc" points="957.78,-301.78 959.75,-303.75"/>
<text text-anchor="start" x="855.75" y="-291.2" font-family="Helvetica,sans-Serif" font-size="9.00" fill="#0066cc">query&#45;syntax&#45;report.mjs</text>
</a>
</g>
</g>
<!-- scripts/query&#45;syntax&#45;report.mjs&#45;&gt;fs -->
<g id="edge16" class="edge">
<title>scripts/query&#45;syntax&#45;report.mjs&#45;&gt;fs</title>
<path fill="none" stroke="#0066cc" stroke-dasharray="5,2" d="M859.5,-285.8C859.5,-259.32 859.5,-184 859.5,-184 859.5,-184 650.17,-184 650.17,-184 650.17,-184 650.17,-93.19 650.17,-93.19"/>
<polygon fill="#0066cc" stroke="#0066cc" points="650.18,-83.19 654.68,-93.19 650.18,-86.97 650.18,-93.19 650.18,-93.19 650.18,-93.19 650.18,-86.97 645.68,-93.19 650.18,-83.19"/>
</g>
<!-- scripts/query&#45;syntax&#45;report.mjs&#45;&gt;fs/promises -->
<g id="edge17" class="edge">
<title>scripts/query&#45;syntax&#45;report.mjs&#45;&gt;fs/promises</title>
<path fill="none" stroke="#0066cc" stroke-dasharray="5,2" d="M945.75,-285.62C945.75,-243.63 945.75,-73 945.75,-73 945.75,-73 946.53,-73 946.53,-73"/>
<polygon fill="#0066cc" stroke="#0066cc" points="952.3,-73 942.3,-77.5 948.52,-73 942.3,-73 942.3,-73 942.3,-73 948.52,-73 942.3,-68.5 952.3,-73"/>
</g>
<!-- scripts/test&#45;report.mjs -->
<g id="node18" class="node">
<title>scripts/test&#45;report.mjs</title>
<g id="a_node18"><a xlink:href="scripts/test-report.mjs" xlink:title="test&#45;report.mjs">
<polygon fill="#c6e9ff" stroke="#0066cc" points="709.62,-303.75 637.85,-303.75 635.88,-301.78 635.88,-286 707.65,-286 709.62,-287.97 709.62,-303.75"/>
<polyline fill="none" stroke="#0066cc" points="707.65,-301.78 635.88,-301.78"/>
<polyline fill="none" stroke="#0066cc" points="707.65,-301.78 707.65,-286"/>
<polyline fill="none" stroke="#0066cc" points="707.65,-301.78 709.62,-303.75"/>
<text text-anchor="start" x="643.88" y="-291.2" font-family="Helvetica,sans-Serif" font-size="9.00" fill="#0066cc">test&#45;report.mjs</text>
</a>
</g>
</g>
<!-- scripts/test&#45;report.mjs&#45;&gt;fs -->
<g id="edge18" class="edge">
<title>scripts/test&#45;report.mjs&#45;&gt;fs</title>
<path fill="none" stroke="#0066cc" stroke-dasharray="5,2" d="M643.02,-285.62C643.02,-285.62 643.02,-93.39 643.02,-93.39"/>
<polygon fill="#0066cc" stroke="#0066cc" points="643.03,-83.39 647.53,-93.39 643.03,-87.17 643.03,-93.39 643.03,-93.39 643.03,-93.39 643.03,-87.17 638.53,-93.39 643.03,-83.39"/>
</g>
<!-- scripts/test&#45;report.mjs&#45;&gt;node_modules/.pnpm/glob@11.0.3/node_modules/glob/dist/esm/index.d.ts -->
<g id="edge19" class="edge">
<title>scripts/test&#45;report.mjs&#45;&gt;node_modules/.pnpm/glob@11.0.3/node_modules/glob/dist/esm/index.d.ts</title>
<path fill="none" stroke="#0066cc" d="M639.45,-285.52C639.45,-268.68 639.45,-235 639.45,-235 639.45,-235 516.92,-235 516.92,-235 516.92,-235 516.92,-93.27 516.92,-93.27"/>
<polygon fill="#0066cc" stroke="#0066cc" points="516.92,-83.27 521.42,-93.27 516.92,-87.06 516.92,-93.27 516.92,-93.27 516.92,-93.27 516.92,-87.06 512.42,-93.27 516.92,-83.27"/>
</g>
<!-- scripts/test&#45;report.mjs&#45;&gt;path -->
<g id="edge20" class="edge">
<title>scripts/test&#45;report.mjs&#45;&gt;path</title>
<path fill="none" stroke="#0066cc" stroke-dasharray="5,2" d="M695,-285.62C695,-285.62 695,-93.39 695,-93.39"/>
<polygon fill="#0066cc" stroke="#0066cc" points="695,-83.39 699.5,-93.39 695,-87.17 695,-93.39 695,-93.39 695,-93.39 695,-87.17 690.5,-93.39 695,-83.39"/>
</g>
</g>
</svg>
