<?xml version="1.0" encoding="UTF-8" standalone="no"?>
<!DOCTYPE svg PUBLIC "-//W3C//DTD SVG 1.1//EN"
 "http://www.w3.org/Graphics/SVG/1.1/DTD/svg11.dtd">
<!-- Generated by graphviz version 12.2.1 (20241206.2353)
 -->
<!-- Title: dependency&#45;cruiser output Pages: 1 -->
<svg width="614pt" height="201pt"
 viewBox="0.00 0.00 614.00 201.25" xmlns="http://www.w3.org/2000/svg" xmlns:xlink="http://www.w3.org/1999/xlink">
<g id="graph0" class="graph" transform="scale(1 1) rotate(0) translate(4 197.25)">
<title>dependency&#45;cruiser output</title>
<g id="clust1" class="cluster">
<title>cluster_packages</title>
<path fill="#ffffff" stroke="black" stroke-width="2" d="M20,-8C20,-8 586,-8 586,-8 592,-8 598,-14 598,-20 598,-20 598,-173.25 598,-173.25 598,-179.25 592,-185.25 586,-185.25 586,-185.25 20,-185.25 20,-185.25 14,-185.25 8,-179.25 8,-173.25 8,-173.25 8,-20 8,-20 8,-14 14,-8 20,-8"/>
<text text-anchor="middle" x="303" y="-172.7" font-family="Helvetica,sans-Serif" font-weight="bold" font-size="9.00">packages</text>
</g>
<!-- packages/config -->
<g id="node1" class="node">
<title>packages/config</title>
<g id="a_node1"><a xlink:href="packages/config" xlink:title="config">
<polygon fill="#c6e9ff" stroke="#0066cc" points="70,-159.5 17.97,-159.5 16,-157.53 16,-141.75 68.03,-141.75 70,-143.72 70,-159.5"/>
<polyline fill="none" stroke="#0066cc" points="68.03,-157.53 16,-157.53"/>
<polyline fill="none" stroke="#0066cc" points="68.03,-157.53 68.03,-141.75"/>
<polyline fill="none" stroke="#0066cc" points="68.03,-157.53 70,-159.5"/>
<text text-anchor="start" x="30.62" y="-146.95" font-family="Helvetica,sans-Serif" font-size="9.00" fill="#0066cc">config</text>
</a>
</g>
</g>
<!-- packages/entities -->
<g id="node2" class="node">
<title>packages/entities</title>
<g id="a_node2"><a xlink:href="packages/entities" xlink:title="entities">
<polygon fill="#c6e9ff" stroke="#0066cc" points="333,-33.75 280.97,-33.75 279,-31.78 279,-16 331.03,-16 333,-17.97 333,-33.75"/>
<polyline fill="none" stroke="#0066cc" points="331.03,-31.78 279,-31.78"/>
<polyline fill="none" stroke="#0066cc" points="331.03,-31.78 331.03,-16"/>
<polyline fill="none" stroke="#0066cc" points="331.03,-31.78 333,-33.75"/>
<text text-anchor="start" x="291.38" y="-21.2" font-family="Helvetica,sans-Serif" font-size="9.00" fill="#0066cc">entities</text>
</a>
</g>
</g>
<!-- packages/config&#45;&gt;packages/entities -->
<g id="edge1" class="edge">
<title>packages/config&#45;&gt;packages/entities</title>
<path fill="none" stroke="#0066cc" d="M43,-141.37C43,-111.88 43,-22 43,-22 43,-22 267.33,-22 267.33,-22"/>
<polygon fill="none" stroke="#0066cc" points="267.33,-25.5 277.33,-22 267.33,-18.5 267.33,-25.5"/>
</g>
<!-- packages/core&#45;operations -->
<g id="node3" class="node">
<title>packages/core&#45;operations</title>
<g id="a_node3"><a xlink:href="packages/core-operations" xlink:title="core&#45;operations">
<polygon fill="#c6e9ff" stroke="#0066cc" points="162.25,-159.5 83.72,-159.5 81.75,-157.53 81.75,-141.75 160.28,-141.75 162.25,-143.72 162.25,-159.5"/>
<polyline fill="none" stroke="#0066cc" points="160.28,-157.53 81.75,-157.53"/>
<polyline fill="none" stroke="#0066cc" points="160.28,-157.53 160.28,-141.75"/>
<polyline fill="none" stroke="#0066cc" points="160.28,-157.53 162.25,-159.5"/>
<text text-anchor="start" x="89.75" y="-146.95" font-family="Helvetica,sans-Serif" font-size="9.00" fill="#0066cc">core&#45;operations</text>
</a>
</g>
</g>
<!-- packages/core&#45;operations&#45;&gt;packages/entities -->
<g id="edge2" class="edge">
<title>packages/core&#45;operations&#45;&gt;packages/entities</title>
<path fill="none" stroke="#0066cc" d="M122,-141.41C122,-112.89 122,-28 122,-28 122,-28 267.34,-28 267.34,-28"/>
<polygon fill="none" stroke="#0066cc" points="267.34,-31.5 277.34,-28 267.34,-24.5 267.34,-31.5"/>
</g>
<!-- packages/document&#45;operations -->
<g id="node4" class="node">
<title>packages/document&#45;operations</title>
<g id="a_node4"><a xlink:href="packages/document-operations" xlink:title="no&#45;orphans">
<polygon fill="#ccffcc" stroke="orange" points="277.5,-159.5 176.47,-159.5 174.5,-157.53 174.5,-141.75 275.53,-141.75 277.5,-143.72 277.5,-159.5"/>
<polyline fill="none" stroke="orange" points="275.53,-157.53 174.5,-157.53"/>
<polyline fill="none" stroke="orange" points="275.53,-157.53 275.53,-141.75"/>
<polyline fill="none" stroke="orange" points="275.53,-157.53 277.5,-159.5"/>
<text text-anchor="start" x="182.5" y="-146.95" font-family="Helvetica,sans-Serif" font-size="9.00" fill="orange">document&#45;operations</text>
</a>
</g>
</g>
<!-- packages/filesystem&#45;access -->
<g id="node5" class="node">
<title>packages/filesystem&#45;access</title>
<g id="a_node5"><a xlink:href="packages/filesystem-access" xlink:title="no&#45;orphans">
<polygon fill="#ccffcc" stroke="orange" points="378,-159.5 291.97,-159.5 290,-157.53 290,-141.75 376.03,-141.75 378,-143.72 378,-159.5"/>
<polyline fill="none" stroke="orange" points="376.03,-157.53 290,-157.53"/>
<polyline fill="none" stroke="orange" points="376.03,-157.53 376.03,-141.75"/>
<polyline fill="none" stroke="orange" points="376.03,-157.53 378,-159.5"/>
<text text-anchor="start" x="298" y="-146.95" font-family="Helvetica,sans-Serif" font-size="9.00" fill="orange">filesystem&#45;access</text>
</a>
</g>
</g>
<!-- packages/indexer -->
<g id="node6" class="node">
<title>packages/indexer</title>
<g id="a_node6"><a xlink:href="packages/indexer" xlink:title="no&#45;orphans">
<polygon fill="#ccffcc" stroke="orange" points="444,-159.5 391.97,-159.5 390,-157.53 390,-141.75 442.03,-141.75 444,-143.72 444,-159.5"/>
<polyline fill="none" stroke="orange" points="442.03,-157.53 390,-157.53"/>
<polyline fill="none" stroke="orange" points="442.03,-157.53 442.03,-141.75"/>
<polyline fill="none" stroke="orange" points="442.03,-157.53 444,-159.5"/>
<text text-anchor="start" x="401.62" y="-146.95" font-family="Helvetica,sans-Serif" font-size="9.00" fill="orange">indexer</text>
</a>
</g>
</g>
<!-- packages/query&#45;parser -->
<g id="node7" class="node">
<title>packages/query&#45;parser</title>
<g id="a_node7"><a xlink:href="packages/query-parser" xlink:title="query&#45;parser">
<polygon fill="#c6e9ff" stroke="#0066cc" points="524.25,-159.5 457.72,-159.5 455.75,-157.53 455.75,-141.75 522.28,-141.75 524.25,-143.72 524.25,-159.5"/>
<polyline fill="none" stroke="#0066cc" points="522.28,-157.53 455.75,-157.53"/>
<polyline fill="none" stroke="#0066cc" points="522.28,-157.53 522.28,-141.75"/>
<polyline fill="none" stroke="#0066cc" points="522.28,-157.53 524.25,-159.5"/>
<text text-anchor="start" x="463.75" y="-146.95" font-family="Helvetica,sans-Serif" font-size="9.00" fill="#0066cc">query&#45;parser</text>
</a>
</g>
</g>
<!-- packages/query&#45;parser&#45;&gt;packages/entities -->
<g id="edge3" class="edge">
<title>packages/query&#45;parser&#45;&gt;packages/entities</title>
<path fill="none" stroke="#0066cc" stroke-width="2" d="M490,-141.41C490,-112.89 490,-28 490,-28 490,-28 345.59,-28 345.59,-28"/>
<polygon fill="#0066cc" stroke="#0066cc" stroke-width="2" points="335.59,-28 345.59,-23.5 338.15,-27.5 345.59,-27.5 345.59,-28 345.59,-28.5 338.15,-28.5 345.59,-32.5 335.59,-28"/>
</g>
<!-- packages/scripting -->
<g id="node8" class="node">
<title>packages/scripting</title>
<g id="a_node8"><a xlink:href="packages/scripting" xlink:title="scripting">
<polygon fill="#c6e9ff" stroke="#0066cc" points="590,-159.5 537.97,-159.5 536,-157.53 536,-141.75 588.03,-141.75 590,-143.72 590,-159.5"/>
<polyline fill="none" stroke="#0066cc" points="588.03,-157.53 536,-157.53"/>
<polyline fill="none" stroke="#0066cc" points="588.03,-157.53 588.03,-141.75"/>
<polyline fill="none" stroke="#0066cc" points="588.03,-157.53 590,-159.5"/>
<text text-anchor="start" x="545.75" y="-146.95" font-family="Helvetica,sans-Serif" font-size="9.00" fill="#0066cc">scripting</text>
</a>
</g>
</g>
<!-- packages/scripting&#45;&gt;packages/entities -->
<g id="edge4" class="edge">
<title>packages/scripting&#45;&gt;packages/entities</title>
<path fill="none" stroke="#0066cc" d="M563,-141.37C563,-111.88 563,-22 563,-22 563,-22 344.53,-22 344.53,-22"/>
<polygon fill="none" stroke="#0066cc" points="344.53,-18.5 334.53,-22 344.53,-25.5 344.53,-18.5"/>
</g>
</g>
</svg>
