<?xml version="1.0" encoding="UTF-8" standalone="no"?>
<!DOCTYPE svg PUBLIC "-//W3C//DTD SVG 1.1//EN"
 "http://www.w3.org/Graphics/SVG/1.1/DTD/svg11.dtd">
<!-- Generated by graphviz version 12.2.1 (20241206.2353)
 -->
<!-- Title: PackageLayers Pages: 1 -->
<svg width="1916pt" height="470pt"
 viewBox="0.00 0.00 1916.00 469.75" xmlns="http://www.w3.org/2000/svg" xmlns:xlink="http://www.w3.org/1999/xlink">
<g id="graph0" class="graph" transform="scale(1 1) rotate(0) translate(4 465.75)">
<title>PackageLayers</title>
<polygon fill="white" stroke="none" points="-4,4 -4,-465.75 1912,-465.75 1912,4 -4,4"/>
<g id="clust1" class="cluster">
<title>cluster_0</title>
<path fill="#e8f4fd" stroke="#1f77b4" d="M1016,-340.5C1016,-340.5 1510,-340.5 1510,-340.5 1516,-340.5 1522,-346.5 1522,-352.5 1522,-352.5 1522,-441.75 1522,-441.75 1522,-447.75 1516,-453.75 1510,-453.75 1510,-453.75 1016,-453.75 1016,-453.75 1010,-453.75 1004,-447.75 1004,-441.75 1004,-441.75 1004,-352.5 1004,-352.5 1004,-346.5 1010,-340.5 1016,-340.5"/>
<text text-anchor="middle" x="1263" y="-348.05" font-family="Arial Bold" font-size="16.00">Layer 0: Core (No dependencies)</text>
</g>
<g id="clust3" class="cluster">
<title>cluster_1</title>
<path fill="#d4e8fc" stroke="#1f77b4" d="M732,-174.25C732,-174.25 1374,-174.25 1374,-174.25 1380,-174.25 1386,-180.25 1386,-186.25 1386,-186.25 1386,-261.25 1386,-261.25 1386,-267.25 1380,-273.25 1374,-273.25 1374,-273.25 732,-273.25 732,-273.25 726,-273.25 720,-267.25 720,-261.25 720,-261.25 720,-186.25 720,-186.25 720,-180.25 726,-174.25 732,-174.25"/>
<text text-anchor="middle" x="1053" y="-181.8" font-family="Arial Bold" font-size="16.00">Layer 1: Foundation</text>
</g>
<g id="clust5" class="cluster">
<title>cluster_2</title>
<path fill="#c0dcfb" stroke="#1f77b4" d="M1434,-174.25C1434,-174.25 1888,-174.25 1888,-174.25 1894,-174.25 1900,-180.25 1900,-186.25 1900,-186.25 1900,-261.25 1900,-261.25 1900,-267.25 1894,-273.25 1888,-273.25 1888,-273.25 1434,-273.25 1434,-273.25 1428,-273.25 1422,-267.25 1422,-261.25 1422,-261.25 1422,-186.25 1422,-186.25 1422,-180.25 1428,-174.25 1434,-174.25"/>
<text text-anchor="middle" x="1661" y="-181.8" font-family="Arial Bold" font-size="16.00">Layer 2: Services</text>
</g>
<g id="clust7" class="cluster">
<title>cluster_3</title>
<path fill="#acd0fa" stroke="#1f77b4" d="M20,-174.25C20,-174.25 324,-174.25 324,-174.25 330,-174.25 336,-180.25 336,-186.25 336,-186.25 336,-261.25 336,-261.25 336,-267.25 330,-273.25 324,-273.25 324,-273.25 20,-273.25 20,-273.25 14,-273.25 8,-267.25 8,-261.25 8,-261.25 8,-186.25 8,-186.25 8,-180.25 14,-174.25 20,-174.25"/>
<text text-anchor="middle" x="172" y="-181.8" font-family="Arial Bold" font-size="16.00">Layer 3: Operations</text>
</g>
<g id="clust9" class="cluster">
<title>cluster_4</title>
<path fill="#98c4f9" stroke="#1f77b4" d="M662,-8C662,-8 1036,-8 1036,-8 1042,-8 1048,-14 1048,-20 1048,-20 1048,-95 1048,-95 1048,-101 1042,-107 1036,-107 1036,-107 662,-107 662,-107 656,-107 650,-101 650,-95 650,-95 650,-20 650,-20 650,-14 656,-8 662,-8"/>
<text text-anchor="middle" x="849" y="-15.55" font-family="Arial Bold" font-size="16.00">Layer 4: Applications</text>
</g>
<!-- l0 -->
<!-- l1 -->
<!-- l0&#45;&gt;l1 -->
<!-- l2 -->
<!-- l1&#45;&gt;l2 -->
<!-- l3 -->
<!-- l2&#45;&gt;l3 -->
<!-- l4 -->
<!-- l3&#45;&gt;l4 -->
<!-- entities -->
<g id="node6" class="node">
<title>entities</title>
<polygon fill="#ffffff" stroke="black" points="1263.25,-428.75 1140.75,-428.75 1140.75,-392.25 1263.25,-392.25 1263.25,-428.75"/>
<text text-anchor="middle" x="1202" y="-413.35" font-family="Arial" font-size="12.00">@mmt/entities</text>
<text text-anchor="middle" x="1202" y="-399.1" font-family="Arial" font-size="12.00">(schemas/contracts)</text>
</g>
<!-- filesystem -->
<g id="node7" class="node">
<title>filesystem</title>
<polygon fill="#ffffff" stroke="black" points="1497,-428.75 1349,-428.75 1349,-392.25 1497,-392.25 1497,-428.75"/>
<text text-anchor="middle" x="1423" y="-413.35" font-family="Arial" font-size="12.00">@mmt/filesystem&#45;access</text>
<text text-anchor="middle" x="1423" y="-399.1" font-family="Arial" font-size="12.00">(file system abstraction)</text>
</g>
<!-- config -->
<g id="node8" class="node">
<title>config</title>
<polygon fill="#ffffff" stroke="black" points="1148.88,-248.25 1063.12,-248.25 1063.12,-226 1148.88,-226 1148.88,-248.25"/>
<text text-anchor="middle" x="1106" y="-232.85" font-family="Arial" font-size="12.00">@mmt/config</text>
</g>
<!-- config&#45;&gt;entities -->
<g id="edge5" class="edge">
<title>config&#45;&gt;entities</title>
<path fill="none" stroke="#4a90e2" stroke-width="2" d="M1144.81,-248.5C1144.81,-248.5 1144.81,-378.99 1144.81,-378.99"/>
<polygon fill="#4a90e2" stroke="#4a90e2" stroke-width="2" points="1141.31,-378.99 1144.81,-388.99 1148.31,-378.99 1141.31,-378.99"/>
</g>
<!-- queryparser -->
<g id="node9" class="node">
<title>queryparser</title>
<polygon fill="#ffffff" stroke="black" points="977.5,-248.25 856.5,-248.25 856.5,-226 977.5,-226 977.5,-248.25"/>
<text text-anchor="middle" x="917" y="-232.85" font-family="Arial" font-size="12.00">@mmt/query&#45;parser</text>
</g>
<!-- queryparser&#45;&gt;entities -->
<g id="edge6" class="edge">
<title>queryparser&#45;&gt;entities</title>
<path fill="none" stroke="#4a90e2" stroke-width="2" d="M917,-248.72C917,-285.12 917,-394.75 917,-394.75 917,-394.75 1127.48,-394.75 1127.48,-394.75"/>
<polygon fill="#4a90e2" stroke="#4a90e2" stroke-width="2" points="1127.48,-398.25 1137.48,-394.75 1127.48,-391.25 1127.48,-398.25"/>
</g>
<!-- documentset -->
<g id="node10" class="node">
<title>documentset</title>
<polygon fill="#ffffff" stroke="black" points="1360.75,-248.25 1235.25,-248.25 1235.25,-226 1360.75,-226 1360.75,-248.25"/>
<text text-anchor="middle" x="1298" y="-232.85" font-family="Arial" font-size="12.00">@mmt/document&#45;set</text>
</g>
<!-- documentset&#45;&gt;entities -->
<g id="edge7" class="edge">
<title>documentset&#45;&gt;entities</title>
<path fill="none" stroke="#4a90e2" stroke-width="2" d="M1242.25,-248.5C1242.25,-248.5 1242.25,-378.99 1242.25,-378.99"/>
<polygon fill="#4a90e2" stroke="#4a90e2" stroke-width="2" points="1238.75,-378.99 1242.25,-388.99 1245.75,-378.99 1238.75,-378.99"/>
</g>
<!-- indexer -->
<g id="node11" class="node">
<title>indexer</title>
<polygon fill="#ffffff" stroke="black" points="1874.62,-248.25 1781.38,-248.25 1781.38,-226 1874.62,-226 1874.62,-248.25"/>
<text text-anchor="middle" x="1828" y="-232.85" font-family="Arial" font-size="12.00">@mmt/indexer</text>
</g>
<!-- indexer&#45;&gt;entities -->
<g id="edge8" class="edge">
<title>indexer&#45;&gt;entities</title>
<path fill="none" stroke="#5a9fd4" stroke-width="2" d="M1828,-248.72C1828,-280.69 1828,-367.75 1828,-367.75 1828,-367.75 1256.25,-367.75 1256.25,-367.75 1256.25,-367.75 1256.25,-379.09 1256.25,-379.09"/>
<polygon fill="#5a9fd4" stroke="#5a9fd4" stroke-width="2" points="1252.75,-379.09 1256.25,-389.09 1259.75,-379.09 1252.75,-379.09"/>
</g>
<!-- indexer&#45;&gt;filesystem -->
<g id="edge9" class="edge">
<title>indexer&#45;&gt;filesystem</title>
<path fill="none" stroke="#5a9fd4" stroke-width="2" d="M1851.31,-248.52C1851.31,-287.14 1851.31,-410.75 1851.31,-410.75 1851.31,-410.75 1510.14,-410.75 1510.14,-410.75"/>
<polygon fill="#5a9fd4" stroke="#5a9fd4" stroke-width="2" points="1510.14,-407.25 1500.14,-410.75 1510.14,-414.25 1510.14,-407.25"/>
</g>
<!-- coreops -->
<g id="node12" class="node">
<title>coreops</title>
<polygon fill="#ffffff" stroke="black" points="1695.38,-248.25 1558.62,-248.25 1558.62,-226 1695.38,-226 1695.38,-248.25"/>
<text text-anchor="middle" x="1627" y="-232.85" font-family="Arial" font-size="12.00">@mmt/core&#45;operations</text>
</g>
<!-- coreops&#45;&gt;entities -->
<g id="edge10" class="edge">
<title>coreops&#45;&gt;entities</title>
<path fill="none" stroke="#5a9fd4" stroke-width="2" d="M1627,-248.54C1627,-276.04 1627,-343.75 1627,-343.75 1627,-343.75 1249.25,-343.75 1249.25,-343.75 1249.25,-343.75 1249.25,-378.88 1249.25,-378.88"/>
<polygon fill="#5a9fd4" stroke="#5a9fd4" stroke-width="2" points="1245.75,-378.88 1249.25,-388.88 1252.75,-378.88 1245.75,-378.88"/>
</g>
<!-- coreops&#45;&gt;filesystem -->
<g id="edge11" class="edge">
<title>coreops&#45;&gt;filesystem</title>
<path fill="none" stroke="#5a9fd4" stroke-width="2" d="M1558.47,-236.75C1522.14,-236.75 1484.94,-236.75 1484.94,-236.75 1484.94,-236.75 1484.94,-378.88 1484.94,-378.88"/>
<polygon fill="#5a9fd4" stroke="#5a9fd4" stroke-width="2" points="1481.44,-378.88 1484.94,-388.88 1488.44,-378.88 1481.44,-378.88"/>
</g>
<!-- coreops&#45;&gt;queryparser -->
<g id="edge12" class="edge">
<title>coreops&#45;&gt;queryparser</title>
<path fill="none" stroke="#5a9fd4" stroke-width="2" d="M1627,-225.53C1627,-206.02 1627,-168.75 1627,-168.75 1627,-168.75 928.31,-168.75 928.31,-168.75 928.31,-168.75 928.31,-212.5 928.31,-212.5"/>
<polygon fill="#5a9fd4" stroke="#5a9fd4" stroke-width="2" points="924.81,-212.5 928.31,-222.5 931.81,-212.5 924.81,-212.5"/>
</g>
<!-- docops -->
<g id="node13" class="node">
<title>docops</title>
<polygon fill="#ffffff" stroke="black" points="311,-248.25 145,-248.25 145,-226 311,-226 311,-248.25"/>
<text text-anchor="middle" x="228" y="-232.85" font-family="Arial" font-size="12.00">@mmt/document&#45;operations</text>
</g>
<!-- docops&#45;&gt;entities -->
<g id="edge13" class="edge">
<title>docops&#45;&gt;entities</title>
<path fill="none" stroke="#6aaec6" stroke-width="2" d="M269.5,-248.68C269.5,-285.51 269.5,-397.75 269.5,-397.75 269.5,-397.75 1127.43,-397.75 1127.43,-397.75"/>
<polygon fill="#6aaec6" stroke="#6aaec6" stroke-width="2" points="1127.43,-401.25 1137.43,-397.75 1127.43,-394.25 1127.43,-401.25"/>
</g>
<!-- docops&#45;&gt;filesystem -->
<g id="edge14" class="edge">
<title>docops&#45;&gt;filesystem</title>
<path fill="none" stroke="#6aaec6" stroke-width="2" d="M186.5,-248.61C186.5,-271.32 186.5,-319.75 186.5,-319.75 186.5,-319.75 1352.92,-319.75 1352.92,-319.75 1352.92,-319.75 1352.92,-379.11 1352.92,-379.11"/>
<polygon fill="#6aaec6" stroke="#6aaec6" stroke-width="2" points="1349.42,-379.11 1352.92,-389.11 1356.42,-379.11 1349.42,-379.11"/>
</g>
<!-- docops&#45;&gt;indexer -->
<g id="edge15" class="edge">
<title>docops&#45;&gt;indexer</title>
<path fill="none" stroke="#6aaec6" stroke-width="2" d="M228,-248.46C228,-258.56 228,-271.75 228,-271.75 228,-271.75 1804.69,-271.75 1804.69,-271.75 1804.69,-271.75 1804.69,-261.49 1804.69,-261.49"/>
<polygon fill="#6aaec6" stroke="#6aaec6" stroke-width="2" points="1808.19,-261.49 1804.69,-251.49 1801.19,-261.49 1808.19,-261.49"/>
</g>
<!-- scripting -->
<g id="node14" class="node">
<title>scripting</title>
<polygon fill="#ffffff" stroke="black" points="885.25,-82 786.75,-82 786.75,-59.75 885.25,-59.75 885.25,-82"/>
<text text-anchor="middle" x="836" y="-66.6" font-family="Arial" font-size="12.00">@mmt/scripting</text>
</g>
<!-- scripting&#45;&gt;entities -->
<g id="edge16" class="edge">
<title>scripting&#45;&gt;entities</title>
<path fill="none" stroke="#7abdb8" stroke-width="2" d="M810,-82.47C810,-140.52 810,-396.75 810,-396.75 810,-396.75 1127.29,-396.75 1127.29,-396.75"/>
<polygon fill="#7abdb8" stroke="#7abdb8" stroke-width="2" points="1127.29,-400.25 1137.29,-396.75 1127.29,-393.25 1127.29,-400.25"/>
</g>
<!-- scripting&#45;&gt;filesystem -->
<g id="edge17" class="edge">
<title>scripting&#45;&gt;filesystem</title>
<path fill="none" stroke="#7abdb8" stroke-width="2" d="M833.25,-82.34C833.25,-128.16 833.25,-295.75 833.25,-295.75 833.25,-295.75 1356.83,-295.75 1356.83,-295.75 1356.83,-295.75 1356.83,-378.78 1356.83,-378.78"/>
<polygon fill="#7abdb8" stroke="#7abdb8" stroke-width="2" points="1353.33,-378.78 1356.83,-388.78 1360.33,-378.78 1353.33,-378.78"/>
</g>
<!-- scripting&#45;&gt;queryparser -->
<g id="edge18" class="edge">
<title>scripting&#45;&gt;queryparser</title>
<path fill="none" stroke="#7abdb8" stroke-width="2" d="M866.08,-82.3C866.08,-82.3 866.08,-212.59 866.08,-212.59"/>
<polygon fill="#7abdb8" stroke="#7abdb8" stroke-width="2" points="862.58,-212.59 866.08,-222.59 869.58,-212.59 862.58,-212.59"/>
</g>
<!-- scripting&#45;&gt;indexer -->
<g id="edge19" class="edge">
<title>scripting&#45;&gt;indexer</title>
<path fill="none" stroke="#7abdb8" stroke-width="2" d="M875.67,-82.19C875.67,-93.98 875.67,-110.75 875.67,-110.75 875.67,-110.75 1828,-110.75 1828,-110.75 1828,-110.75 1828,-212.88 1828,-212.88"/>
<polygon fill="#7abdb8" stroke="#7abdb8" stroke-width="2" points="1824.5,-212.88 1828,-222.88 1831.5,-212.88 1824.5,-212.88"/>
</g>
<!-- scripting&#45;&gt;docops -->
<g id="edge20" class="edge">
<title>scripting&#45;&gt;docops</title>
<path fill="none" stroke="#7abdb8" stroke-width="2" d="M786.44,-70.75C756.07,-70.75 723,-70.75 723,-70.75 723,-70.75 723,-236.75 723,-236.75 723,-236.75 324.44,-236.75 324.44,-236.75"/>
<polygon fill="#7abdb8" stroke="#7abdb8" stroke-width="2" points="324.44,-233.25 314.44,-236.75 324.44,-240.25 324.44,-233.25"/>
</g>
<!-- cli -->
<g id="node15" class="node">
<title>cli</title>
<polygon fill="#ffffff" stroke="black" points="1022.62,-82 971.38,-82 971.38,-59.75 1022.62,-59.75 1022.62,-82"/>
<text text-anchor="middle" x="997" y="-66.6" font-family="Arial" font-size="12.00">app:cli</text>
</g>
<!-- cli&#45;&gt;entities -->
<g id="edge21" class="edge">
<title>cli&#45;&gt;entities</title>
<path fill="none" stroke="#7abdb8" stroke-width="2" d="M1000.06,-82.37C1000.06,-139.88 1000.06,-393.75 1000.06,-393.75 1000.06,-393.75 1127.29,-393.75 1127.29,-393.75"/>
<polygon fill="#7abdb8" stroke="#7abdb8" stroke-width="2" points="1127.29,-397.25 1137.29,-393.75 1127.29,-390.25 1127.29,-397.25"/>
</g>
<!-- cli&#45;&gt;filesystem -->
<g id="edge22" class="edge">
<title>cli&#45;&gt;filesystem</title>
<path fill="none" stroke="#7abdb8" stroke-width="2" d="M1023.07,-70.75C1112.89,-70.75 1403.94,-70.75 1403.94,-70.75 1403.94,-70.75 1403.94,-379.21 1403.94,-379.21"/>
<polygon fill="#7abdb8" stroke="#7abdb8" stroke-width="2" points="1400.44,-379.21 1403.94,-389.21 1407.44,-379.21 1400.44,-379.21"/>
</g>
<!-- cli&#45;&gt;config -->
<g id="edge24" class="edge">
<title>cli&#45;&gt;config</title>
<path fill="none" stroke="#7abdb8" stroke-width="2" d="M1011.34,-82.33C1011.34,-119.4 1011.34,-233.75 1011.34,-233.75 1011.34,-233.75 1049.8,-233.75 1049.8,-233.75"/>
<polygon fill="#7abdb8" stroke="#7abdb8" stroke-width="2" points="1049.8,-237.25 1059.8,-233.75 1049.8,-230.25 1049.8,-237.25"/>
</g>
<!-- cli&#45;&gt;queryparser -->
<g id="edge23" class="edge">
<title>cli&#45;&gt;queryparser</title>
<path fill="none" stroke="#7abdb8" stroke-width="2" d="M988.78,-82.28C988.78,-120.37 988.78,-240.75 988.78,-240.75 988.78,-240.75 987.69,-240.75 987.69,-240.75"/>
<polygon fill="#7abdb8" stroke="#7abdb8" stroke-width="2" points="990.91,-237.25 980.91,-240.75 990.91,-244.25 990.91,-237.25"/>
</g>
<!-- cli&#45;&gt;scripting -->
<g id="edge25" class="edge">
<title>cli&#45;&gt;scripting</title>
<path fill="none" stroke="#7abdb8" stroke-width="2" d="M971.13,-70.75C971.13,-70.75 898.54,-70.75 898.54,-70.75"/>
<polygon fill="#7abdb8" stroke="#7abdb8" stroke-width="2" points="898.54,-67.25 888.54,-70.75 898.54,-74.25 898.54,-67.25"/>
</g>
</g>
</svg>
