<?xml version="1.0" encoding="UTF-8" standalone="no"?>
<!DOCTYPE svg PUBLIC "-//W3C//DTD SVG 1.1//EN"
 "http://www.w3.org/Graphics/SVG/1.1/DTD/svg11.dtd">
<!-- Generated by graphviz version 12.2.1 (20241206.2353)
 -->
<!-- Title: PackageLayers Pages: 1 -->
<svg width="1871pt" height="1096pt"
 viewBox="0.00 0.00 1871.34 1095.75" xmlns="http://www.w3.org/2000/svg" xmlns:xlink="http://www.w3.org/1999/xlink">
<g id="graph0" class="graph" transform="scale(1 1) rotate(0) translate(4 1091.75)">
<title>PackageLayers</title>
<polygon fill="white" stroke="none" points="-4,4 -4,-1091.75 1867.34,-1091.75 1867.34,4 -4,4"/>
<g id="clust1" class="cluster">
<title>cluster_0</title>
<polygon fill="#e8f4fd" stroke="#1f77b4" points="242,-8 242,-129.35 786,-129.35 786,-8 242,-8"/>
<text text-anchor="middle" x="514" y="-14.45" font-family="Arial Bold" font-size="14.00">Layer 0: Core (No dependencies)</text>
</g>
<g id="clust3" class="cluster">
<title>cluster_1</title>
<polygon fill="#d4e8fc" stroke="#1f77b4" points="8,-245.6 8,-366.95 732,-366.95 732,-245.6 8,-245.6"/>
<text text-anchor="middle" x="370" y="-252.05" font-family="Arial Bold" font-size="14.00">Layer 1: Foundation</text>
</g>
<g id="clust5" class="cluster">
<title>cluster_2</title>
<polygon fill="#c0dcfb" stroke="#1f77b4" points="8,-483.2 8,-604.55 480,-604.55 480,-483.2 8,-483.2"/>
<text text-anchor="middle" x="244" y="-489.65" font-family="Arial Bold" font-size="14.00">Layer 2: Services</text>
</g>
<g id="clust7" class="cluster">
<title>cluster_3</title>
<polygon fill="#acd0fa" stroke="#1f77b4" points="242,-720.8 242,-842.15 498,-842.15 498,-720.8 242,-720.8"/>
<text text-anchor="middle" x="370" y="-727.25" font-family="Arial Bold" font-size="14.00">Layer 3: Operations</text>
</g>
<g id="clust9" class="cluster">
<title>cluster_4</title>
<polygon fill="#98c4f9" stroke="#1f77b4" points="134,-958.4 134,-1079.75 606,-1079.75 606,-958.4 134,-958.4"/>
<text text-anchor="middle" x="370" y="-964.85" font-family="Arial Bold" font-size="14.00">Layer 4: Applications</text>
</g>
<!-- entities -->
<g id="node1" class="node">
<title>entities</title>
<path fill="#ffffff" stroke="black" d="M466,-109.35C466,-109.35 274,-109.35 274,-109.35 268,-109.35 262,-103.35 262,-97.35 262,-97.35 262,-63.75 262,-63.75 262,-57.75 268,-51.75 274,-51.75 274,-51.75 466,-51.75 466,-51.75 472,-51.75 478,-57.75 478,-63.75 478,-63.75 478,-97.35 478,-97.35 478,-103.35 472,-109.35 466,-109.35"/>
<text text-anchor="middle" x="370" y="-83.6" font-family="Arial" font-size="11.00">@mmt/entities</text>
<text text-anchor="middle" x="370" y="-70.1" font-family="Arial" font-size="11.00">(schemas/contracts)</text>
</g>
<!-- config -->
<g id="node3" class="node">
<title>config</title>
<path fill="#ffffff" stroke="black" d="M196,-346.95C196,-346.95 40,-346.95 40,-346.95 34,-346.95 28,-340.95 28,-334.95 28,-334.95 28,-301.35 28,-301.35 28,-295.35 34,-289.35 40,-289.35 40,-289.35 196,-289.35 196,-289.35 202,-289.35 208,-295.35 208,-301.35 208,-301.35 208,-334.95 208,-334.95 208,-340.95 202,-346.95 196,-346.95"/>
<text text-anchor="middle" x="118" y="-314.45" font-family="Arial" font-size="11.00">@mmt/config</text>
</g>
<!-- entities&#45;&gt;config -->
<!-- queryparser -->
<g id="node4" class="node">
<title>queryparser</title>
<path fill="#ffffff" stroke="black" d="M448,-346.95C448,-346.95 292,-346.95 292,-346.95 286,-346.95 280,-340.95 280,-334.95 280,-334.95 280,-301.35 280,-301.35 280,-295.35 286,-289.35 292,-289.35 292,-289.35 448,-289.35 448,-289.35 454,-289.35 460,-295.35 460,-301.35 460,-301.35 460,-334.95 460,-334.95 460,-340.95 454,-346.95 448,-346.95"/>
<text text-anchor="middle" x="370" y="-314.45" font-family="Arial" font-size="11.00">@mmt/query&#45;parser</text>
</g>
<!-- entities&#45;&gt;queryparser -->
<!-- documentset -->
<g id="node5" class="node">
<title>documentset</title>
<path fill="#ffffff" stroke="black" d="M700,-346.95C700,-346.95 544,-346.95 544,-346.95 538,-346.95 532,-340.95 532,-334.95 532,-334.95 532,-301.35 532,-301.35 532,-295.35 538,-289.35 544,-289.35 544,-289.35 700,-289.35 700,-289.35 706,-289.35 712,-295.35 712,-301.35 712,-301.35 712,-334.95 712,-334.95 712,-340.95 706,-346.95 700,-346.95"/>
<text text-anchor="middle" x="622" y="-314.45" font-family="Arial" font-size="11.00">@mmt/document&#45;set</text>
</g>
<!-- entities&#45;&gt;documentset -->
<!-- filesystem -->
<g id="node2" class="node">
<title>filesystem</title>
<path fill="#ffffff" stroke="black" d="M754,-109.35C754,-109.35 562,-109.35 562,-109.35 556,-109.35 550,-103.35 550,-97.35 550,-97.35 550,-63.75 550,-63.75 550,-57.75 556,-51.75 562,-51.75 562,-51.75 754,-51.75 754,-51.75 760,-51.75 766,-57.75 766,-63.75 766,-63.75 766,-97.35 766,-97.35 766,-103.35 760,-109.35 754,-109.35"/>
<text text-anchor="middle" x="658" y="-83.6" font-family="Arial" font-size="11.00">@mmt/filesystem&#45;access</text>
<text text-anchor="middle" x="658" y="-70.1" font-family="Arial" font-size="11.00">(file system abstraction)</text>
</g>
<!-- config&#45;&gt;entities -->
<g id="edge10" class="edge">
<title>config&#45;&gt;entities</title>
<path fill="none" stroke="#4a90e2" stroke-width="1.5" d="M129.9,-288.93C164.89,-245.9 252.01,-163.93 312.16,-116.96"/>
<polygon fill="#4a90e2" stroke="#4a90e2" stroke-width="1.5" points="313.97,-119.98 319.77,-111.12 309.71,-114.43 313.97,-119.98"/>
</g>
<!-- indexer -->
<g id="node6" class="node">
<title>indexer</title>
<path fill="#ffffff" stroke="black" d="M196,-584.55C196,-584.55 40,-584.55 40,-584.55 34,-584.55 28,-578.55 28,-572.55 28,-572.55 28,-538.95 28,-538.95 28,-532.95 34,-526.95 40,-526.95 40,-526.95 196,-526.95 196,-526.95 202,-526.95 208,-532.95 208,-538.95 208,-538.95 208,-572.55 208,-572.55 208,-578.55 202,-584.55 196,-584.55"/>
<text text-anchor="middle" x="118" y="-552.05" font-family="Arial" font-size="11.00">@mmt/indexer</text>
</g>
<!-- config&#45;&gt;indexer -->
<!-- queryparser&#45;&gt;entities -->
<g id="edge11" class="edge">
<title>queryparser&#45;&gt;entities</title>
<path fill="none" stroke="#4a90e2" stroke-width="1.5" d="M351.7,-288.87C341.03,-247.16 340.17,-168.99 349.14,-121.46"/>
<polygon fill="#4a90e2" stroke="#4a90e2" stroke-width="1.5" points="352.56,-122.24 351.29,-111.72 345.72,-120.73 352.56,-122.24"/>
</g>
<!-- coreops -->
<g id="node7" class="node">
<title>coreops</title>
<path fill="#ffffff" stroke="black" d="M448,-584.55C448,-584.55 292,-584.55 292,-584.55 286,-584.55 280,-578.55 280,-572.55 280,-572.55 280,-538.95 280,-538.95 280,-532.95 286,-526.95 292,-526.95 292,-526.95 448,-526.95 448,-526.95 454,-526.95 460,-532.95 460,-538.95 460,-538.95 460,-572.55 460,-572.55 460,-578.55 454,-584.55 448,-584.55"/>
<text text-anchor="middle" x="370" y="-552.05" font-family="Arial" font-size="11.00">@mmt/core&#45;operations</text>
</g>
<!-- queryparser&#45;&gt;coreops -->
<!-- documentset&#45;&gt;entities -->
<g id="edge12" class="edge">
<title>documentset&#45;&gt;entities</title>
<path fill="none" stroke="#4a90e2" stroke-width="1.5" d="M573.45,-288.87C517.11,-246.36 430.45,-165.98 389.47,-118.76"/>
<polygon fill="#4a90e2" stroke="#4a90e2" stroke-width="1.5" points="392.26,-116.64 383.14,-111.24 386.9,-121.14 392.26,-116.64"/>
</g>
<!-- indexer&#45;&gt;entities -->
<g id="edge13" class="edge">
<title>indexer&#45;&gt;entities</title>
<path fill="none" stroke="#5a9fd4" stroke-width="1.5" d="M160.48,-526.5C184.21,-511.79 214.81,-494.56 244,-483.2 459.04,-399.51 606.26,-547.46 750,-366.95 783.6,-324.76 779.63,-290.67 750,-245.6 732.93,-219.64 565.49,-153.88 458.64,-113.95"/>
<polygon fill="#5a9fd4" stroke="#5a9fd4" stroke-width="1.5" points="459.94,-110.69 449.34,-110.48 457.49,-117.25 459.94,-110.69"/>
</g>
<!-- indexer&#45;&gt;filesystem -->
<g id="edge14" class="edge">
<title>indexer&#45;&gt;filesystem</title>
<path fill="none" stroke="#5a9fd4" stroke-width="1.5" d="M159.8,-526.56C183.58,-511.68 214.43,-494.27 244,-483.2 487.35,-392.07 652.53,-568.13 817,-366.95 883.09,-286.11 771.91,-173.95 704.23,-117.32"/>
<polygon fill="#5a9fd4" stroke="#5a9fd4" stroke-width="1.5" points="706.69,-114.81 696.75,-111.15 702.24,-120.21 706.69,-114.81"/>
</g>
<!-- docops -->
<g id="node8" class="node">
<title>docops</title>
<path fill="#ffffff" stroke="black" d="M466,-822.15C466,-822.15 274,-822.15 274,-822.15 268,-822.15 262,-816.15 262,-810.15 262,-810.15 262,-776.55 262,-776.55 262,-770.55 268,-764.55 274,-764.55 274,-764.55 466,-764.55 466,-764.55 472,-764.55 478,-770.55 478,-776.55 478,-776.55 478,-810.15 478,-810.15 478,-816.15 472,-822.15 466,-822.15"/>
<text text-anchor="middle" x="370" y="-789.65" font-family="Arial" font-size="11.00">@mmt/document&#45;operations</text>
</g>
<!-- indexer&#45;&gt;docops -->
<!-- coreops&#45;&gt;entities -->
<g id="edge15" class="edge">
<title>coreops&#45;&gt;entities</title>
<path fill="none" stroke="#5a9fd4" stroke-width="1.5" d="M460.28,-538.56C635.58,-503.12 994.8,-408.53 876,-245.6 776.44,-109.06 674.63,-181.8 514,-129.35 498.48,-124.28 482.04,-118.87 466.04,-113.57"/>
<polygon fill="#5a9fd4" stroke="#5a9fd4" stroke-width="1.5" points="467.22,-110.28 456.63,-110.46 465.02,-116.92 467.22,-110.28"/>
</g>
<!-- coreops&#45;&gt;filesystem -->
<g id="edge16" class="edge">
<title>coreops&#45;&gt;filesystem</title>
<path fill="none" stroke="#5a9fd4" stroke-width="1.5" d="M460.22,-538.39C606.67,-509.8 885.61,-446.16 943,-366.95 974.65,-323.28 970,-292.29 943,-245.6 905.46,-180.68 831.4,-139.19 768.19,-114.18"/>
<polygon fill="#5a9fd4" stroke="#5a9fd4" stroke-width="1.5" points="769.64,-110.98 759.05,-110.66 767.13,-117.52 769.64,-110.98"/>
</g>
<!-- coreops&#45;&gt;queryparser -->
<g id="edge17" class="edge">
<title>coreops&#45;&gt;queryparser</title>
<path fill="none" stroke="#5a9fd4" stroke-width="1.5" d="M351.7,-526.47C341.03,-484.76 340.17,-406.59 349.14,-359.06"/>
<polygon fill="#5a9fd4" stroke="#5a9fd4" stroke-width="1.5" points="352.56,-359.84 351.29,-349.32 345.72,-358.33 352.56,-359.84"/>
</g>
<!-- coreops&#45;&gt;docops -->
<!-- docops&#45;&gt;entities -->
<g id="edge18" class="edge">
<title>docops&#45;&gt;entities</title>
<path fill="none" stroke="#6aaec6" stroke-width="1.5" d="M445.68,-764.09C637.47,-688.3 1115.43,-470.97 943,-245.6 822.96,-88.71 703.15,-186.32 514,-129.35 497.71,-124.44 480.47,-118.97 463.8,-113.53"/>
<polygon fill="#6aaec6" stroke="#6aaec6" stroke-width="1.5" points="465.12,-110.28 454.53,-110.48 462.93,-116.93 465.12,-110.28"/>
</g>
<!-- docops&#45;&gt;filesystem -->
<g id="edge19" class="edge">
<title>docops&#45;&gt;filesystem</title>
<path fill="none" stroke="#6aaec6" stroke-width="1.5" d="M478.28,-778.95C595.49,-759.31 781.72,-712.49 902,-604.55 989.17,-526.32 990.02,-481.16 1016,-366.95 1027.96,-314.36 1045.13,-290.99 1016,-245.6 963.86,-164.35 860.32,-122.82 777.94,-101.92"/>
<polygon fill="#6aaec6" stroke="#6aaec6" stroke-width="1.5" points="778.96,-98.56 768.41,-99.58 777.29,-105.36 778.96,-98.56"/>
</g>
<!-- docops&#45;&gt;indexer -->
<g id="edge20" class="edge">
<title>docops&#45;&gt;indexer</title>
<path fill="none" stroke="#6aaec6" stroke-width="1.5" d="M321.45,-764.07C265.11,-721.56 178.45,-641.18 137.47,-593.96"/>
<polygon fill="#6aaec6" stroke="#6aaec6" stroke-width="1.5" points="140.26,-591.84 131.14,-586.44 134.9,-596.34 140.26,-591.84"/>
</g>
<!-- scripting -->
<g id="node9" class="node">
<title>scripting</title>
<path fill="#ffffff" stroke="black" d="M322,-1059.75C322,-1059.75 166,-1059.75 166,-1059.75 160,-1059.75 154,-1053.75 154,-1047.75 154,-1047.75 154,-1014.15 154,-1014.15 154,-1008.15 160,-1002.15 166,-1002.15 166,-1002.15 322,-1002.15 322,-1002.15 328,-1002.15 334,-1008.15 334,-1014.15 334,-1014.15 334,-1047.75 334,-1047.75 334,-1053.75 328,-1059.75 322,-1059.75"/>
<text text-anchor="middle" x="244" y="-1027.25" font-family="Arial" font-size="11.00">@mmt/scripting</text>
</g>
<!-- docops&#45;&gt;scripting -->
<!-- cli -->
<g id="node10" class="node">
<title>cli</title>
<path fill="#ffffff" stroke="black" d="M574,-1059.75C574,-1059.75 418,-1059.75 418,-1059.75 412,-1059.75 406,-1053.75 406,-1047.75 406,-1047.75 406,-1014.15 406,-1014.15 406,-1008.15 412,-1002.15 418,-1002.15 418,-1002.15 574,-1002.15 574,-1002.15 580,-1002.15 586,-1008.15 586,-1014.15 586,-1014.15 586,-1047.75 586,-1047.75 586,-1053.75 580,-1059.75 574,-1059.75"/>
<text text-anchor="middle" x="496" y="-1027.25" font-family="Arial" font-size="11.00">app:cli</text>
</g>
<!-- docops&#45;&gt;cli -->
<!-- scripting&#45;&gt;entities -->
<g id="edge21" class="edge">
<title>scripting&#45;&gt;entities</title>
<path fill="none" stroke="#7abdb8" stroke-width="1.5" d="M290.53,-1001.71C313.99,-987.94 343.11,-971.56 370,-958.4 491.04,-899.19 536.91,-915.4 650,-842.15 873.75,-697.23 956.87,-626.89 1016,-366.95 1027.96,-314.36 1049.56,-287.82 1016,-245.6 873.49,-66.32 734.47,-191.32 514,-129.35 497.05,-124.58 479.13,-119.05 461.9,-113.47"/>
<polygon fill="#7abdb8" stroke="#7abdb8" stroke-width="1.5" points="463.45,-110.29 452.86,-110.51 461.27,-116.95 463.45,-110.29"/>
</g>
<!-- scripting&#45;&gt;filesystem -->
<g id="edge22" class="edge">
<title>scripting&#45;&gt;filesystem</title>
<path fill="none" stroke="#7abdb8" stroke-width="1.5" d="M287.55,-1001.69C311.22,-987.26 341.43,-970.27 370,-958.4 548.07,-884.4 623.14,-942.16 788,-842.15 911.56,-767.19 938.32,-730.04 1010,-604.55 1018.63,-589.43 1137.42,-329.53 1080,-245.6 1012.82,-147.41 877.58,-107.98 778.23,-92.16"/>
<polygon fill="#7abdb8" stroke="#7abdb8" stroke-width="1.5" points="778.96,-88.73 768.54,-90.68 777.9,-95.65 778.96,-88.73"/>
</g>
<!-- scripting&#45;&gt;queryparser -->
<g id="edge23" class="edge">
<title>scripting&#45;&gt;queryparser</title>
<path fill="none" stroke="#7abdb8" stroke-width="1.5" d="M293.29,-1001.77C316.52,-988.53 344.64,-972.58 370,-958.4 463.44,-906.13 526.54,-934.33 581,-842.15 681.77,-671.58 491.43,-443.92 407.21,-355.97"/>
<polygon fill="#7abdb8" stroke="#7abdb8" stroke-width="1.5" points="409.73,-353.55 400.26,-348.8 404.7,-358.42 409.73,-353.55"/>
</g>
<!-- scripting&#45;&gt;indexer -->
<g id="edge24" class="edge">
<title>scripting&#45;&gt;indexer</title>
<path fill="none" stroke="#7abdb8" stroke-width="1.5" d="M289.61,-1001.74C363.77,-955.4 503.52,-865.94 516,-842.15 541.06,-794.39 546,-765.62 516,-720.8 506.75,-706.98 317.8,-633.01 203.62,-589.26"/>
<polygon fill="#7abdb8" stroke="#7abdb8" stroke-width="1.5" points="205.18,-586.11 194.59,-585.8 202.68,-592.65 205.18,-586.11"/>
</g>
<!-- scripting&#45;&gt;docops -->
<g id="edge25" class="edge">
<title>scripting&#45;&gt;docops</title>
<path fill="none" stroke="#7abdb8" stroke-width="1.5" d="M240.82,-1001.67C252.65,-959.25 294.82,-879.11 329.55,-831.86"/>
<polygon fill="#7abdb8" stroke="#7abdb8" stroke-width="1.5" points="332.18,-834.18 335.46,-824.11 326.61,-829.94 332.18,-834.18"/>
</g>
<!-- cli&#45;&gt;entities -->
<g id="edge26" class="edge">
<title>cli&#45;&gt;entities</title>
<path fill="none" stroke="#7abdb8" stroke-width="1.5" d="M586.48,-1023.19C862.13,-1001.67 1677.46,-930.96 1754,-842.15 1789.21,-801.29 1778.83,-768.68 1754,-720.8 1585.29,-395.42 1416.39,-391.14 1080,-245.6 844.31,-143.63 762.07,-195.75 514,-129.35 496.76,-124.73 478.55,-119.21 461.11,-113.59"/>
<polygon fill="#7abdb8" stroke="#7abdb8" stroke-width="1.5" points="462.22,-110.27 451.63,-110.49 460.05,-116.93 462.22,-110.27"/>
</g>
<!-- cli&#45;&gt;filesystem -->
<g id="edge27" class="edge">
<title>cli&#45;&gt;filesystem</title>
<path fill="none" stroke="#7abdb8" stroke-width="1.5" d="M586.14,-1023.91C871.13,-1003.92 1738.72,-935.78 1820,-842.15 1931.74,-713.44 1804.55,-604.68 1685,-483.2 1430.6,-224.69 990.3,-128.83 778.56,-96.46"/>
<polygon fill="#7abdb8" stroke="#7abdb8" stroke-width="1.5" points="779.14,-93.01 768.73,-94.98 778.1,-99.93 779.14,-93.01"/>
</g>
<!-- cli&#45;&gt;config -->
<g id="edge29" class="edge">
<title>cli&#45;&gt;config</title>
<path fill="none" stroke="#7abdb8" stroke-width="1.5" d="M513.44,-1001.68C534.31,-966.04 568.05,-902.15 581,-842.15 615.54,-682.09 609.57,-603.05 498,-483.2 476.68,-460.3 308.51,-392.64 203.15,-351.71"/>
<polygon fill="#7abdb8" stroke="#7abdb8" stroke-width="1.5" points="204.6,-348.52 194.01,-348.17 202.07,-355.05 204.6,-348.52"/>
</g>
<!-- cli&#45;&gt;queryparser -->
<g id="edge28" class="edge">
<title>cli&#45;&gt;queryparser</title>
<path fill="none" stroke="#7abdb8" stroke-width="1.5" d="M586.36,-1020.16C690.58,-1003.49 857.48,-959.09 935,-842.15 988.73,-761.1 964.24,-519.86 936,-483.2 812.59,-322.95 688.6,-428.74 496,-366.95 481.53,-362.31 466.29,-356.95 451.61,-351.53"/>
<polygon fill="#7abdb8" stroke="#7abdb8" stroke-width="1.5" points="453.23,-348.39 442.64,-348.18 450.78,-354.95 453.23,-348.39"/>
</g>
<!-- cli&#45;&gt;scripting -->
<g id="edge30" class="edge">
<title>cli&#45;&gt;scripting</title>
<path fill="none" stroke="#7abdb8" stroke-width="1.5" d="M405.55,-1030.95C385.72,-1030.95 365.9,-1030.95 346.08,-1030.95"/>
<polygon fill="#7abdb8" stroke="#7abdb8" stroke-width="1.5" points="346.34,-1027.45 336.34,-1030.95 346.34,-1034.45 346.34,-1027.45"/>
</g>
</g>
</svg>
