<?xml version="1.0" encoding="UTF-8" standalone="no"?>
<!DOCTYPE svg PUBLIC "-//W3C//DTD SVG 1.1//EN"
 "http://www.w3.org/Graphics/SVG/1.1/DTD/svg11.dtd">
<!-- Generated by graphviz version 12.2.1 (20241206.2353)
 -->
<!-- Title: PackageLayers Pages: 1 -->
<svg width="1102pt" height="343pt"
 viewBox="0.00 0.00 1102.25 342.75" xmlns="http://www.w3.org/2000/svg" xmlns:xlink="http://www.w3.org/1999/xlink">
<g id="graph0" class="graph" transform="scale(1 1) rotate(0) translate(4 338.75)">
<title>PackageLayers</title>
<polygon fill="white" stroke="none" points="-4,4 -4,-338.75 1098.25,-338.75 1098.25,4 -4,4"/>
<g id="clust1" class="cluster">
<title>cluster_0</title>
<polygon fill="#e8f4fd" stroke="#1f77b4" points="581,-8 581,-87.25 923,-87.25 923,-8 581,-8"/>
<text text-anchor="middle" x="752" y="-69.95" font-family="Arial Bold" font-size="14.00">Layer 0: Core (No dependencies)</text>
</g>
<g id="clust2" class="cluster">
<title>cluster_1</title>
<polygon fill="#d4e8fc" stroke="#1f77b4" points="8,-95.25 8,-171 440,-171 440,-95.25 8,-95.25"/>
<text text-anchor="middle" x="224" y="-153.7" font-family="Arial Bold" font-size="14.00">Layer 1: Foundation</text>
</g>
<g id="clust3" class="cluster">
<title>cluster_2</title>
<polygon fill="#c0dcfb" stroke="#1f77b4" points="448,-95.25 448,-171 744,-171 744,-95.25 448,-95.25"/>
<text text-anchor="middle" x="596" y="-153.7" font-family="Arial Bold" font-size="14.00">Layer 2: Services</text>
</g>
<g id="clust4" class="cluster">
<title>cluster_3</title>
<polygon fill="#acd0fa" stroke="#1f77b4" points="752,-95.25 752,-171 958,-171 958,-95.25 752,-95.25"/>
<text text-anchor="middle" x="855" y="-153.7" font-family="Arial Bold" font-size="14.00">Layer 3: Operations</text>
</g>
<g id="clust5" class="cluster">
<title>cluster_4</title>
<polygon fill="#98c4f9" stroke="#1f77b4" points="779,-179 779,-326.75 930,-326.75 930,-179 779,-179"/>
<text text-anchor="middle" x="854.5" y="-309.45" font-family="Arial Bold" font-size="14.00">Layer 4: Applications</text>
</g>
<!-- entities -->
<g id="node1" class="node">
<title>entities</title>
<path fill="#ffffff" stroke="black" d="M715.12,-55.5C715.12,-55.5 600.88,-55.5 600.88,-55.5 594.88,-55.5 588.88,-49.5 588.88,-43.5 588.88,-43.5 588.88,-28 588.88,-28 588.88,-22 594.88,-16 600.88,-16 600.88,-16 715.12,-16 715.12,-16 721.12,-16 727.12,-22 727.12,-28 727.12,-28 727.12,-43.5 727.12,-43.5 727.12,-49.5 721.12,-55.5 715.12,-55.5"/>
<text text-anchor="middle" x="658" y="-38.2" font-family="Arial" font-size="14.00">@mmt/entities</text>
<text text-anchor="middle" x="658" y="-22.45" font-family="Arial" font-size="14.00">(schemas/contracts)</text>
</g>
<!-- filesystem -->
<g id="node2" class="node">
<title>filesystem</title>
<path fill="#ffffff" stroke="black" d="M902.5,-55.5C902.5,-55.5 757.5,-55.5 757.5,-55.5 751.5,-55.5 745.5,-49.5 745.5,-43.5 745.5,-43.5 745.5,-28 745.5,-28 745.5,-22 751.5,-16 757.5,-16 757.5,-16 902.5,-16 902.5,-16 908.5,-16 914.5,-22 914.5,-28 914.5,-28 914.5,-43.5 914.5,-43.5 914.5,-49.5 908.5,-55.5 902.5,-55.5"/>
<text text-anchor="middle" x="830" y="-38.2" font-family="Arial" font-size="14.00">@mmt/filesystem&#45;access</text>
<text text-anchor="middle" x="830" y="-22.45" font-family="Arial" font-size="14.00">(file system abstraction)</text>
</g>
<!-- config -->
<g id="node3" class="node">
<title>config</title>
<path fill="#ffffff" stroke="black" d="M263.88,-139.25C263.88,-139.25 190.12,-139.25 190.12,-139.25 184.12,-139.25 178.12,-133.25 178.12,-127.25 178.12,-127.25 178.12,-115.25 178.12,-115.25 178.12,-109.25 184.12,-103.25 190.12,-103.25 190.12,-103.25 263.88,-103.25 263.88,-103.25 269.88,-103.25 275.88,-109.25 275.88,-115.25 275.88,-115.25 275.88,-127.25 275.88,-127.25 275.88,-133.25 269.88,-139.25 263.88,-139.25"/>
<text text-anchor="middle" x="227" y="-115.83" font-family="Arial" font-size="14.00">@mmt/config</text>
</g>
<!-- config&#45;&gt;entities -->
<g id="edge1" class="edge">
<title>config&#45;&gt;entities</title>
<path fill="none" stroke="#666666" d="M263.62,-102.83C270.61,-99.97 277.94,-97.29 285,-95.25 383.38,-66.82 500.6,-51.31 577.03,-43.53"/>
<polygon fill="#666666" stroke="#666666" points="577.35,-47.01 586.96,-42.54 576.66,-40.05 577.35,-47.01"/>
</g>
<!-- queryparser -->
<g id="node4" class="node">
<title>queryparser</title>
<path fill="#ffffff" stroke="black" d="M420.12,-139.25C420.12,-139.25 305.88,-139.25 305.88,-139.25 299.88,-139.25 293.88,-133.25 293.88,-127.25 293.88,-127.25 293.88,-115.25 293.88,-115.25 293.88,-109.25 299.88,-103.25 305.88,-103.25 305.88,-103.25 420.12,-103.25 420.12,-103.25 426.12,-103.25 432.12,-109.25 432.12,-115.25 432.12,-115.25 432.12,-127.25 432.12,-127.25 432.12,-133.25 426.12,-139.25 420.12,-139.25"/>
<text text-anchor="middle" x="363" y="-115.83" font-family="Arial" font-size="14.00">@mmt/query&#45;parser</text>
</g>
<!-- queryparser&#45;&gt;entities -->
<g id="edge2" class="edge">
<title>queryparser&#45;&gt;entities</title>
<path fill="none" stroke="#666666" d="M418.7,-102.8C427.16,-100.22 435.8,-97.63 444,-95.25 487.95,-82.47 537.2,-68.95 577.37,-58.13"/>
<polygon fill="#666666" stroke="#666666" points="578.24,-61.52 586.99,-55.54 576.42,-54.76 578.24,-61.52"/>
</g>
<!-- documentset -->
<g id="node5" class="node">
<title>documentset</title>
<path fill="#ffffff" stroke="black" d="M148.12,-139.25C148.12,-139.25 27.87,-139.25 27.87,-139.25 21.87,-139.25 15.88,-133.25 15.88,-127.25 15.88,-127.25 15.88,-115.25 15.88,-115.25 15.88,-109.25 21.88,-103.25 27.88,-103.25 27.88,-103.25 148.12,-103.25 148.12,-103.25 154.12,-103.25 160.12,-109.25 160.12,-115.25 160.12,-115.25 160.12,-127.25 160.12,-127.25 160.12,-133.25 154.12,-139.25 148.12,-139.25"/>
<text text-anchor="middle" x="88" y="-115.83" font-family="Arial" font-size="14.00">@mmt/document&#45;set</text>
</g>
<!-- documentset&#45;&gt;entities -->
<g id="edge3" class="edge">
<title>documentset&#45;&gt;entities</title>
<path fill="none" stroke="#666666" d="M139.49,-102.84C149.21,-99.99 159.35,-97.3 169,-95.25 311,-65.1 479.73,-49.21 577.28,-41.93"/>
<polygon fill="#666666" stroke="#666666" points="577.3,-45.44 587.01,-41.21 576.78,-38.45 577.3,-45.44"/>
</g>
<!-- indexer -->
<g id="node6" class="node">
<title>indexer</title>
<path fill="#ffffff" stroke="black" d="M550,-139.25C550,-139.25 468,-139.25 468,-139.25 462,-139.25 456,-133.25 456,-127.25 456,-127.25 456,-115.25 456,-115.25 456,-109.25 462,-103.25 468,-103.25 468,-103.25 550,-103.25 550,-103.25 556,-103.25 562,-109.25 562,-115.25 562,-115.25 562,-127.25 562,-127.25 562,-133.25 556,-139.25 550,-139.25"/>
<text text-anchor="middle" x="509" y="-115.83" font-family="Arial" font-size="14.00">@mmt/indexer</text>
</g>
<!-- indexer&#45;&gt;entities -->
<g id="edge4" class="edge">
<title>indexer&#45;&gt;entities</title>
<path fill="none" stroke="#666666" d="M539.87,-102.95C561.28,-90.95 590.1,-74.8 613.92,-61.45"/>
<polygon fill="#666666" stroke="#666666" points="615.45,-64.61 622.47,-56.66 612.03,-58.5 615.45,-64.61"/>
</g>
<!-- indexer&#45;&gt;filesystem -->
<g id="edge5" class="edge">
<title>indexer&#45;&gt;filesystem</title>
<path fill="none" stroke="#666666" d="M546.4,-102.84C554.36,-99.8 562.84,-97.04 571,-95.25 642.72,-79.52 665.25,-106.88 736,-87.25 755.66,-81.79 775.8,-71.68 792.37,-61.94"/>
<polygon fill="#666666" stroke="#666666" points="794.18,-64.93 800.9,-56.75 790.54,-58.96 794.18,-64.93"/>
</g>
<!-- coreops -->
<g id="node7" class="node">
<title>coreops</title>
<path fill="#ffffff" stroke="black" d="M723.75,-139.25C723.75,-139.25 592.25,-139.25 592.25,-139.25 586.25,-139.25 580.25,-133.25 580.25,-127.25 580.25,-127.25 580.25,-115.25 580.25,-115.25 580.25,-109.25 586.25,-103.25 592.25,-103.25 592.25,-103.25 723.75,-103.25 723.75,-103.25 729.75,-103.25 735.75,-109.25 735.75,-115.25 735.75,-115.25 735.75,-127.25 735.75,-127.25 735.75,-133.25 729.75,-139.25 723.75,-139.25"/>
<text text-anchor="middle" x="658" y="-115.83" font-family="Arial" font-size="14.00">@mmt/core&#45;operations</text>
</g>
<!-- coreops&#45;&gt;entities -->
<g id="edge6" class="edge">
<title>coreops&#45;&gt;entities</title>
<path fill="none" stroke="#666666" d="M658,-102.95C658,-92.63 658,-79.24 658,-67.2"/>
<polygon fill="#666666" stroke="#666666" points="661.5,-67.29 658,-57.29 654.5,-67.29 661.5,-67.29"/>
</g>
<!-- coreops&#45;&gt;filesystem -->
<g id="edge7" class="edge">
<title>coreops&#45;&gt;filesystem</title>
<path fill="none" stroke="#666666" d="M701.23,-102.8C712.63,-97.97 724.86,-92.58 736,-87.25 752.58,-79.31 770.44,-69.93 786.09,-61.43"/>
<polygon fill="#666666" stroke="#666666" points="787.6,-64.59 794.69,-56.72 784.24,-58.45 787.6,-64.59"/>
</g>
<!-- coreops&#45;&gt;queryparser -->
<g id="edge8" class="edge">
<title>coreops&#45;&gt;queryparser</title>
<path fill="none" stroke="#666666" d="M627.81,-139.51C611.26,-149.27 590.25,-161.25 571,-171 567.1,-172.98 566.28,-174.09 562,-175 538.31,-180.03 476.69,-180.03 453,-175 431.42,-170.42 410.1,-158.13 393.63,-146.45"/>
<polygon fill="#666666" stroke="#666666" points="395.86,-143.75 385.74,-140.61 391.7,-149.38 395.86,-143.75"/>
</g>
<!-- docops -->
<g id="node8" class="node">
<title>docops</title>
<path fill="#ffffff" stroke="black" d="M937.62,-139.25C937.62,-139.25 772.38,-139.25 772.38,-139.25 766.38,-139.25 760.38,-133.25 760.38,-127.25 760.38,-127.25 760.38,-115.25 760.38,-115.25 760.38,-109.25 766.38,-103.25 772.38,-103.25 772.38,-103.25 937.62,-103.25 937.62,-103.25 943.62,-103.25 949.62,-109.25 949.62,-115.25 949.62,-115.25 949.62,-127.25 949.62,-127.25 949.62,-133.25 943.62,-139.25 937.62,-139.25"/>
<text text-anchor="middle" x="855" y="-115.83" font-family="Arial" font-size="14.00">@mmt/document&#45;operations</text>
</g>
<!-- docops&#45;&gt;entities -->
<g id="edge9" class="edge">
<title>docops&#45;&gt;entities</title>
<path fill="none" stroke="#666666" d="M779.86,-102.84C765.36,-98.48 750.49,-93.29 737,-87.25 721.82,-80.46 706.16,-71.04 692.84,-62.17"/>
<polygon fill="#666666" stroke="#666666" points="695.07,-59.46 684.84,-56.72 691.13,-65.24 695.07,-59.46"/>
</g>
<!-- docops&#45;&gt;filesystem -->
<g id="edge10" class="edge">
<title>docops&#45;&gt;filesystem</title>
<path fill="none" stroke="#666666" d="M849.82,-102.95C846.67,-92.42 842.55,-78.68 838.89,-66.45"/>
<polygon fill="#666666" stroke="#666666" points="842.35,-65.8 836.13,-57.23 835.65,-67.81 842.35,-65.8"/>
</g>
<!-- docops&#45;&gt;indexer -->
<g id="edge11" class="edge">
<title>docops&#45;&gt;indexer</title>
<path fill="none" stroke="#666666" d="M825.3,-139.57C802.61,-152.41 770.05,-168.41 739,-175 721.72,-178.67 597.28,-178.67 580,-175 561.94,-171.17 545.27,-159.21 532.64,-147.55"/>
<polygon fill="#666666" stroke="#666666" points="535.23,-145.19 525.64,-140.68 530.33,-150.18 535.23,-145.19"/>
</g>
<!-- scripting -->
<g id="node9" class="node">
<title>scripting</title>
<path fill="#ffffff" stroke="black" d="M899,-223C899,-223 811,-223 811,-223 805,-223 799,-217 799,-211 799,-211 799,-199 799,-199 799,-193 805,-187 811,-187 811,-187 899,-187 899,-187 905,-187 911,-193 911,-199 911,-199 911,-211 911,-211 911,-217 905,-223 899,-223"/>
<text text-anchor="middle" x="855" y="-199.57" font-family="Arial" font-size="14.00">@mmt/scripting</text>
</g>
<!-- scripting&#45;&gt;entities -->
<g id="edge12" class="edge">
<title>scripting&#45;&gt;entities</title>
<path fill="none" stroke="#666666" d="M911.23,-199.99C930.47,-195.6 950.11,-187.11 962,-171 981.99,-143.91 985.38,-119.48 962,-95.25 953.31,-86.25 748.94,-90.97 737,-87.25 720.08,-81.98 703.26,-72.05 689.52,-62.39"/>
<polygon fill="#666666" stroke="#666666" points="691.89,-59.79 681.76,-56.7 687.75,-65.43 691.89,-59.79"/>
</g>
<!-- scripting&#45;&gt;filesystem -->
<g id="edge13" class="edge">
<title>scripting&#45;&gt;filesystem</title>
<path fill="none" stroke="#666666" d="M911.41,-197.49C944.52,-192.38 981.82,-183.92 992,-171 1012.83,-144.55 1011.35,-122.8 992,-95.25 976.29,-72.88 951.15,-59.03 925.31,-50.46"/>
<polygon fill="#666666" stroke="#666666" points="926.65,-47.21 916.06,-47.65 924.61,-53.91 926.65,-47.21"/>
</g>
<!-- scripting&#45;&gt;queryparser -->
<g id="edge14" class="edge">
<title>scripting&#45;&gt;queryparser</title>
<path fill="none" stroke="#666666" d="M798.63,-198.31C743.27,-192.86 656.38,-184.64 581,-179 550.59,-176.73 473.13,-180.01 444,-171 426.42,-165.56 408.7,-155.53 394.34,-145.98"/>
<polygon fill="#666666" stroke="#666666" points="396.43,-143.18 386.22,-140.37 392.45,-148.93 396.43,-143.18"/>
</g>
<!-- scripting&#45;&gt;indexer -->
<g id="edge15" class="edge">
<title>scripting&#45;&gt;indexer</title>
<path fill="none" stroke="#666666" d="M798.54,-201.08C727.78,-196.79 610.93,-187.46 571,-171 557.55,-165.46 544.58,-156.12 534.02,-147.09"/>
<polygon fill="#666666" stroke="#666666" points="536.65,-144.75 526.88,-140.68 531.98,-149.96 536.65,-144.75"/>
</g>
<!-- scripting&#45;&gt;docops -->
<g id="edge16" class="edge">
<title>scripting&#45;&gt;docops</title>
<path fill="none" stroke="#666666" d="M855,-186.66C855,-176.26 855,-162.77 855,-150.82"/>
<polygon fill="#666666" stroke="#666666" points="858.5,-151.08 855,-141.08 851.5,-151.08 858.5,-151.08"/>
</g>
<!-- cli -->
<g id="node10" class="node">
<title>cli</title>
<path fill="#ffffff" stroke="black" d="M870.5,-295C870.5,-295 839.5,-295 839.5,-295 833.5,-295 827.5,-289 827.5,-283 827.5,-283 827.5,-271 827.5,-271 827.5,-265 833.5,-259 839.5,-259 839.5,-259 870.5,-259 870.5,-259 876.5,-259 882.5,-265 882.5,-271 882.5,-271 882.5,-283 882.5,-283 882.5,-289 876.5,-295 870.5,-295"/>
<text text-anchor="middle" x="855" y="-271.57" font-family="Arial" font-size="14.00">app:cli</text>
</g>
<!-- cli&#45;&gt;entities -->
<g id="edge17" class="edge">
<title>cli&#45;&gt;entities</title>
<path fill="none" stroke="#666666" d="M882.87,-262.84C914.12,-246.34 963.17,-214.81 984,-171 998.46,-140.59 1007.42,-119.44 984,-95.25 974.45,-85.39 750.11,-91.31 737,-87.25 720.07,-82 703.25,-72.08 689.51,-62.42"/>
<polygon fill="#666666" stroke="#666666" points="691.88,-59.82 681.75,-56.72 687.74,-65.46 691.88,-59.82"/>
</g>
<!-- cli&#45;&gt;filesystem -->
<g id="edge18" class="edge">
<title>cli&#45;&gt;filesystem</title>
<path fill="none" stroke="#666666" d="M882.83,-273.26C935.22,-267.46 1045.29,-252.05 1068,-223 1102.97,-178.27 1103.03,-139.93 1068,-95.25 1050.12,-72.44 983.88,-57.34 925.81,-48.21"/>
<polygon fill="#666666" stroke="#666666" points="926.61,-44.79 916.19,-46.74 925.55,-51.71 926.61,-44.79"/>
</g>
<!-- cli&#45;&gt;config -->
<g id="edge20" class="edge">
<title>cli&#45;&gt;config</title>
<path fill="none" stroke="#666666" d="M827.23,-276.71C741.12,-277.73 473.13,-272.1 285,-171 273.29,-164.71 261.79,-155.79 252.15,-147.29"/>
<polygon fill="#666666" stroke="#666666" points="254.73,-144.9 244.99,-140.72 249.99,-150.06 254.73,-144.9"/>
</g>
<!-- cli&#45;&gt;queryparser -->
<g id="edge19" class="edge">
<title>cli&#45;&gt;queryparser</title>
<path fill="none" stroke="#666666" d="M827.18,-271.78C759.55,-260.9 581.93,-228.66 444,-171 427.76,-164.21 410.91,-154.55 396.81,-145.62"/>
<polygon fill="#666666" stroke="#666666" points="399.1,-142.93 388.8,-140.43 395.29,-148.81 399.1,-142.93"/>
</g>
<!-- cli&#45;&gt;scripting -->
<g id="edge21" class="edge">
<title>cli&#45;&gt;scripting</title>
<path fill="none" stroke="#666666" d="M855,-258.7C855,-251.41 855,-242.73 855,-234.54"/>
<polygon fill="#666666" stroke="#666666" points="858.5,-234.62 855,-224.62 851.5,-234.62 858.5,-234.62"/>
</g>
</g>
</svg>
